<svg width="370" height="69" viewBox="0 0 370 69" fill="none" xmlns="http://www.w3.org/2000/svg">
<path d="M19.2607 0L0 19.2878H26.8058V46L46 26.7787V0H19.2607Z" fill="#231F20"/>
<path d="M65.16 28V0.119999H68.88L83.16 23.44H82.36V0.119999H85.88V28H82.08L67.88 4.64H68.68V28H65.16ZM100.991 28.32C99.1513 28.32 97.4979 27.8933 96.0312 27.04C94.5912 26.16 93.4579 24.9467 92.6312 23.4C91.8046 21.8533 91.3912 20.0933 91.3912 18.12C91.3912 16.1467 91.7912 14.4 92.5912 12.88C93.4179 11.3333 94.5512 10.1333 95.9912 9.28C97.4579 8.4 99.1246 7.96 100.991 7.96C102.858 7.96 104.498 8.4 105.911 9.28C107.351 10.1333 108.485 11.3333 109.311 12.88C110.138 14.4 110.551 16.1467 110.551 18.12C110.551 20.0933 110.138 21.8533 109.311 23.4C108.485 24.92 107.351 26.12 105.911 27C104.471 27.88 102.831 28.32 100.991 28.32ZM100.991 25.32C102.245 25.32 103.325 25.0267 104.231 24.44C105.165 23.8267 105.885 22.9867 106.391 21.92C106.898 20.8267 107.151 19.56 107.151 18.12C107.151 16.6533 106.898 15.3867 106.391 14.32C105.885 13.2267 105.165 12.3867 104.231 11.8C103.325 11.2133 102.245 10.92 100.991 10.92C99.7112 10.92 98.6046 11.2267 97.6713 11.84C96.7379 12.4267 96.0179 13.2533 95.5113 14.32C95.0046 15.3867 94.7512 16.6533 94.7512 18.12C94.7512 19.56 95.0046 20.8267 95.5113 21.92C96.0179 22.9867 96.7379 23.8267 97.6713 24.44C98.6046 25.0267 99.7112 25.32 100.991 25.32ZM115.797 28V8.28H119.197V13.56L118.317 13.76C118.504 12.5867 118.944 11.5733 119.637 10.72C120.357 9.84 121.184 9.16 122.117 8.68C123.077 8.2 124.011 7.96 124.917 7.96C125.531 7.96 126.117 8.02667 126.677 8.16C127.237 8.29333 127.811 8.52 128.397 8.84L126.717 11.88C126.397 11.72 126.011 11.5867 125.557 11.48C125.131 11.3733 124.717 11.32 124.317 11.32C123.677 11.32 123.037 11.44 122.397 11.68C121.784 11.92 121.224 12.2933 120.717 12.8C120.211 13.3067 119.824 13.9867 119.557 14.84C119.451 15.2133 119.357 15.7067 119.277 16.32C119.224 16.9067 119.197 17.72 119.197 18.76V28H115.797ZM139.046 28.32C138.113 28.32 137.26 28.1467 136.486 27.8C135.74 27.4267 135.153 26.84 134.726 26.04C134.3 25.24 134.086 24.2133 134.086 22.96V3L137.526 1.08V22.08C137.526 23.1733 137.7 24.0267 138.046 24.64C138.393 25.2267 139.02 25.52 139.926 25.52C140.193 25.52 140.513 25.4933 140.886 25.44C141.26 25.36 141.66 25.2667 142.086 25.16V27.8C141.58 27.9867 141.06 28.12 140.526 28.2C140.02 28.28 139.526 28.32 139.046 28.32ZM130.006 10.92V8.28H142.086V10.92H130.006ZM146.714 28V0.119999H150.114V12.48L149.274 12.8C149.648 11.7867 150.168 10.92 150.834 10.2C151.501 9.48 152.288 8.93333 153.194 8.56C154.101 8.16 155.088 7.96 156.154 7.96C158.314 7.96 160.008 8.6 161.234 9.88C162.461 11.1333 163.074 13 163.074 15.48V28H159.674V16.72C159.674 14.72 159.301 13.2533 158.554 12.32C157.834 11.36 156.728 10.88 155.234 10.88C153.608 10.88 152.341 11.4667 151.434 12.64C150.554 13.7867 150.114 15.6267 150.114 18.16V28H146.714ZM180.06 28V0.119999H198.42V3.28H183.58V12.2H197.06V15.36H183.58V24.84H198.42V28H180.06ZM216.538 28L216.298 24.04V15.64C216.298 14.12 215.872 12.9467 215.018 12.12C214.192 11.2933 212.952 10.88 211.298 10.88C210.232 10.88 209.232 11.1067 208.298 11.56C207.365 11.9867 206.458 12.72 205.578 13.76L203.138 11.68C204.232 10.4 205.485 9.46667 206.898 8.88C208.312 8.26667 209.858 7.96 211.538 7.96C214.125 7.96 216.125 8.62666 217.538 9.96C218.952 11.2933 219.658 13.1867 219.658 15.64V28H216.538ZM210.018 28.32C208.525 28.32 207.218 28.0667 206.098 27.56C205.005 27.0267 204.152 26.2933 203.538 25.36C202.952 24.4267 202.658 23.3467 202.658 22.12C202.658 21.0267 202.872 20.1067 203.298 19.36C203.752 18.5867 204.325 17.9867 205.018 17.56C205.712 17.1067 206.498 16.8 207.378 16.64C208.285 16.4533 209.232 16.36 210.218 16.36H216.618V18.92H210.698C210.112 18.92 209.498 18.9733 208.858 19.08C208.218 19.1867 207.658 19.4133 207.178 19.76C206.832 20.0267 206.552 20.36 206.338 20.76C206.152 21.16 206.058 21.6267 206.058 22.16C206.058 23.2 206.445 24.0267 207.218 24.64C207.992 25.2533 209.032 25.56 210.338 25.56C211.432 25.56 212.418 25.3067 213.298 24.8C214.205 24.2933 214.925 23.6 215.458 22.72C216.018 21.8133 216.298 20.8 216.298 19.68L217.698 21.12C217.538 22.5333 217.112 23.7867 216.418 24.88C215.725 25.9733 214.832 26.8267 213.738 27.44C212.672 28.0267 211.432 28.32 210.018 28.32ZM232.1 28.32C230.767 28.32 229.567 28.12 228.5 27.72C227.433 27.32 226.513 26.7867 225.74 26.12C224.993 25.4533 224.393 24.7467 223.94 24L226.3 22C226.807 23.0133 227.553 23.8533 228.54 24.52C229.553 25.16 230.753 25.48 232.14 25.48C233.393 25.48 234.393 25.2133 235.14 24.68C235.887 24.1467 236.26 23.4267 236.26 22.52C236.26 21.7733 236.033 21.1867 235.58 20.76C235.127 20.3333 234.527 19.9867 233.78 19.72C233.033 19.4533 232.22 19.2133 231.34 19C230.593 18.8133 229.833 18.5867 229.06 18.32C228.313 18.0533 227.633 17.72 227.02 17.32C226.407 16.92 225.913 16.4 225.54 15.76C225.167 15.12 224.98 14.3333 224.98 13.4C224.98 11.7733 225.607 10.4667 226.86 9.48C228.14 8.46667 229.807 7.96 231.86 7.96C233.353 7.96 234.713 8.28 235.94 8.92C237.193 9.53333 238.167 10.4667 238.86 11.72L236.7 13.32C236.167 12.3867 235.46 11.72 234.58 11.32C233.727 10.8933 232.78 10.68 231.74 10.68C230.7 10.68 229.833 10.8933 229.14 11.32C228.447 11.7467 228.1 12.3333 228.1 13.08C228.1 13.64 228.26 14.0933 228.58 14.44C228.9 14.7867 229.367 15.08 229.98 15.32C230.62 15.56 231.393 15.7867 232.3 16C233.127 16.1867 233.967 16.4133 234.82 16.68C235.673 16.9467 236.46 17.2933 237.18 17.72C237.9 18.1467 238.473 18.72 238.9 19.44C239.353 20.1333 239.58 21.04 239.58 22.16C239.58 23.3867 239.273 24.4667 238.66 25.4C238.047 26.3333 237.18 27.0533 236.06 27.56C234.94 28.0667 233.62 28.32 232.1 28.32ZM251.329 28.32C250.396 28.32 249.542 28.1467 248.769 27.8C248.022 27.4267 247.436 26.84 247.009 26.04C246.582 25.24 246.369 24.2133 246.369 22.96V3L249.809 1.08V22.08C249.809 23.1733 249.982 24.0267 250.329 24.64C250.676 25.2267 251.302 25.52 252.209 25.52C252.476 25.52 252.796 25.4933 253.169 25.44C253.542 25.36 253.942 25.2667 254.369 25.16V27.8C253.862 27.9867 253.342 28.12 252.809 28.2C252.302 28.28 251.809 28.32 251.329 28.32ZM242.289 10.92V8.28H254.369V10.92H242.289ZM76.92 68.68C74.2533 68.68 71.9067 68.0667 69.88 66.84C67.8533 65.6133 66.2667 63.9067 65.12 61.72C64 59.5333 63.44 56.9733 63.44 54.04C63.44 51.1067 64 48.56 65.12 46.4C66.2667 44.2133 67.8533 42.5067 69.88 41.28C71.9067 40.0533 74.2533 39.44 76.92 39.44C79.9333 39.44 82.52 40.2 84.68 41.72C86.8667 43.2133 88.44 45.28 89.4 47.92L84 49.88C83.44 48.3067 82.5467 47.0933 81.32 46.24C80.12 45.36 78.6533 44.92 76.92 44.92C75.3467 44.92 73.9733 45.2933 72.8 46.04C71.6267 46.76 70.72 47.8 70.08 49.16C69.4667 50.52 69.16 52.1467 69.16 54.04C69.16 55.9333 69.4667 57.5733 70.08 58.96C70.72 60.32 71.6267 61.3733 72.8 62.12C73.9733 62.84 75.3467 63.2 76.92 63.2C78.6533 63.2 80.12 62.76 81.32 61.88C82.5467 61 83.44 59.7867 84 58.24L89.4 60.2C88.44 62.8133 86.8667 64.88 84.68 66.4C82.52 67.92 79.9333 68.68 76.92 68.68ZM100.198 68.4C98.5175 68.4 97.1308 68.08 96.0375 67.44C94.9708 66.7733 94.1842 65.8533 93.6775 64.68C93.1708 63.48 92.9175 62.0933 92.9175 60.52V48.28H98.3975V59.32C98.3975 60.0933 98.4775 60.8133 98.6375 61.48C98.8242 62.12 99.1575 62.64 99.6375 63.04C100.144 63.44 100.891 63.64 101.878 63.64C103.078 63.64 103.944 63.2933 104.478 62.6C105.038 61.88 105.398 60.9067 105.558 59.68C105.718 58.4267 105.798 57.0133 105.798 55.44V48.28H111.318V68H105.798V63.72L106.438 64.24C105.824 65.7867 104.958 66.8667 103.838 67.48C102.744 68.0933 101.531 68.4 100.198 68.4ZM121.13 68.4C119.743 68.4 118.583 67.9867 117.65 67.16C116.717 66.3067 116.25 64.96 116.25 63.12V40.12H121.73V62.04C121.73 62.52 121.85 62.8667 122.09 63.08C122.33 63.2667 122.637 63.36 123.01 63.36C123.25 63.36 123.477 63.3333 123.69 63.28C123.903 63.2267 124.13 63.1733 124.37 63.12V67.8C123.783 68.0133 123.21 68.16 122.65 68.24C122.09 68.3467 121.583 68.4 121.13 68.4ZM135.781 68.4C134.688 68.4 133.661 68.2 132.701 67.8C131.741 67.3733 130.968 66.6933 130.381 65.76C129.794 64.8267 129.501 63.56 129.501 61.96V43.92L135.061 40.96V60.4C135.061 61.5733 135.208 62.4533 135.501 63.04C135.821 63.6267 136.421 63.92 137.301 63.92C137.568 63.92 137.861 63.8933 138.181 63.84C138.528 63.7867 138.888 63.7067 139.261 63.6V67.8C138.701 68.0133 138.128 68.16 137.541 68.24C136.981 68.3467 136.394 68.4 135.781 68.4ZM126.061 52.56V48.28H139.261V52.56H126.061ZM150.382 68.4C148.702 68.4 147.315 68.08 146.222 67.44C145.155 66.7733 144.369 65.8533 143.862 64.68C143.355 63.48 143.102 62.0933 143.102 60.52V48.28H148.582V59.32C148.582 60.0933 148.662 60.8133 148.822 61.48C149.009 62.12 149.342 62.64 149.822 63.04C150.329 63.44 151.075 63.64 152.062 63.64C153.262 63.64 154.129 63.2933 154.662 62.6C155.222 61.88 155.582 60.9067 155.742 59.68C155.902 58.4267 155.982 57.0133 155.982 55.44V48.28H161.502V68H155.982V63.72L156.622 64.24C156.009 65.7867 155.142 66.8667 154.022 67.48C152.929 68.0933 151.715 68.4 150.382 68.4ZM166.554 68V48.28H172.074V53.64L171.314 53.68C171.394 52.56 171.714 51.56 172.274 50.68C172.861 49.8 173.594 49.12 174.474 48.64C175.354 48.1333 176.261 47.88 177.194 47.88C177.861 47.88 178.501 47.9733 179.114 48.16C179.728 48.3467 180.381 48.6533 181.074 49.08L178.434 54.04C178.141 53.8533 177.754 53.6933 177.274 53.56C176.821 53.4 176.354 53.32 175.874 53.32C175.394 53.32 174.928 53.4133 174.474 53.6C174.021 53.7867 173.621 54.0667 173.274 54.44C172.928 54.7867 172.648 55.2533 172.434 55.84C172.301 56.2133 172.194 56.6933 172.114 57.28C172.061 57.84 172.034 58.68 172.034 59.8V68H166.554ZM192.164 68.4C190.404 68.4 188.884 68.12 187.604 67.56C186.351 67 185.324 66.24 184.524 65.28C183.751 64.32 183.178 63.24 182.804 62.04C182.458 60.8133 182.284 59.5467 182.284 58.24C182.284 56.9867 182.458 55.7467 182.804 54.52C183.178 53.2933 183.738 52.1867 184.484 51.2C185.231 50.1867 186.218 49.3867 187.444 48.8C188.671 48.1867 190.138 47.88 191.844 47.88C193.364 47.88 194.698 48.1467 195.844 48.68C197.018 49.1867 197.991 49.9067 198.764 50.84C199.538 51.7467 200.111 52.8267 200.484 54.08C200.884 55.3333 201.084 56.68 201.084 58.12C201.084 58.36 201.071 58.64 201.044 58.96C201.044 59.28 201.018 59.64 200.964 60.04H187.764C187.924 61.2667 188.444 62.1867 189.324 62.8C190.204 63.3867 191.258 63.68 192.484 63.68C193.471 63.68 194.458 63.5067 195.444 63.16C196.431 62.8133 197.298 62.32 198.044 61.68L200.564 65.52C199.578 66.2133 198.658 66.7733 197.804 67.2C196.978 67.6267 196.111 67.9333 195.204 68.12C194.324 68.3067 193.311 68.4 192.164 68.4ZM195.684 57.28C195.738 57.0667 195.778 56.8533 195.804 56.64C195.858 56.4267 195.884 56.2267 195.884 56.04C195.884 55.5067 195.778 55.0267 195.564 54.6C195.378 54.1467 195.111 53.76 194.764 53.44C194.418 53.12 194.004 52.88 193.524 52.72C193.044 52.5333 192.511 52.44 191.924 52.44C190.991 52.44 190.218 52.6267 189.604 53C189.018 53.3467 188.564 53.7867 188.244 54.32C187.951 54.8533 187.764 55.4 187.684 55.96H197.524L195.684 57.28ZM228.675 68.68C226.008 68.68 223.661 68.0667 221.635 66.84C219.608 65.6133 218.021 63.9067 216.875 61.72C215.755 59.5333 215.195 56.9733 215.195 54.04C215.195 51.1067 215.755 48.56 216.875 46.4C218.021 44.2133 219.608 42.5067 221.635 41.28C223.661 40.0533 226.008 39.44 228.675 39.44C231.688 39.44 234.275 40.2 236.435 41.72C238.621 43.2133 240.195 45.28 241.155 47.92L235.755 49.88C235.195 48.3067 234.301 47.0933 233.075 46.24C231.875 45.36 230.408 44.92 228.675 44.92C227.101 44.92 225.728 45.2933 224.555 46.04C223.381 46.76 222.475 47.8 221.835 49.16C221.221 50.52 220.915 52.1467 220.915 54.04C220.915 55.9333 221.221 57.5733 221.835 58.96C222.475 60.32 223.381 61.3733 224.555 62.12C225.728 62.84 227.101 63.2 228.675 63.2C230.408 63.2 231.875 62.76 233.075 61.88C234.301 61 235.195 59.7867 235.755 58.24L241.155 60.2C240.195 62.8133 238.621 64.88 236.435 66.4C234.275 67.92 231.688 68.68 228.675 68.68ZM254.032 68.4C252.112 68.4 250.392 67.96 248.872 67.08C247.352 66.2 246.152 64.9867 245.272 63.44C244.419 61.8667 243.992 60.0933 243.992 58.12C243.992 56.12 244.419 54.3467 245.272 52.8C246.152 51.2533 247.339 50.0533 248.832 49.2C250.352 48.32 252.086 47.88 254.032 47.88C255.952 47.88 257.659 48.32 259.152 49.2C260.672 50.0533 261.859 51.2533 262.712 52.8C263.592 54.3467 264.032 56.12 264.032 58.12C264.032 60.0933 263.592 61.8667 262.712 63.44C261.859 64.9867 260.672 66.2 259.152 67.08C257.659 67.96 255.952 68.4 254.032 68.4ZM254.032 63.6C254.992 63.6 255.806 63.3867 256.472 62.96C257.139 62.5333 257.646 61.9067 257.992 61.08C258.339 60.2533 258.512 59.2667 258.512 58.12C258.512 56.9467 258.339 55.96 257.992 55.16C257.646 54.36 257.139 53.7467 256.472 53.32C255.806 52.8933 254.992 52.68 254.032 52.68C253.072 52.68 252.246 52.8933 251.552 53.32C250.886 53.7467 250.366 54.36 249.992 55.16C249.646 55.96 249.472 56.9467 249.472 58.12C249.472 59.2667 249.646 60.2533 249.992 61.08C250.366 61.9067 250.886 62.5333 251.552 62.96C252.246 63.3867 253.072 63.6 254.032 63.6ZM268.164 68V48.28H273.644V52.84L272.844 52.88C273.19 51.6267 273.697 50.64 274.364 49.92C275.057 49.1733 275.844 48.6533 276.724 48.36C277.604 48.04 278.484 47.88 279.364 47.88C281.63 47.88 283.39 48.52 284.644 49.8C285.924 51.0533 286.564 52.7867 286.564 55V68H281.044V57.04C281.044 55.52 280.764 54.4133 280.204 53.72C279.67 53 278.817 52.64 277.644 52.64C276.764 52.64 276.017 52.8533 275.404 53.28C274.817 53.7067 274.377 54.36 274.084 55.24C273.79 56.12 273.644 57.2667 273.644 58.68V68H268.164ZM291.376 68V48.28H296.856V52.84L296.056 52.88C296.403 51.6267 296.91 50.64 297.576 49.92C298.27 49.1733 299.056 48.6533 299.936 48.36C300.816 48.04 301.696 47.88 302.576 47.88C304.843 47.88 306.603 48.52 307.856 49.8C309.136 51.0533 309.776 52.7867 309.776 55V68H304.256V57.04C304.256 55.52 303.976 54.4133 303.416 53.72C302.883 53 302.03 52.64 300.856 52.64C299.976 52.64 299.23 52.8533 298.616 53.28C298.03 53.7067 297.59 54.36 297.296 55.24C297.003 56.12 296.856 57.2667 296.856 58.68V68H291.376ZM323.549 68.4C321.789 68.4 320.269 68.12 318.989 67.56C317.735 67 316.709 66.24 315.909 65.28C315.135 64.32 314.562 63.24 314.189 62.04C313.842 60.8133 313.669 59.5467 313.669 58.24C313.669 56.9867 313.842 55.7467 314.189 54.52C314.562 53.2933 315.122 52.1867 315.869 51.2C316.615 50.1867 317.602 49.3867 318.829 48.8C320.055 48.1867 321.522 47.88 323.229 47.88C324.749 47.88 326.082 48.1467 327.229 48.68C328.402 49.1867 329.375 49.9067 330.149 50.84C330.922 51.7467 331.495 52.8267 331.869 54.08C332.269 55.3333 332.469 56.68 332.469 58.12C332.469 58.36 332.455 58.64 332.429 58.96C332.429 59.28 332.402 59.64 332.349 60.04H319.149C319.309 61.2667 319.829 62.1867 320.709 62.8C321.589 63.3867 322.642 63.68 323.869 63.68C324.855 63.68 325.842 63.5067 326.829 63.16C327.815 62.8133 328.682 62.32 329.429 61.68L331.949 65.52C330.962 66.2133 330.042 66.7733 329.189 67.2C328.362 67.6267 327.495 67.9333 326.589 68.12C325.709 68.3067 324.695 68.4 323.549 68.4ZM327.069 57.28C327.122 57.0667 327.162 56.8533 327.189 56.64C327.242 56.4267 327.269 56.2267 327.269 56.04C327.269 55.5067 327.162 55.0267 326.949 54.6C326.762 54.1467 326.495 53.76 326.149 53.44C325.802 53.12 325.389 52.88 324.909 52.72C324.429 52.5333 323.895 52.44 323.309 52.44C322.375 52.44 321.602 52.6267 320.989 53C320.402 53.3467 319.949 53.7867 319.629 54.32C319.335 54.8533 319.149 55.4 319.069 55.96H328.909L327.069 57.28ZM345.508 68.4C343.855 68.4 342.415 68.12 341.188 67.56C339.988 66.9733 338.975 66.2 338.148 65.24C337.348 64.2533 336.748 63.1467 336.348 61.92C335.948 60.6933 335.748 59.4267 335.748 58.12C335.748 56.8133 335.948 55.5467 336.348 54.32C336.748 53.0933 337.348 52 338.148 51.04C338.975 50.08 339.988 49.32 341.188 48.76C342.415 48.1733 343.855 47.88 345.508 47.88C347.535 47.88 349.295 48.36 350.788 49.32C352.282 50.28 353.402 51.76 354.148 53.76L349.348 55.68C349.055 54.7733 348.602 54.04 347.988 53.48C347.402 52.92 346.575 52.64 345.508 52.64C344.495 52.64 343.668 52.9067 343.028 53.44C342.415 53.9733 341.962 54.6667 341.668 55.52C341.375 56.3467 341.228 57.2133 341.228 58.12C341.228 59.0267 341.375 59.9067 341.668 60.76C341.962 61.6133 342.415 62.3067 343.028 62.84C343.668 63.3733 344.495 63.64 345.508 63.64C346.575 63.64 347.402 63.36 347.988 62.8C348.602 62.24 349.055 61.5067 349.348 60.6L354.148 62.52C353.402 64.4933 352.282 65.9733 350.788 66.96C349.295 67.92 347.535 68.4 345.508 68.4ZM365.845 68.4C364.752 68.4 363.725 68.2 362.765 67.8C361.805 67.3733 361.032 66.6933 360.445 65.76C359.858 64.8267 359.565 63.56 359.565 61.96V43.92L365.125 40.96V60.4C365.125 61.5733 365.272 62.4533 365.565 63.04C365.885 63.6267 366.485 63.92 367.365 63.92C367.632 63.92 367.925 63.8933 368.245 63.84C368.592 63.7867 368.952 63.7067 369.325 63.6V67.8C368.765 68.0133 368.192 68.16 367.605 68.24C367.045 68.3467 366.458 68.4 365.845 68.4ZM356.125 52.56V48.28H369.325V52.56H356.125Z" fill="#231F20"/>
</svg>
