<svg xmlns="http://www.w3.org/2000/svg" width="313" height="80" viewBox="0 0 313 80" fill="black">
<path d="M115.807 74.6338H169.057V60.9289H132.147V43.1538H166.884V29.4469H132.147V13.7069H169.057V0H115.807V74.6338Z"/>
<path d="M93.7068 48.0805L62.1731 0H45.4395V74.6338H61.7187V26.3049L93.2524 74.6338H110.1V0H93.7068V48.0805Z"/>
<path d="M181.634 31.5617C182.496 31.0549 183.504 30.8025 184.66 30.8025C185.932 30.8025 187.014 31.1026 187.905 31.7008C188.797 32.299 189.448 33.1417 189.858 34.2287L193.822 32.8753C193.116 31.0529 191.967 29.62 190.371 28.5786C188.776 27.5392 186.872 27.0186 184.657 27.0186C182.699 27.0186 180.976 27.4419 179.489 28.2885C178.001 29.1351 176.841 30.3096 176.009 31.8101C175.176 33.3106 174.76 35.0734 174.76 37.1005C174.76 39.1276 175.176 40.8944 176.009 42.4048C176.841 43.9152 178.001 45.0937 179.489 45.9403C180.976 46.787 182.701 47.2103 184.657 47.2103C186.87 47.2103 188.774 46.6856 190.371 45.6363C191.967 44.5869 193.118 43.16 193.822 41.3535L189.858 40.0001C189.446 41.0693 188.795 41.906 187.905 42.5141C187.014 43.1222 185.932 43.4263 184.66 43.4263C183.504 43.4263 182.496 43.1739 181.634 42.6671C180.772 42.1604 180.11 41.433 179.652 40.485C179.191 39.537 178.961 38.4082 178.961 37.1005C178.961 35.7928 179.191 34.6699 179.652 33.7299C180.112 32.7899 180.772 32.0685 181.634 31.5617Z"/>
<path d="M206.762 33.7579C205.655 33.1498 204.397 32.8457 202.988 32.8457C201.578 32.8457 200.289 33.1458 199.184 33.744C198.077 34.3422 197.206 35.1769 196.57 36.2441C195.934 37.3133 195.615 38.5375 195.615 39.9188C195.615 41.3 195.934 42.5023 196.57 43.5795C197.206 44.6567 198.083 45.4993 199.199 46.1074C200.315 46.7156 201.578 47.0196 202.988 47.0196C204.397 47.0196 205.655 46.7116 206.762 46.0935C207.867 45.4774 208.74 44.6348 209.376 43.5656C210.012 42.4984 210.331 41.2821 210.331 39.9188C210.331 38.5554 210.012 37.3173 209.376 36.258C208.74 35.1988 207.867 34.366 206.762 33.7579ZM205.895 41.9618C205.64 42.5322 205.268 42.9654 204.78 43.2595C204.289 43.5537 203.694 43.7007 202.988 43.7007C202.282 43.7007 201.68 43.5537 201.181 43.2595C200.682 42.9654 200.3 42.5322 200.036 41.9618C199.772 41.3914 199.639 40.7097 199.639 39.9168C199.639 39.1238 199.77 38.4243 200.036 37.8718C200.3 37.3193 200.682 36.896 201.181 36.6018C201.68 36.3077 202.282 36.1606 202.988 36.1606C203.694 36.1606 204.289 36.3077 204.78 36.6018C205.27 36.896 205.642 37.3193 205.895 37.8718C206.149 38.4243 206.278 39.1059 206.278 39.9168C206.278 40.7276 206.151 41.3894 205.895 41.9618Z"/>
<path d="M225.9 46.7414V40.0002C225.9 39.1159 225.993 38.3885 226.178 37.8181C226.364 37.2477 226.643 36.8244 227.015 36.5482C227.387 36.2719 227.856 36.1348 228.425 36.1348C228.915 36.1348 229.325 36.2362 229.659 36.4389C229.993 36.6416 230.246 36.9556 230.422 37.3789C230.597 37.8022 230.686 38.3368 230.686 38.9807V46.7434H234.739V38.0685C234.739 37.202 234.553 36.3693 234.181 35.5684C233.809 34.7675 233.23 34.1136 232.448 33.6069C231.664 33.1001 230.646 32.8477 229.392 32.8477C228.63 32.8477 227.869 33.0047 227.117 33.3167C226.419 33.6069 225.788 34.0977 225.217 34.7874C225.162 34.7079 225.105 34.6324 225.046 34.5588C224.518 33.9149 223.905 33.4677 223.21 33.2193C222.514 32.9709 221.815 32.8457 221.109 32.8457C220.619 32.8457 220.12 32.9113 219.611 33.0385C219.102 33.1677 218.611 33.3982 218.142 33.7281C217.743 34.0083 217.392 34.3899 217.086 34.8708V33.1219H213.062V46.7414H217.086V40.0002C217.086 39.1159 217.183 38.3944 217.38 37.832C217.576 37.2696 217.87 36.8463 218.261 36.5621C218.652 36.2759 219.142 36.1348 219.729 36.1348C220.414 36.1348 220.942 36.3693 221.316 36.8383C221.688 37.3074 221.874 38.0129 221.874 38.9509V46.7414H225.897H225.9Z"/>
<path d="M241.964 44.9523C242.053 45.0915 242.146 45.2246 242.243 45.3458C242.761 45.9818 243.349 46.419 244.006 46.6575C244.661 46.896 245.314 47.0172 245.958 47.0172C247.23 47.0172 248.319 46.7092 249.219 46.0911C250.119 45.475 250.81 44.6324 251.29 43.5632C251.769 42.496 252.01 41.2797 252.01 39.9163C252.01 38.4059 251.735 37.1261 251.188 36.0767C250.639 35.0274 249.91 34.2265 248.999 33.674C248.088 33.1215 247.076 32.8453 245.958 32.8453C245.233 32.8453 244.538 32.9884 243.873 33.2745C243.207 33.5607 242.639 34.0119 242.169 34.6279C242.098 34.7233 242.03 34.8247 241.964 34.93V27.4873H237.971V46.741H241.964V44.9523ZM243.095 36.7544C243.575 36.4504 244.137 36.2993 244.783 36.2993C245.43 36.2993 245.992 36.4464 246.472 36.7405C246.951 37.0346 247.319 37.45 247.573 37.9826C247.826 38.5172 247.955 39.1611 247.955 39.9163C247.955 40.6715 247.828 41.3214 247.573 41.864C247.317 42.4085 246.951 42.8219 246.472 43.1081C245.992 43.3942 245.43 43.5354 244.783 43.5354C244.137 43.5354 243.575 43.3883 243.095 43.0942C242.615 42.8 242.248 42.3807 241.994 41.8361C241.738 41.2936 241.612 40.6537 241.612 39.9163C241.612 39.179 241.738 38.5451 241.994 38.0105C242.248 37.4758 242.615 37.0565 243.095 36.7544Z"/>
<path d="M258.827 27.4873H254.625V31.135H258.827V27.4873Z"/>
<path d="M258.705 33.1216H254.682V46.7411H258.705V33.1216Z"/>
<path d="M270.969 36.8656C271.371 37.3545 271.571 38.1217 271.571 39.173V46.7429H275.624V37.7639C275.624 36.2356 275.159 35.0333 274.23 34.1588C273.3 33.2844 272.002 32.8472 270.337 32.8472C269.691 32.8472 269.044 32.9525 268.4 33.1651C267.753 33.3778 267.18 33.7355 266.682 34.2423C266.481 34.447 266.299 34.6815 266.139 34.9438V33.1234H262.115V46.7429H266.139V40.3058C266.139 39.33 266.246 38.537 266.462 37.9309C266.677 37.3227 267.005 36.8716 267.447 36.5775C267.886 36.2833 268.431 36.1363 269.076 36.1363C269.938 36.1363 270.57 36.3807 270.971 36.8676L270.969 36.8656Z"/>
<path d="M289.593 46.1889C290.21 45.8948 290.88 45.5073 291.604 45.0283L289.753 42.3771C289.204 42.8183 288.568 43.1602 287.843 43.3987C287.118 43.6391 286.394 43.7584 285.669 43.7584C284.769 43.7584 283.995 43.5517 283.349 43.1363C282.702 42.7229 282.32 42.091 282.203 41.2443H291.896C291.934 40.9681 291.959 40.7197 291.97 40.4991C291.981 40.2785 291.985 40.0857 291.985 39.9188C291.985 38.9251 291.843 37.995 291.558 37.1285C291.275 36.262 290.848 35.5128 290.28 34.8768C289.711 34.2408 289.001 33.744 288.15 33.3843C287.298 33.0246 286.313 32.8457 285.198 32.8457C283.945 32.8457 282.867 33.0524 281.967 33.4677C281.066 33.8811 280.342 34.4336 279.792 35.1252C279.243 35.8148 278.837 36.584 278.573 37.4326C278.309 38.2792 278.176 39.1357 278.176 40.0022C278.176 40.8687 278.307 41.775 278.573 42.6136C278.837 43.4523 279.258 44.2016 279.837 44.8653C280.414 45.5291 281.168 46.0538 282.098 46.4393C283.027 46.8269 284.139 47.0196 285.432 47.0196C286.273 47.0196 287.023 46.9541 287.678 46.8269C288.333 46.6977 288.972 46.487 289.586 46.1909L289.593 46.1889ZM282.571 37.2934C282.795 36.9258 283.129 36.6158 283.57 36.3673C284.01 36.1189 284.574 35.9937 285.259 35.9937C285.69 35.9937 286.081 36.0533 286.434 36.1726C286.787 36.2918 287.089 36.4627 287.344 36.6833C287.598 36.9039 287.799 37.1663 287.947 37.4703C288.086 37.7585 288.158 38.0765 288.164 38.4243H282.146C282.205 38.0367 282.347 37.6611 282.573 37.2915L282.571 37.2934Z"/>
<path d="M304.114 34.8983C304.052 34.8048 303.989 34.7134 303.924 34.626C303.444 34.0099 302.875 33.5588 302.22 33.2726C301.563 32.9864 300.864 32.8433 300.12 32.8433C299.023 32.8433 298.015 33.1196 297.094 33.672C296.173 34.2245 295.444 35.0254 294.905 36.0748C294.366 37.1241 294.098 38.404 294.098 39.9144C294.098 41.2777 294.332 42.492 294.803 43.5612C295.273 44.6304 295.964 45.4731 296.874 46.0892C297.785 46.7072 298.867 47.0153 300.12 47.0153C300.786 47.0153 301.443 46.896 302.087 46.6556C302.734 46.4171 303.321 45.9779 303.85 45.3439C303.943 45.2326 304.029 45.1094 304.114 44.9802V46.739H308.137V27.4854H304.114V34.8983ZM302.998 43.0942C302.529 43.3883 301.969 43.5354 301.324 43.5354C300.68 43.5354 300.116 43.3923 299.636 43.1081C299.156 42.8219 298.784 42.4085 298.52 41.864C298.256 41.3214 298.123 40.6716 298.123 39.9164C298.123 39.1612 298.254 38.5173 298.52 37.9827C298.784 37.4481 299.156 37.0347 299.636 36.7405C300.116 36.4464 300.678 36.2994 301.324 36.2994C301.971 36.2994 302.529 36.4524 302.998 36.7545C303.467 37.0585 303.831 37.4779 304.084 38.0105C304.338 38.5451 304.467 39.181 304.467 39.9164C304.467 40.6517 304.34 41.2936 304.084 41.8362C303.828 42.3787 303.467 42.7981 302.998 43.0942Z"/>
<path d="M183.132 55.1113L174.76 74.365H179.341L180.748 70.8573H188.641L190.033 74.365H194.614L186.244 55.1113H183.132ZM182.17 67.3198L184.719 60.9661L187.24 67.3198H182.17Z"/>
<path d="M205.747 65.6907C205.747 66.7778 205.688 67.7476 205.572 68.6042C205.453 69.4607 205.193 70.1325 204.794 70.6214C204.392 71.1102 203.752 71.3527 202.871 71.3527C202.146 71.3527 201.603 71.2156 201.242 70.9393C200.878 70.6631 200.635 70.2994 200.506 69.8483C200.38 69.3971 200.316 68.9043 200.316 68.3697V60.7461H196.293V69.1984C196.293 70.2855 196.479 71.2374 196.851 72.0582C197.223 72.877 197.806 73.513 198.598 73.9641C199.391 74.4153 200.405 74.6418 201.639 74.6418C202.617 74.6418 203.513 74.4292 204.327 74.0059C204.889 73.7137 205.362 73.2626 205.751 72.6604V74.3656H209.804V60.7461H205.751V65.6907H205.747Z"/>
<path d="M218.406 55.6905L214.324 57.7355V60.7463H211.799V63.7016H214.324V70.1943C214.324 71.2993 214.54 72.1737 214.971 72.8177C215.402 73.4635 215.97 73.9266 216.674 74.2128C217.38 74.499 218.132 74.6401 218.935 74.6401C219.385 74.6401 219.82 74.6083 220.243 74.5427C220.663 74.4791 221.08 74.3718 221.492 74.2247V71.3231C221.217 71.3967 220.957 71.4523 220.714 71.4881C220.469 71.5259 220.249 71.5437 220.053 71.5437C219.406 71.5437 218.971 71.341 218.745 70.9356C218.518 70.5302 218.406 69.924 218.406 69.1132V63.6996H221.489V60.7444H218.406V55.6885V55.6905Z"/>
<path d="M232.417 60.4693C231.771 60.4693 231.124 60.5747 230.48 60.7873C229.833 61 229.26 61.3577 228.762 61.8645C228.561 62.0692 228.379 62.3037 228.219 62.566V55.1094H224.195V74.363H228.219V67.9259C228.219 66.4891 228.464 65.4358 228.954 64.762C229.442 64.0903 230.177 63.7544 231.156 63.7544C232.018 63.7544 232.65 63.9989 233.051 64.4858C233.453 64.9747 233.654 65.7418 233.654 66.7931V74.363H237.706V65.3841C237.706 63.8558 237.242 62.6534 236.312 61.779C235.382 60.9046 234.085 60.4673 232.419 60.4673L232.417 60.4693Z"/>
<path d="M251.404 61.3819C250.297 60.7738 249.04 60.4697 247.63 60.4697C246.221 60.4697 244.932 60.7698 243.827 61.368C242.72 61.9662 241.849 62.8009 241.213 63.8681C240.577 64.9373 240.258 66.1616 240.258 67.5428C240.258 68.924 240.575 70.1264 241.213 71.2035C241.849 72.2807 242.726 73.1233 243.842 73.7315C244.957 74.3396 246.221 74.6437 247.63 74.6437C249.04 74.6437 250.297 74.3356 251.404 73.7176C252.51 73.1015 253.382 72.2588 254.018 71.1896C254.654 70.1224 254.973 68.9061 254.973 67.5428C254.973 66.1795 254.654 64.9413 254.018 63.8821C253.382 62.8228 252.51 61.9901 251.404 61.3819ZM250.538 69.5858C250.282 70.1562 249.91 70.5894 249.422 70.8836C248.932 71.1777 248.336 71.3248 247.63 71.3248C246.925 71.3248 246.322 71.1777 245.824 70.8836C245.325 70.5894 244.943 70.1562 244.678 69.5858C244.414 69.0154 244.281 68.3338 244.281 67.5408C244.281 66.7478 244.412 66.0483 244.678 65.4958C244.943 64.9433 245.325 64.52 245.824 64.2259C246.322 63.9317 246.925 63.7847 247.63 63.7847C248.336 63.7847 248.932 63.9317 249.422 64.2259C249.913 64.52 250.284 64.9433 250.538 65.4958C250.792 66.0483 250.92 66.73 250.92 67.5408C250.92 68.3517 250.794 69.0135 250.538 69.5858Z"/>
<path d="M265.519 60.4697C264.832 60.4697 264.169 60.6406 263.522 60.9805C262.876 61.3223 262.343 61.7953 261.921 62.4034C261.863 62.4869 261.811 62.5704 261.76 62.6578V60.746H257.707V74.3654H261.73V68.7014C261.73 67.9283 261.756 67.3441 261.804 66.9466C261.853 66.5511 261.927 66.2232 262.024 65.9668C262.18 65.5614 262.385 65.2354 262.641 64.985C262.895 64.7366 263.188 64.5478 263.522 64.4186C263.856 64.2895 264.198 64.2259 264.551 64.2259C264.904 64.2259 265.251 64.2775 265.593 64.3769C265.935 64.4783 266.214 64.5935 266.43 64.7227L268.368 61.2985C267.858 61.0043 267.379 60.7917 266.929 60.6625C266.478 60.5333 266.007 60.4697 265.519 60.4697Z"/>
<path d="M274.42 60.7461H270.396V74.3656H274.42V60.7461Z"/>
<path d="M274.538 55.1113H270.336V58.759H274.538V55.1113Z"/>
<path d="M283.026 55.6905L278.943 57.7355V60.7463H276.418V63.7016H278.943V70.1943C278.943 71.2993 279.159 72.1737 279.59 72.8177C280.021 73.4635 280.589 73.9266 281.293 74.2128C281.999 74.499 282.751 74.6401 283.554 74.6401C284.004 74.6401 284.439 74.6083 284.862 74.5427C285.282 74.4791 285.699 74.3718 286.111 74.2247V71.3231C285.836 71.3967 285.576 71.4523 285.333 71.4881C285.088 71.5259 284.868 71.5437 284.672 71.5437C284.025 71.5437 283.59 71.341 283.364 70.9356C283.138 70.5302 283.026 69.924 283.026 69.1132V63.6996H286.109V60.7444H283.026V55.6885V55.6905Z"/>
<path d="M295.038 69.421L291.894 60.7461H287.488L292.894 73.2049L289.897 79.9998H294.244L302.586 60.7461H298.24L295.038 69.421Z"/>
<path d="M178.903 6.69149L186.923 18.9814H191.208V0H187.039V12.2283L179.017 0H174.762V18.9814H178.903V6.69149Z"/>
<path d="M197.58 18.3557C198.681 18.9539 199.925 19.2539 201.316 19.2539C202.706 19.2539 203.947 18.9499 205.037 18.3417C206.127 17.7336 206.987 16.9029 207.615 15.8496C208.242 14.7963 208.555 13.5999 208.555 12.2544C208.555 10.909 208.24 9.69071 207.615 8.64535C206.987 7.60198 206.127 6.77921 205.037 6.18101C203.947 5.58082 202.706 5.28271 201.316 5.28271C199.925 5.28271 198.655 5.57685 197.565 6.1671C196.475 6.75735 195.615 7.58012 194.989 8.63144C194.362 9.68475 194.049 10.8911 194.049 12.2544C194.049 13.6178 194.362 14.8002 194.989 15.8635C195.617 16.9247 196.481 17.7555 197.58 18.3557ZM198.406 10.2392C198.666 9.69468 199.044 9.27734 199.537 8.98718C200.029 8.69702 200.623 8.55194 201.318 8.55194C202.013 8.55194 202.601 8.69702 203.084 8.98718C203.566 9.27734 203.934 9.69468 204.185 10.2392C204.437 10.7838 204.561 11.4555 204.561 12.2544C204.561 13.0533 204.437 13.7072 204.185 14.2696C203.934 14.832 203.568 15.2593 203.084 15.5495C202.603 15.8396 202.013 15.9847 201.318 15.9847C200.623 15.9847 200.029 15.8396 199.537 15.5495C199.044 15.2593 198.668 14.832 198.406 14.2696C198.146 13.7072 198.015 13.0355 198.015 12.2544C198.015 11.4734 198.146 10.7838 198.406 10.2392Z"/>
<path d="M215.212 13.3987C215.212 12.6375 215.236 12.0612 215.284 11.6697C215.333 11.2782 215.405 10.9582 215.502 10.7018C215.656 10.3024 215.859 9.98041 216.11 9.73398C216.362 9.48953 216.651 9.30272 216.979 9.17553C217.306 9.04833 217.645 8.98474 217.993 8.98474C218.342 8.98474 218.682 9.03442 219.02 9.13379C219.358 9.23316 219.633 9.34644 219.846 9.47363L221.759 6.09708C221.256 5.80693 220.785 5.59825 220.339 5.47106C219.895 5.34387 219.43 5.28027 218.948 5.28027C218.272 5.28027 217.617 5.44721 216.979 5.78507C216.341 6.12093 215.815 6.58796 215.4 7.18815C215.343 7.26963 215.291 7.3531 215.242 7.43856V5.55453H211.246V18.9812H215.212V13.3987Z"/>
<path d="M224.886 14.87C224.886 15.959 225.097 16.8216 225.522 17.4575C225.947 18.0935 226.507 18.5506 227.202 18.8328C227.897 19.115 228.639 19.2541 229.431 19.2541C229.875 19.2541 230.304 19.2223 230.72 19.1587C231.134 19.0951 231.547 18.9898 231.95 18.8447V15.9849C231.68 16.0564 231.424 16.1121 231.183 16.1478C230.942 16.1836 230.725 16.2035 230.532 16.2035C229.894 16.2035 229.465 16.0028 229.243 15.6033C229.021 15.2038 228.909 14.6056 228.909 13.8067V8.46862H231.95V5.55513H228.909V0.570801L224.884 2.586V5.55513H222.393V8.46862H224.884V14.868L224.886 14.87Z"/>
<path d="M238.582 12.6357C238.582 11.2187 238.823 10.1813 239.306 9.51753C239.788 8.85375 240.513 8.52384 241.479 8.52384C242.328 8.52384 242.952 8.76432 243.347 9.24526C243.742 9.72621 243.94 10.4834 243.94 11.5188V18.9814H247.936V10.1296C247.936 8.62321 247.478 7.43874 246.561 6.57622C245.644 5.7137 244.365 5.28244 242.723 5.28244C242.085 5.28244 241.449 5.38578 240.811 5.59644C240.173 5.80512 239.609 6.15887 239.116 6.6577C238.918 6.85843 238.74 7.09095 238.58 7.34931V0H234.613V18.9814H238.58V12.6357H238.582Z"/>
<path d="M272.287 15.4956H262.935V10.9743H271.738V7.48842H262.935V3.48585H272.287V0H258.793V18.9814H272.287V15.4956Z"/>
<path d="M279.989 10.7573C279.351 10.7573 278.744 10.813 278.166 10.9223C277.587 11.0296 277.065 11.2124 276.602 11.4668C276.023 11.7749 275.56 12.2121 275.211 12.7745C274.865 13.3369 274.689 14.0087 274.689 14.7897C274.689 15.6801 274.93 16.4651 275.414 17.1467C275.896 17.8264 276.553 18.3491 277.384 18.7128C278.214 19.0765 279.15 19.2573 280.192 19.2573C280.83 19.2573 281.451 19.1441 282.06 18.9175C282.668 18.6909 283.228 18.3094 283.74 17.7748C283.856 17.6515 283.968 17.5184 284.074 17.3753L284.334 18.987H287.983V10.489C287.983 8.87331 287.423 7.60338 286.303 6.67726C285.183 5.75114 283.628 5.28809 281.642 5.28809C280.405 5.28809 279.258 5.43714 278.195 5.73723C277.134 6.03733 276.061 6.56 274.981 7.30328L276.834 9.89084C277.413 9.45561 278.113 9.10186 278.933 8.82958C279.752 8.55731 280.541 8.42019 281.293 8.42019C282.104 8.42019 282.766 8.58315 283.277 8.91107C283.788 9.237 284.044 9.76564 284.044 10.491V10.7633H279.991L279.989 10.7573ZM283.594 14.9249C283.294 15.3422 282.899 15.6701 282.406 15.9046C281.914 16.1411 281.369 16.2584 280.771 16.2584C280.133 16.2584 279.628 16.1272 279.252 15.8629C278.876 15.6006 278.687 15.2409 278.687 14.7877C278.687 14.587 278.732 14.4062 278.818 14.2432C278.905 14.0802 279.026 13.9431 279.18 13.8358C279.372 13.7086 279.585 13.6231 279.818 13.5774C280.05 13.5317 280.3 13.5098 280.57 13.5098H284.044C284.044 14.0365 283.894 14.5075 283.596 14.9268L283.594 14.9249Z"/>
<path d="M297.697 15.9048C297.34 16.1413 296.844 16.2585 296.206 16.2585C295.337 16.2585 294.617 16.0499 294.048 15.6325C293.478 15.2152 293.03 14.7779 292.702 14.3248L289.98 16.5586C290.327 16.9223 290.771 17.3158 291.312 17.7431C291.853 18.1704 292.529 18.5281 293.338 18.8183C294.15 19.1084 295.094 19.2535 296.176 19.2535C297.372 19.2535 298.42 19.0627 299.318 18.6811C300.216 18.2996 300.911 17.761 301.404 17.0614C301.896 16.3619 302.141 15.559 302.141 14.6507C302.141 13.8697 301.972 13.2198 301.634 12.7031C301.296 12.1844 300.852 11.7671 300.303 11.4491C299.754 11.1311 299.168 10.8827 298.551 10.6998C297.932 10.519 297.345 10.364 296.785 10.2368C296.187 10.0917 295.713 9.96451 295.365 9.85521C295.018 9.7459 294.767 9.62467 294.612 9.48754C294.458 9.35041 294.38 9.18347 294.38 8.98275C294.38 8.71048 294.538 8.48789 294.857 8.31499C295.177 8.14209 295.586 8.05663 296.087 8.05663C296.685 8.05663 297.256 8.1878 297.797 8.45212C298.338 8.71445 298.781 9.08411 299.128 9.55511L301.59 7.73071C301.03 6.93178 300.278 6.32364 299.331 5.9063C298.384 5.48895 297.334 5.28027 296.174 5.28027C294.532 5.28027 293.205 5.65191 292.193 6.39718C291.179 7.14244 290.671 8.12222 290.671 9.33849C290.671 10.0639 290.826 10.668 291.134 11.149C291.443 11.6299 291.848 12.0254 292.351 12.3335C292.852 12.6415 293.393 12.8919 293.972 13.0827C294.551 13.2735 295.111 13.4325 295.652 13.5597C296.134 13.6869 296.569 13.8141 296.956 13.9412C297.34 14.0684 297.651 14.2195 297.881 14.3904C298.114 14.5633 298.228 14.7938 298.228 15.084C298.228 15.392 298.05 15.6663 297.691 15.9008L297.697 15.9048Z"/>
<path d="M312.999 8.47061V5.55712H309.958V0.570801L305.933 2.586V5.55513H303.441V8.46862H305.933V14.868C305.933 15.957 306.144 16.8196 306.569 17.4555C306.994 18.0915 307.553 18.5486 308.249 18.8308C308.944 19.113 309.686 19.2521 310.478 19.2521C310.922 19.2521 311.351 19.2203 311.767 19.1567C312.181 19.0931 312.593 18.9878 312.997 18.8427V15.9829C312.726 16.0544 312.471 16.1101 312.23 16.1458C311.989 16.1816 311.771 16.2015 311.579 16.2015C310.941 16.2015 310.512 16.0008 310.29 15.6013C310.068 15.2018 309.956 14.6036 309.956 13.8047V8.46664H312.997L312.999 8.47061Z"/>
<path d="M0 15.6466H23.1532V37.3169L39.7346 21.722V0H16.6364L0 15.6466Z"/>
</svg>