<svg width="203" height="64" viewBox="0 0 260 82" fill="black" xmlns="http://www.w3.org/2000/svg">
<g clip-path="url(#clip0_45_151)">
<path d="M90.4574 14.7084C90.4574 12.6123 90.4574 10.5163 90.3659 8.51139H90.4574C91.8304 10.334 93.1119 12.1567 94.4849 14.0704L100.984 22.728H105.469V1.22083H100.892V9.14932C100.892 11.2454 100.892 13.2503 100.984 15.3463H100.892C99.5193 13.5237 98.2378 11.701 96.8648 9.78724L90.3659 1.1297H85.8807V22.5457H90.4574V14.7084Z"/>
<path d="M115.446 23.0014C120.114 23.0014 123.593 19.7206 123.593 15.3463C123.593 11.0631 120.114 7.69122 115.446 7.69122C110.778 7.69122 107.3 10.972 107.3 15.3463C107.208 19.6295 110.686 23.0014 115.446 23.0014ZM115.446 11.6099C117.46 11.6099 119.107 13.2503 119.107 15.3463C119.107 17.4423 117.551 19.0827 115.446 19.0827C113.341 19.0827 111.785 17.4423 111.785 15.3463C111.785 13.2503 113.341 11.6099 115.446 11.6099Z"/>
<path d="M130 13.7971C131.098 12.5212 132.38 12.0655 133.936 12.0655C134.394 12.0655 134.76 12.1567 135.126 12.2478V7.9646C134.76 7.87347 134.485 7.87347 134.211 7.87347C132.38 7.87347 131.007 8.60253 130 10.0606H129.909V8.14687H125.515V22.728H130V13.7971Z"/>
<path d="M139.52 17.169C139.52 19.4473 140.069 20.7231 140.801 21.5433C141.716 22.5457 143.089 23.0014 144.645 23.0014C145.927 23.0014 147.3 22.6369 147.941 22.1812V18.6271C147.391 18.9005 146.476 19.1739 145.744 19.1739C144.371 19.1739 144.005 18.0803 144.005 16.7133V11.7922H147.849V8.05575H144.005V3.49915L139.52 4.2282V8.05575H137.14V11.7922H139.52V17.169Z"/>
<path d="M154.714 12.7946C155.538 12.1567 156.636 11.6099 157.735 11.6099C158.375 11.6099 158.925 11.7922 159.291 12.2478C159.657 12.7035 159.84 13.1591 159.84 14.2527V22.6369H164.325V13.5237C164.325 11.4276 163.959 10.1518 163.044 9.24047C162.128 8.32915 160.755 7.78236 159.199 7.78236C157.369 7.78236 155.813 8.51141 154.714 9.42273H154.623V0.0361328H150.137V22.6369H154.623V12.7946H154.714Z"/>
<path d="M171.831 23.0014C173.753 23.0014 175.126 22.2723 176.316 21.2699H176.408V22.6369H180.893V8.05573H176.408V17.8069C175.675 18.4448 174.577 19.0827 173.387 19.0827C172.746 19.0827 172.197 18.9004 171.739 18.4448C171.373 17.9891 171.19 17.4423 171.19 16.3487V8.05573H166.705V17.0778C166.705 19.265 167.163 20.5408 168.078 21.5433C168.902 22.3635 170.183 23.0014 171.831 23.0014Z"/>
<path d="M188.216 12.7946C188.948 12.1567 190.046 11.6099 191.053 11.6099C191.602 11.6099 192.151 11.7922 192.609 12.2478C192.975 12.7035 193.158 13.2503 193.158 14.2527V22.6369H197.643V13.5237C197.643 13.3414 197.643 13.068 197.643 12.8857C198.376 12.2478 199.474 11.701 200.573 11.701C201.122 11.701 201.671 11.8833 202.129 12.3389C202.495 12.7035 202.678 13.2503 202.678 14.3438V22.728H207.163V13.6148C207.163 11.5188 206.705 10.2429 205.79 9.33159C204.966 8.42026 203.685 7.87347 202.037 7.87347C200.206 7.87347 198.467 8.5114 196.911 9.96951C196.087 8.5114 194.257 7.87347 192.701 7.87347C190.962 7.87347 189.405 8.60253 188.307 9.51385H188.216V8.238H183.73V22.8191H188.216V12.7946Z"/>
<path d="M217.14 23.0014C221.717 23.0014 225.012 19.7207 225.012 15.1641C225.012 10.6075 221.717 7.78236 218.147 7.78236C216.774 7.78236 215.401 8.23802 214.577 8.78481H214.486V0.0361328H210V22.8191L213.57 22.2724C214.486 22.6369 215.676 23.0014 217.14 23.0014ZM214.486 12.2478C215.126 11.8833 216.042 11.5188 216.957 11.5188C219.154 11.5188 220.435 13.1591 220.435 15.3463C220.435 17.4424 219.154 19.3561 216.774 19.3561C215.95 19.3561 215.035 19.0827 214.486 18.8093V12.2478Z"/>
<path d="M231.328 10.0606L231.236 8.05574H226.843V22.6369H231.328V13.7971C232.426 12.5212 233.708 12.0655 235.264 12.0655C235.722 12.0655 236.088 12.1567 236.454 12.2478V7.9646C236.088 7.87347 235.813 7.87347 235.538 7.87347C233.799 7.87347 232.426 8.60253 231.328 10.0606Z"/>
<path d="M243.319 8.05573H238.834V22.6369H243.319V8.05573Z"/>
<path d="M241.03 0.856323C239.566 0.856323 238.376 2.04104 238.376 3.40802C238.376 4.86613 239.566 5.95972 241.03 5.95972C242.495 5.95972 243.685 4.775 243.685 3.40802C243.685 2.04104 242.495 0.856323 241.03 0.856323Z"/>
<path d="M258.971 19.265C258.33 19.265 258.056 18.8093 258.056 18.0803V13.1591C258.056 11.3365 257.507 10.0606 256.408 9.14933C255.218 8.23801 253.479 7.78235 251.557 7.78235C249.452 7.78235 247.621 8.32914 246.431 8.87593V12.7946C247.621 12.1567 249.085 11.6099 250.733 11.6099C251.832 11.6099 252.564 11.8833 253.021 12.2478C253.388 12.5212 253.571 13.068 253.571 13.7971V14.3439C252.747 14.1616 251.923 14.0705 251.008 14.0705C249.452 14.0705 248.079 14.3439 246.889 15.0729C245.882 15.802 245.15 16.9867 245.15 18.6271C245.15 20.1763 245.79 21.2699 246.889 21.9989C247.804 22.6369 248.994 22.9103 250.275 22.9103C251.923 22.9103 253.388 22.3635 254.394 21.7255H254.486C255.31 22.5457 256.408 22.9103 257.598 22.9103C258.422 22.9103 259.246 22.728 259.795 22.4546V19.0827C259.52 19.1739 259.246 19.265 258.971 19.265ZM253.571 19.0827C253.021 19.4473 252.289 19.6295 251.557 19.6295C250.55 19.6295 249.726 19.0827 249.726 18.1714C249.726 17.0778 250.916 16.7133 252.015 16.7133C252.472 16.7133 253.113 16.8044 253.662 16.8956V19.0827H253.571Z"/>
<path d="M104.645 30.8387H100.068V41.8657C100.068 44.144 99.7939 45.6021 99.1531 46.6046C98.4209 47.6982 97.2309 48.3361 95.3087 48.3361C93.295 48.3361 92.0135 47.5159 91.3728 46.5135C90.732 45.511 90.549 44.144 90.549 41.8657V30.8387H85.8807V42.048C85.8807 45.0553 86.3384 47.4248 87.5283 49.1563C89.0844 51.3435 91.8304 52.6193 95.3087 52.6193C98.787 52.6193 101.533 51.3435 103.089 49.1563C104.279 47.4248 104.737 45.0553 104.737 41.8657V30.8387H104.645Z"/>
<path d="M117.094 52.2548H121.579V43.1416C121.579 41.0455 121.213 39.7697 120.297 38.8584C119.382 37.9471 118.009 37.4003 116.453 37.4003C114.622 37.4003 113.066 38.1293 111.968 39.1318H111.876V37.7648H107.391V52.3459H111.876V42.4125C112.7 41.7746 113.798 41.2278 114.897 41.2278C115.538 41.2278 116.087 41.4101 116.453 41.8657C116.819 42.3214 117.002 42.7771 117.002 43.8706V52.2548H117.094Z"/>
<path d="M128.902 37.6736H124.417V52.2548H128.902V37.6736Z"/>
<path d="M126.705 35.6688C128.169 35.6688 129.359 34.484 129.359 33.1171C129.359 31.6589 128.169 30.5654 126.705 30.5654C125.24 30.5654 124.05 31.7501 124.05 33.1171C124.142 34.484 125.332 35.6688 126.705 35.6688Z"/>
<path d="M141.259 52.2548L147.208 37.6736H142.723L140.893 42.3214C140.343 43.8706 139.703 45.511 139.153 46.9691H139.062C138.513 45.511 137.964 43.8706 137.414 42.3214L135.675 37.6736H130.915L136.865 52.2548H141.259Z"/>
<path d="M161.122 47.5159C159.565 48.5184 157.826 49.1563 156.179 49.1563C154.073 49.1563 152.426 48.245 151.968 46.2401H161.854C161.945 45.8755 161.945 45.2376 161.945 44.6908C161.945 39.7697 158.559 37.4003 154.989 37.4003C150.961 37.4003 147.3 40.4076 147.3 45.0554C147.3 49.612 150.778 52.6193 155.629 52.6193C157.552 52.6193 159.749 52.1637 161.213 51.2523V47.5159H161.122ZM154.897 40.7722C156.362 40.7722 157.552 41.6835 157.826 43.3239H151.968C152.243 41.6835 153.433 40.7722 154.897 40.7722Z"/>
<path d="M174.028 37.5825C173.662 37.4914 173.387 37.4914 173.112 37.4914C171.282 37.4914 169.909 38.2205 168.902 39.6786H168.81V37.7648H164.417V52.3459H168.902V43.5061C170 42.2303 171.282 41.7746 172.838 41.7746C173.296 41.7746 173.662 41.8657 174.028 41.9569V37.5825Z"/>
<path d="M180.16 46.4224C182.357 46.9691 184.005 46.878 184.005 47.9716C184.005 48.7918 183.273 49.0652 181.991 49.0652C180.618 49.0652 178.238 48.5184 176.225 47.3337V51.2524C177.964 52.0725 180.252 52.4371 181.991 52.4371C185.744 52.4371 188.582 50.7056 188.582 47.5159C188.582 44.9642 186.842 43.9618 184.096 43.2327C181.9 42.6859 180.344 42.7771 180.344 41.6835C180.344 41.0456 181.076 40.681 182.266 40.681C183.547 40.681 185.836 41.1367 187.758 42.2303V38.3116C186.11 37.4914 183.913 37.1269 182.174 37.1269C178.513 37.1269 175.767 38.8584 175.767 41.9569C175.767 44.5997 177.414 45.7844 180.16 46.4224Z"/>
<path d="M195.447 37.6736H190.962V52.2548H195.447V37.6736Z"/>
<path d="M193.25 35.6688C194.714 35.6688 195.904 34.484 195.904 33.1171C195.904 31.6589 194.714 30.5654 193.25 30.5654C191.785 30.5654 190.595 31.7501 190.595 33.1171C190.595 34.484 191.785 35.6688 193.25 35.6688Z"/>
<path d="M208.536 51.7991V48.245C207.987 48.5184 207.071 48.7918 206.339 48.7918C204.966 48.7918 204.6 47.6982 204.6 46.3312V41.4101H208.444V37.6737H204.6V33.1171L200.115 33.8461V37.6737H197.735V41.4101H200.115V46.7869C200.115 49.0652 200.664 50.341 201.396 51.1612C202.312 52.1637 203.685 52.6193 205.241 52.6193C206.522 52.6193 207.804 52.2548 208.536 51.7991Z"/>
<path d="M211.923 58.8163H216.499L226.019 37.7648H221.534L219.978 41.3189C219.337 42.8682 218.605 44.4174 217.964 46.0578H217.872C217.323 44.5085 216.683 43.0504 216.042 41.4101L214.486 37.7648H209.726L215.676 50.7055L211.923 58.8163Z"/>
<path d="M98.1462 72.4861C98.1462 74.1265 98.1462 75.7669 98.1462 77.3161C97.2309 76.0403 96.3156 74.7644 95.3087 73.4886L89.542 65.8335H86.8876V81.6905H89.6336V75.0378C89.6336 73.3975 89.6336 71.7571 89.6336 70.2078C90.5489 71.4837 91.4643 72.7595 92.4711 74.0354L98.2378 81.6905H100.892V65.8335H98.1462V72.4861Z"/>
<path d="M107.391 74.6733H113.158V72.3039H107.391V68.2941H114.073V65.8335H104.554V81.6905H114.256V79.2299H107.391V74.6733Z"/>
<path d="M133.844 73.5797C133.387 74.9466 133.021 76.4048 132.654 77.7717C132.288 76.4048 131.922 75.1289 131.373 73.5797L128.993 65.8334H126.979L124.599 73.4885C124.142 74.8555 123.684 76.3136 123.318 77.6806C122.952 76.3136 122.494 74.8555 122.128 73.4885L119.84 65.7423H116.911L121.853 81.5993H124.783L126.888 74.7644C127.254 73.4885 127.62 72.2127 127.986 71.028C128.352 72.2127 128.719 73.5797 129.085 74.8555L131.19 81.5993H134.119L139.062 65.7423H136.224L133.844 73.5797Z"/>
<path d="M142.998 73.7619C142.998 70.5723 145.286 68.1118 148.673 68.1118C150.321 68.1118 151.968 68.6585 153.158 69.5699V66.6536C151.877 66.0157 150.321 65.5601 148.673 65.5601C143.639 65.5601 140.16 69.2053 140.16 73.7619C140.16 78.4097 143.639 81.8727 148.673 81.8727C150.321 81.8727 152.06 81.5082 153.341 80.7791V77.8629C152.06 78.8653 150.504 79.4121 148.856 79.4121C145.378 79.4121 142.998 76.9516 142.998 73.7619Z"/>
<path d="M162.494 65.8335L155.996 81.6905H158.833L160.389 77.7718H167.254L168.81 81.6905H171.739L165.241 65.8335H162.494ZM166.339 75.5846H161.305L162.22 73.2152C162.769 71.7571 163.318 70.3901 163.776 68.932C164.325 70.3901 164.783 71.7571 165.332 73.2152L166.339 75.5846Z"/>
<path d="M180.069 72.4861C178.147 71.9393 176.499 71.6659 176.499 70.0255C176.499 68.6585 177.598 68.1118 179.062 68.1118C180.344 68.1118 182.266 68.5674 183.822 69.5699V66.7448C182.449 65.9246 180.618 65.5601 179.062 65.5601C175.858 65.5601 173.662 67.2916 173.662 70.1167C173.662 72.9418 175.767 73.9442 177.964 74.5821C180.069 75.2201 181.717 75.4023 181.717 77.225C181.717 78.6831 180.618 79.4121 178.971 79.4121C177.689 79.4121 175.584 78.8653 174.028 77.7718V80.688C175.492 81.5082 177.415 81.8727 178.971 81.8727C182.266 81.8727 184.554 80.0501 184.554 77.1338C184.554 74.3087 182.449 73.2152 180.069 72.4861Z"/>
<path d="M186.568 68.2941H191.785V81.6905H194.531V68.2941H199.84V65.8335H186.568V68.2941Z"/>
<path d="M205.973 65.8335H203.135V81.6905H213.204V79.2299H205.973V65.8335Z"/>
<path d="M218.879 74.6733H224.737V72.3039H218.879V68.2941H225.561V65.8335H216.133V81.6905H225.836V79.2299H218.879V74.6733Z"/>
<path d="M25.1938 47.8805C24.5531 47.9716 23.9123 48.0627 23.18 48.0627C23.0885 48.0627 22.997 48.0627 22.9054 48.0627C22.9054 49.5209 22.7224 56.0824 22.7224 56.0824L22.5393 61.6414C25.9261 62.5527 29.9535 61.4591 33.2488 63.0995V48.9741C32.6996 48.6095 31.7842 48.1539 30.2281 47.7893C28.9467 47.5159 26.6583 47.6071 25.1938 47.8805Z"/>
<path d="M45.5143 48.0627C45.4228 48.0627 45.3313 48.0627 45.2397 48.0627C44.5075 48.0627 43.8667 47.9716 43.1345 47.8805C41.6699 47.6982 39.3816 47.5159 38.1916 47.7893C36.6356 48.1538 35.7202 48.7006 35.171 48.974V63.0084C38.4662 61.368 42.4937 62.4616 45.8805 61.5503L45.6974 55.9912C45.6974 55.9912 45.5143 49.5208 45.5143 48.0627Z"/>
<path d="M65.1026 49.4297C63.4549 48.3361 61.8073 47.3337 60.1597 46.4223H60.0682V46.3312L62.1735 42.048C60.8005 41.3189 59.4275 40.681 58.146 40.0431C57.8714 39.8608 57.5052 39.7697 57.1391 39.5874L55.4915 44.2352H55.4C53.2947 43.3238 51.0979 42.5948 48.9011 41.9569H48.8095V41.8657L50.091 37.1269C48.3519 36.5801 46.4297 36.2155 44.599 35.851L43.8667 40.7721H43.7752C41.4868 40.3165 39.107 40.0431 36.7271 39.952H36.6355V39.8608L36.9101 35.0308C35.9948 34.9397 34.9879 34.9397 34.0726 34.9397C33.1573 34.9397 32.1504 34.9397 31.2351 35.0308L31.5096 39.952H31.4181C29.0382 40.0431 26.6584 40.3165 24.37 40.7721H24.2785V40.681L23.6377 35.7599C21.8071 36.1244 19.9764 36.4889 18.1457 37.0357L19.4272 41.7746H19.3357C17.1388 42.4125 14.942 43.1416 12.8368 44.0529H12.7452L11.0976 39.4052C10.7315 39.5874 10.3653 39.6786 10.0907 39.8608C8.71774 40.4988 7.34473 41.1367 6.06325 41.8657L8.26007 46.2401H8.16853C6.52092 47.1514 4.78178 48.1538 3.22571 49.2474C6.97859 59.3631 15.3082 71.4836 34.1641 81.5082C53.0201 71.6659 61.3497 59.5453 65.1026 49.4297ZM41.9445 64.7399C40.3884 64.7399 37.2763 64.831 35.2625 66.198H33.2488C31.235 64.831 28.1229 64.7399 26.5668 64.7399C24.6446 64.7399 21.1663 65.1044 18.3288 64.831L18.9695 47.6982L21.1663 45.9667C23.4547 46.6046 24.5531 45.9667 27.116 45.9667C29.9536 45.9667 31.9673 46.3312 34.2557 47.6982C36.544 46.3312 38.6493 45.9667 41.3953 45.9667C43.9582 45.9667 45.0567 46.6046 47.345 45.9667L49.5418 47.6982L50.1825 64.831C47.345 65.0133 43.8667 64.7399 41.9445 64.7399Z"/>
<path d="M27.8483 16.3488H26.2922V19.7206H27.8483V16.3488Z"/>
<path d="M18.3288 11.5187H16.7727V14.8906H18.3288V11.5187Z"/>
<path d="M8.80925 16.3488H7.25317V19.7206H8.80925V16.3488Z"/>
<path d="M51.464 11.5187H49.908V14.8906H51.464V11.5187Z"/>
<path d="M0.296631 1.22083C0.296631 1.22083 0.296631 23.7304 0.296631 32.2969C0.296631 35.6687 0.479699 41.4101 2.76804 48.1538C3.95798 47.3336 5.14792 46.6046 6.33786 45.8755L4.04952 41.3189L5.33099 40.5899C7.07013 39.6786 8.80927 38.7672 10.5484 38.0382L11.9214 37.4914V37.5825L13.6606 42.3214C14.942 41.7746 16.2235 41.3189 17.505 40.9544L16.2235 36.0333L17.6881 35.5776C19.5187 35.0308 21.4409 34.5752 23.2716 34.3018L24.7362 34.0284V34.1195L25.4684 39.1318C26.933 38.9495 28.3975 38.7672 29.862 38.6761L29.5874 33.5727L31.052 33.4816C32.0589 33.3904 32.9742 33.3904 33.9811 33.3904C34.9879 33.3904 35.9033 33.3904 36.9101 33.4816L38.3747 33.5727V33.6638L38.2832 38.585C39.7477 38.6761 41.2122 38.8584 42.6768 39.0406L43.409 33.9372L44.8736 34.2106C46.7958 34.5752 48.6265 35.0308 50.4572 35.4865L51.9217 35.9421L50.6402 40.8633C51.9217 41.2278 53.2032 41.7746 54.4846 42.2302L56.2238 37.4003L57.5968 37.947C59.3359 38.6761 61.1666 39.5874 62.8142 40.4987L64.0957 41.2278L61.8073 45.7844C62.9973 46.5135 64.2788 47.2425 65.3772 48.0627C67.6655 41.3189 67.8486 35.5776 67.8486 32.2057C67.8486 23.6393 67.8486 1.1297 67.8486 1.1297H0.296631V1.22083ZM13.7521 5.23064H15.2166V6.77989H16.8642V5.23064H18.2373V6.77989H19.8849V5.23064H21.3494V8.78479H13.7521V5.23064ZM19.7933 10.0606V16.2576H15.3082V10.0606H19.7933ZM11.1892 29.3806H4.87332V26.0999H11.1892V29.3806ZM11.0061 24.7329H4.96485L5.78866 23.0014V14.9818H10.1823V23.0014L11.0061 24.7329ZM11.7384 13.6148H4.14105V10.1518H5.60559V11.6099H7.2532V10.0606H8.6262V11.6099H10.2738V10.0606H11.7384V13.6148ZM23.1801 22.9103L22.2647 24.7329V29.3806H19.8849V23.7304C19.8849 22.2723 17.6881 21.4521 17.5965 21.361C17.505 21.361 15.3082 22.1812 15.3082 23.7304V29.3806H12.9283V24.9152L12.013 22.9103V17.4423H13.7521V18.9004H15.3997V17.3512H16.7727V18.9004H18.4203V17.3512H19.7933V18.9004H21.4409V17.3512H23.1801V22.9103ZM30.2282 29.3806H23.9123V26.0999H30.2282V29.3806ZM30.1366 24.7329H24.0954L24.9192 23.0014V14.9818H29.3128V23.0014L30.1366 24.7329ZM30.8689 13.6148H23.2716V10.1518H24.7362V11.6099H26.3838V10.0606H27.7568V11.6099H29.4044V10.0606H30.8689V13.6148ZM44.2328 29.3806H37.917V26.0999H44.2328V29.3806ZM44.1413 24.7329H38.1001L38.9239 23.0014V14.9818H43.3175V23.0014L44.1413 24.7329ZM44.8736 13.6148H37.3678V10.1518H38.8324V11.6099H40.48V10.0606H41.853V11.6099H43.5006V10.0606H44.9651L44.8736 13.6148ZM46.8873 5.23064H48.3519V6.77989H49.9995V5.23064H51.3725V6.77989H53.0201V5.23064H54.4846V8.78479H46.8873V5.23064ZM52.837 10.0606V16.2576H48.3519V10.0606H52.837ZM56.3153 22.9103L55.4 24.7329V29.3806H53.0201V23.7304C53.0201 22.2723 50.8233 21.4521 50.7318 21.361C50.6402 21.361 48.4434 22.1812 48.4434 23.7304V29.3806H46.0635V24.9152L45.1482 22.9103V17.4423H46.8873V18.9004H48.5349V17.3512H49.9079V18.9004H51.5556V17.3512H52.9286V18.9004H54.5762V17.3512H56.3153V22.9103ZM63.3634 29.3806H57.0476V26.0999H63.3634V29.3806ZM63.2719 24.7329H57.2306L58.0545 23.0014V14.9818H62.4481V23.0014L63.2719 24.7329ZM64.0042 13.6148H56.4068V10.1518H57.8714V11.6099H59.519V10.0606H60.892V11.6099H62.5396V10.0606H64.0042V13.6148Z"/>
<path d="M60.9836 16.3488H59.4275V19.7206H60.9836V16.3488Z"/>
<path d="M41.9445 16.3488H40.3884V19.7206H41.9445V16.3488Z"/>
</g>
<defs>
<clipPath id="clip0_45_151">
<rect width="260" height="82"/>
</clipPath>
</defs>
</svg>
