<svg width="215" height="55" viewBox="0 0 215 55" fill="none" xmlns="http://www.w3.org/2000/svg">
<g clip-path="url(#clip0_272_555)">
<path d="M97.4154 6.10425H93.3071L52.4216 32.8011L72.0952 54.8097H97.4154V6.10425Z" fill="#F38F00"/>
<path d="M215 49.3857H213.211V39.6057H215V49.3857ZM211.693 49.3857H209.929V42.5003H211.693V49.3857ZM209.628 40.5709C209.628 39.9122 210.165 39.3994 210.814 39.3994C211.447 39.3994 211.97 39.9122 211.97 40.5703C211.97 41.1937 211.447 41.7265 210.814 41.7265C210.165 41.7265 209.628 41.1937 209.628 40.5703M205.205 49.4558C203.291 49.4558 201.717 47.9834 201.717 45.9578C201.717 43.9077 203.346 42.4302 205.275 42.4302C206.843 42.4302 208.18 43.4102 208.568 45.0233H206.693C206.401 44.4552 205.893 44.0985 205.23 44.0985C204.266 44.0985 203.496 44.8678 203.496 45.943C203.496 47.0188 204.266 47.7874 205.23 47.7874C205.854 47.7874 206.336 47.4706 206.638 46.9635H208.522C208.085 48.6017 206.663 49.4558 205.205 49.4558ZM200.531 45.6564V49.3909H198.702V46.0689C198.702 45.8325 198.867 44.0985 197.546 44.0285C196.897 43.9886 195.742 44.3447 195.742 46.1493V49.3909H193.923V42.5003H195.324L195.561 43.3396H195.792C196.084 42.9931 196.732 42.4302 197.888 42.4302C199.667 42.4302 200.532 43.7567 200.532 45.6564M192.294 42.5003V49.3909H190.917L190.671 48.6165H190.49C190.214 48.9635 189.606 49.4558 188.48 49.4558C186.645 49.4558 185.711 48.1641 185.711 46.2347V42.5003H187.585V45.8176C187.585 46.6718 187.651 47.8575 188.836 47.8575C189.444 47.8575 190.435 47.5413 190.435 45.7367V42.5003H192.294ZM182.72 45.943C182.72 44.8678 182.087 44.0285 181.036 44.0285C179.991 44.0285 179.288 44.8678 179.288 45.943C179.288 47.0188 179.991 47.8575 181.037 47.8575C182.087 47.8575 182.72 47.0188 182.72 45.943ZM177.484 45.9578C177.484 43.7515 179.192 42.4302 181.036 42.4302C182.896 42.4302 184.525 43.7669 184.525 45.9282C184.525 48.1191 182.841 49.4558 180.981 49.4558C179.112 49.4558 177.484 48.1191 177.484 45.9578ZM176.725 46.4957C176.177 48.3401 174.634 49.4558 172.769 49.4558C170.252 49.4558 168.417 47.3903 168.417 44.5658C168.417 41.7413 170.236 39.6758 172.759 39.6758C174.604 39.6758 176.177 40.7914 176.725 42.6359H174.644C174.287 41.8666 173.639 41.4951 172.785 41.4951C171.217 41.4951 170.317 42.7772 170.317 44.5664C170.317 46.3555 171.227 47.6364 172.815 47.6364C173.67 47.6364 174.287 47.2649 174.644 46.4957H176.725ZM164.025 45.6564V49.3909H162.176V46.0689C162.176 45.3954 162.286 44.0285 161.044 44.0285C160.442 44.0285 159.271 44.3447 159.271 46.1493V49.3909H157.426V39.6057H159.175V43.2193H159.406C159.738 42.8723 160.371 42.4302 161.391 42.4302C163.17 42.4302 164.025 43.7567 164.025 45.6564ZM152.958 49.4558C151.044 49.4558 149.476 47.9834 149.476 45.9578C149.476 43.9077 151.099 42.4302 153.028 42.4302C154.597 42.4302 155.933 43.4102 156.32 45.0233H154.446C154.16 44.4552 153.647 44.0985 152.989 44.0985C152.023 44.0985 151.25 44.8678 151.25 45.943C151.25 47.0188 152.023 47.7874 152.989 47.7874C153.607 47.7874 154.089 47.4706 154.39 46.9629H156.28C155.838 48.6017 154.421 49.4558 152.958 49.4558ZM149.058 42.4302V44.1943C148.859 44.1589 148.657 44.1404 148.455 44.139C147.491 44.139 146.485 44.6364 146.485 45.9025V49.3857H144.651V42.5003H146.058L146.304 43.2592H146.525C146.827 42.9527 147.505 42.4302 148.631 42.4302H149.058ZM141.123 46.4957V46.355C139.871 46.4957 138.63 46.6467 138.63 47.3652C138.63 48.4108 141.012 48.3253 141.123 46.4957ZM143.63 48.0638V49.3857H143.219C142.419 49.3857 141.857 49.0991 141.621 48.506C141.209 49.0689 140.52 49.4558 139.444 49.4558C137.887 49.4558 136.896 48.657 136.896 47.4159C136.896 45.2695 139.831 45.0786 141.153 45.0079C141.123 44.2091 140.685 43.9179 139.982 43.9179C139.002 43.9179 138.932 44.5105 138.932 44.5105H137.213C137.333 43.2843 138.344 42.4302 140.022 42.4302C141.66 42.4302 142.822 43.2444 142.822 45.2444V47.0735C142.822 47.8729 143.108 48.0638 143.631 48.0638M131.067 45.0786H134.168C133.961 44.2644 133.398 43.9327 132.705 43.9327C131.951 43.9327 131.343 44.3601 131.067 45.0786ZM135.987 46.4706H130.956C131.162 47.5162 132.017 47.898 132.76 47.898C133.7 47.898 134.097 47.3202 134.097 47.3202H135.836C135.313 48.6968 134.057 49.4558 132.705 49.4558C130.846 49.4558 129.222 48.0387 129.222 45.8877C129.222 43.7515 130.835 42.4302 132.65 42.4302C134.414 42.4302 136.208 43.6564 135.987 46.4706ZM125.694 43.8923C125.116 43.8923 124.87 44.1789 124.87 44.4706C124.87 44.9379 125.488 45.0786 125.9 45.1589C127.126 45.4205 128.368 45.792 128.368 47.2547C128.368 48.6718 127.197 49.4558 125.775 49.4558C124.191 49.4558 122.965 48.4911 122.885 47.0336H124.578C124.618 47.4456 124.895 47.9834 125.734 47.9834C126.438 47.9834 126.604 47.6114 126.604 47.3202C126.604 46.8125 126.121 46.6615 125.654 46.551C124.839 46.3703 123.091 46.0382 123.091 44.4706C123.091 43.1185 124.387 42.4302 125.724 42.4302C127.267 42.4302 128.283 43.3703 128.368 44.5259H126.674C126.619 44.2894 126.398 43.8923 125.694 43.8923ZM117.015 45.0786H120.116C119.909 44.2644 119.342 43.9327 118.653 43.9327C117.894 43.9327 117.291 44.3601 117.015 45.0786ZM121.935 46.4706H116.904C117.11 47.5162 117.965 47.898 118.708 47.898C119.648 47.898 120.045 47.3202 120.045 47.3202H121.779C121.256 48.6968 120.005 49.4558 118.653 49.4558C116.794 49.4558 115.17 48.0387 115.17 45.8877C115.17 43.7515 116.778 42.4302 118.598 42.4302C120.362 42.4302 122.151 43.6564 121.935 46.4706ZM109.657 44.139H111.175C111.959 44.139 112.481 43.5356 112.481 42.7367C112.481 41.9373 111.944 41.4649 111.175 41.4649H109.657V44.139ZM112.854 49.3857L110.803 45.8473H109.658V49.3857H107.908V39.7464H111.311C112.893 39.7464 114.301 40.8062 114.301 42.7065C114.301 44.0285 113.557 45.0336 112.562 45.5156L114.894 49.3857H112.854ZM174.895 29.7806C174.312 29.7806 174.066 30.0672 174.066 30.3584C174.066 30.8256 174.684 30.9612 175.101 31.0467C176.327 31.3082 177.564 31.6803 177.564 33.1379C177.564 34.5601 176.393 35.3441 174.975 35.3441C173.392 35.3441 172.166 34.3789 172.08 32.9168H173.779C173.819 33.3339 174.096 33.8712 174.935 33.8712C175.639 33.8712 175.805 33.4997 175.805 33.208C175.805 32.7008 175.322 32.5498 174.85 32.4387C174.04 32.2581 172.287 31.9259 172.287 30.3589C172.287 29.0062 173.583 28.3179 174.92 28.3179C176.463 28.3179 177.483 29.2524 177.564 30.4136H175.87C175.814 30.1778 175.593 29.7806 174.895 29.7806M166.215 30.9612H169.311C169.105 30.1476 168.542 29.8205 167.854 29.8205C167.095 29.8205 166.487 30.2478 166.215 30.9612ZM171.13 32.3538H166.105C166.311 33.3988 167.165 33.7857 167.909 33.7857C168.844 33.7857 169.241 33.208 169.241 33.208H170.979C170.457 34.5852 169.206 35.3441 167.854 35.3441C165.994 35.3441 164.366 33.9265 164.366 31.7755C164.366 29.6399 165.979 28.3179 167.798 28.3179C169.562 28.3179 171.352 29.5441 171.13 32.3538ZM163.085 35.2735H161.325V28.3834H163.084L163.085 35.2735ZM161.019 26.4587C161.019 25.7948 161.557 25.2877 162.205 25.2877C162.358 25.2879 162.51 25.3184 162.651 25.3774C162.792 25.4365 162.92 25.523 163.027 25.6319C163.135 25.7408 163.22 25.87 163.277 26.0119C163.334 26.1538 163.363 26.3057 163.361 26.4587C163.361 27.0769 162.838 27.6142 162.205 27.6142C161.557 27.6142 161.019 27.0769 161.019 26.4587ZM160.566 34.7664C160.566 34.7664 159.983 35.3441 158.923 35.3441C157.601 35.3441 156.46 34.4495 156.46 33.057V29.8604H155.084V28.5088H155.772C156.239 28.5088 156.556 28.1926 156.556 27.6997V26.323H158.224V28.3886H159.958V29.8609H158.224V32.9464C158.224 33.4136 158.606 33.7709 159.104 33.7709C159.516 33.7709 159.903 33.5396 159.903 33.5396L160.566 34.7664ZM154.104 35.2735H152.34V28.3834H154.104V35.2735ZM152.038 26.4587C152.038 25.7948 152.575 25.2877 153.219 25.2877C153.857 25.2877 154.38 25.7948 154.38 26.4587C154.38 27.0769 153.858 27.6142 153.219 27.6142C152.575 27.6142 152.038 27.0769 152.038 26.4587ZM150.892 31.5396V35.2735H149.058V31.9567C149.058 31.7202 149.224 29.9863 147.902 29.9162C147.254 29.8763 146.097 30.233 146.097 32.037V35.2735H144.279V28.3886H145.686L145.917 29.2279H146.153C146.444 28.8809 147.088 28.3179 148.248 28.3179C150.023 28.3179 150.892 29.6399 150.892 31.5396ZM140.75 32.384V32.2433C139.499 32.384 138.258 32.5344 138.258 33.2484C138.258 34.2985 140.639 34.2131 140.75 32.384ZM143.258 33.9515V35.2735H142.846C142.047 35.2735 141.484 34.9869 141.248 34.3943C140.836 34.9567 140.148 35.3441 139.072 35.3441C137.514 35.3441 136.524 34.5447 136.524 33.3037C136.524 31.1572 139.459 30.9618 140.78 30.8911C140.75 30.0968 140.313 29.8057 139.61 29.8057C138.63 29.8057 138.559 30.3983 138.559 30.3983H136.84C136.961 29.1726 137.971 28.3185 139.65 28.3185C141.288 28.3185 142.449 29.1322 142.449 31.1276V32.9618C142.449 33.7607 142.736 33.9515 143.258 33.9515ZM135.338 31.5396V35.2735H133.503V31.9567C133.503 31.0068 133.599 29.8057 132.332 29.9162C132.001 29.9413 131.091 30.0968 131.091 32.037V35.2735H129.277V31.9567C129.277 31.0068 129.372 29.8057 128.106 29.9162C127.774 29.9413 126.864 30.0968 126.864 32.037V35.2735H125.045V28.3886H126.452L126.659 29.1322H126.88C127.141 28.7852 127.693 28.3333 128.543 28.3179C129.317 28.3031 129.975 28.6649 130.432 29.2678H130.639C130.986 28.8404 131.619 28.3179 132.734 28.3031C134.524 28.2877 135.338 29.625 135.338 31.5396ZM123.422 28.3886V35.2735H122.04L121.794 34.5042H121.613C121.341 34.8461 120.733 35.3441 119.602 35.3441C117.773 35.3441 116.833 34.0473 116.833 32.1225V28.3886H118.708V31.7048C118.708 32.5595 118.778 33.7458 119.959 33.7458C120.568 33.7458 121.557 33.429 121.557 31.625V28.3886H123.422ZM115.426 25.6342V35.2735H113.572V31.2678H109.767V35.2735H107.908V25.6342H109.767V29.5145H113.572V25.6342H115.426ZM158.953 17.7191C158.953 16.5732 158.33 15.8997 157.435 15.8997C156.597 15.8997 155.757 16.5077 155.757 17.7191C155.757 18.9299 156.597 19.5333 157.435 19.5333C158.33 19.5333 158.953 18.8598 158.953 17.7191ZM160.672 11.3817V21.1612H159.325L159.129 20.498H158.923C158.496 20.9709 157.918 21.2319 157.174 21.2319C155.425 21.2319 153.963 19.7994 153.963 17.7191C153.963 15.6382 155.425 14.2057 157.174 14.2057C157.893 14.2057 158.511 14.4524 158.953 14.9498V11.3817H160.672ZM152.782 17.4273V21.1612H150.947V17.8393C150.947 17.6085 151.113 15.8695 149.791 15.804C149.143 15.7584 147.987 16.1208 147.987 17.9248V21.1612H146.168V14.2712H147.57L147.806 15.1156H148.038C148.329 14.7686 148.978 14.2057 150.133 14.2057C151.912 14.2057 152.782 15.5276 152.782 17.4273ZM142.64 18.2666V18.131C141.389 18.2666 140.148 18.4222 140.148 19.1362C140.148 20.1812 142.529 20.1008 142.64 18.2666ZM145.148 19.8393V21.1612H144.73C143.937 21.1612 143.369 20.8701 143.137 20.2769C142.72 20.845 142.032 21.2319 140.961 21.2319C139.403 21.2319 138.409 20.4325 138.409 19.1914C138.409 17.0404 141.343 16.8495 142.665 16.7789C142.64 15.98 142.198 15.6934 141.494 15.6934C140.52 15.6934 140.449 16.286 140.449 16.286H138.725C138.85 15.0604 139.856 14.2062 141.54 14.2062C143.178 14.2062 144.334 15.0154 144.334 17.0154V18.8501C144.334 19.649 144.625 19.8393 145.148 19.8393ZM130.956 15.6632C130.377 15.6632 130.131 15.955 130.131 16.2416C130.131 16.7139 130.749 16.8495 131.161 16.9299C132.387 17.196 133.628 17.5681 133.628 19.0256C133.628 20.4478 132.458 21.2319 131.041 21.2319C129.452 21.2319 128.226 20.2666 128.146 18.8045H129.84C129.88 19.2216 130.156 19.7544 130.995 19.7544C131.699 19.7544 131.865 19.3823 131.865 19.0957C131.865 18.5829 131.382 18.4325 130.915 18.3219C130.101 18.1458 128.352 17.8148 128.352 16.2416C128.352 14.8946 129.648 14.2057 130.986 14.2057C132.528 14.2057 133.549 15.1407 133.629 16.2968H131.936C131.88 16.0655 131.659 15.6632 130.956 15.6632ZM127.679 20.6541C127.679 20.6541 127.096 21.2319 126.04 21.2319C124.713 21.2319 123.573 20.3373 123.573 18.9453V15.7487H122.195V14.3971H122.884C123.352 14.3971 123.668 14.0803 123.668 13.5823V12.2057H125.337V14.2763H127.071V15.7487H125.337V18.8347C125.337 19.302 125.724 19.6587 126.216 19.6587C126.628 19.6587 127.015 19.4273 127.015 19.4273L127.679 20.6541ZM121.438 14.2051V15.9641C121.236 15.9308 121.033 15.914 120.829 15.9139C119.864 15.9139 118.859 16.4068 118.859 17.6729V21.1607H117.03V14.2763H118.432L118.683 15.0302H118.904C119.206 14.7282 119.879 14.2057 121.01 14.2057L121.438 14.2051ZM112.798 17.3464L111.708 13.9994H111.381L110.291 17.3464H112.798ZM116.01 21.1607H114.025L113.351 19.0552H109.742L109.064 21.1607H107.079L110.33 11.5168H112.758L116.01 21.1607ZM48.71 54.8097H0V6.10425H54.1311L48.71 54.8097Z" fill="#1E1E5C"/>
<path d="M37.6655 30.457H30.0342V22.306L37.6655 30.457ZM31.0114 45.6154H24.3533V48.2764L19.6695 42.1368C23.2336 41.4764 25.0786 39.6313 25.0786 36.4205C25.0786 35.6291 24.9624 34.9231 24.7407 34.2935H31.0114V45.6154ZM11.0399 34.2935H16.2365C18.3692 34.2935 19.2359 35.1197 19.2359 36.4205C19.2359 37.7208 18.3692 38.5778 16.2365 38.5778H11.0399V34.2935ZM24.3527 24.645V33.4564C23.143 31.4148 20.3601 30.4672 16.2365 30.457C19.9168 30.0843 23.3242 28.098 24.3527 24.645ZM43.3464 11.4633H37.6655L30.0342 19.5943V11.4633H18.9994V22.2553C18.9994 24.5692 17.29 25.91 15.0222 25.91C12.7487 25.91 11.0393 24.5692 11.0393 22.2558V11.4633H5.3584V22.3407C5.3584 27.2108 9.29003 30.0034 13.7265 30.457H5.3584V49.4513H11.0393V42.4086H13.5197L18.7675 49.4513H43.3464V45.6148H36.6877V34.2929H43.3464V29.2826L35.2057 20.9499L43.3464 12.6382V11.4633Z" fill="white"/>
<path d="M93.3071 6.10427C93.9977 4.17379 94.547 2.13732 94.9607 0H48.71V54.8097H72.1003L55.3031 32.8011C75.3761 29.106 88.1652 20.4006 93.3071 6.10427Z" fill="#FDC200"/>
</g>
<defs>
<clipPath id="clip0_272_555">
<rect width="215" height="54.8097" fill="white"/>
</clipPath>
</defs>
</svg>
