<svg width="260" height="66" viewBox="0 0 260 66" fill="none" xmlns="http://www.w3.org/2000/svg">
<g clip-path="url(#clip0_36_145)">
<path d="M112 7.35059H117.805V66H87.1849L63.3937 39.4981" stroke="white"/>
<path d="M260 59.4687H257.836V47.6919H260V59.4687ZM256.001 59.4687H253.868V51.1774H256.001V59.4687ZM253.504 48.8542C253.504 48.061 254.153 47.4435 254.937 47.4435C255.703 47.4435 256.336 48.061 256.336 48.8535C256.336 49.6041 255.703 50.2457 254.937 50.2457C254.153 50.2457 253.504 49.6048 253.504 48.8542ZM248.155 59.5531C245.84 59.5531 243.937 57.7801 243.937 55.3409C243.937 52.8722 245.907 51.0931 248.24 51.0931C250.136 51.0931 251.753 52.2732 252.221 54.2157H249.954C249.601 53.5316 248.987 53.1021 248.185 53.1021C247.019 53.1021 246.089 54.0283 246.089 55.3231C246.089 56.6185 247.019 57.5441 248.185 57.5441C248.939 57.5441 249.522 57.1626 249.887 56.5519H252.166C251.638 58.5246 249.918 59.5531 248.155 59.5531ZM242.503 54.978V59.4749H240.291V55.4747C240.291 55.19 240.491 53.1021 238.893 53.0177C238.109 52.9696 236.711 53.3985 236.711 55.5715V59.4749H234.511V51.1774H236.206L236.492 52.1881H236.772C237.125 51.771 237.909 51.0931 239.306 51.0931C241.457 51.0931 242.503 52.6904 242.503 54.978ZM232.542 51.1774V59.4749H230.877L230.578 58.5424H230.36C230.026 58.9603 229.291 59.5531 227.929 59.5531C225.71 59.5531 224.58 57.9976 224.58 55.6744V51.1774H226.847V55.1721C226.847 56.2006 226.926 57.6285 228.36 57.6285C229.096 57.6285 230.293 57.2477 230.293 55.0747V51.1774H232.542ZM220.964 55.3231C220.964 54.0283 220.198 53.0177 218.928 53.0177C217.664 53.0177 216.813 54.0283 216.813 55.3231C216.813 56.6185 217.664 57.6285 218.928 57.6285C220.198 57.6285 220.964 56.6185 220.964 55.3231ZM214.632 55.3409C214.632 52.6842 216.697 51.0931 218.928 51.0931C221.177 51.0931 223.146 52.7027 223.146 55.3052C223.146 57.9434 221.11 59.5531 218.861 59.5531C216.601 59.5531 214.632 57.9434 214.632 55.3409ZM213.714 55.9886C213.051 58.2096 211.185 59.5531 208.93 59.5531C205.886 59.5531 203.667 57.0659 203.667 53.6647C203.667 50.2635 205.867 47.7763 208.918 47.7763C211.149 47.7763 213.051 49.1197 213.714 51.3408H211.197C210.766 50.4145 209.982 49.9671 208.949 49.9671C207.053 49.9671 205.965 51.5109 205.965 53.6654C205.965 55.8198 207.065 57.3623 208.985 57.3623C210.019 57.3623 210.766 56.9149 211.197 55.9886H213.714ZM198.356 54.978V59.4749H196.119V55.4747C196.119 54.6637 196.253 53.0177 194.751 53.0177C194.022 53.0177 192.606 53.3985 192.606 55.5715V59.4749H190.376V47.6919H192.491V52.0434H192.77C193.171 51.6255 193.937 51.0931 195.171 51.0931C197.322 51.0931 198.356 52.6904 198.356 54.978ZM184.973 59.5531C182.658 59.5531 180.761 57.7801 180.761 55.3409C180.761 52.8722 182.724 51.0931 185.058 51.0931C186.954 51.0931 188.571 52.2732 189.038 54.2157H186.771C186.425 53.5316 185.805 53.1021 185.009 53.1021C183.842 53.1021 182.906 54.0283 182.906 55.3231C182.906 56.6185 183.842 57.5441 185.009 57.5441C185.757 57.5441 186.34 57.1626 186.705 56.5513H188.99C188.455 58.5246 186.741 59.5531 184.973 59.5531ZM180.256 51.0931V53.2173C180.016 53.1747 179.772 53.1525 179.527 53.1508C178.361 53.1508 177.145 53.7498 177.145 55.2744V59.4687H174.926V51.1774H176.628L176.926 52.0914H177.193C177.559 51.7222 178.379 51.0931 179.74 51.0931H180.256ZM170.66 55.9886V55.8192C169.147 55.9886 167.646 56.1705 167.646 57.0357C167.646 58.2947 170.526 58.1918 170.66 55.9886ZM173.692 57.8769V59.4687H173.195C172.228 59.4687 171.548 59.1236 171.262 58.4093C170.764 59.0872 169.931 59.5531 168.63 59.5531C166.747 59.5531 165.549 58.5911 165.549 57.0967C165.549 54.5121 169.098 54.2822 170.696 54.1971C170.66 53.2352 170.131 52.8846 169.28 52.8846C168.095 52.8846 168.01 53.5981 168.01 53.5981H165.932C166.077 52.1216 167.299 51.0931 169.329 51.0931C171.31 51.0931 172.715 52.0735 172.715 54.4819V56.6844C172.715 57.647 173.06 57.8769 173.692 57.8769ZM158.499 54.2822H162.249C162 53.3017 161.319 52.9024 160.48 52.9024C159.569 52.9024 158.833 53.417 158.499 54.2822ZM164.449 55.9584H158.365C158.614 57.2175 159.648 57.6772 160.547 57.6772C161.684 57.6772 162.164 56.9815 162.164 56.9815H164.267C163.635 58.6392 162.115 59.5531 160.48 59.5531C158.232 59.5531 156.269 57.8467 156.269 55.2565C156.269 52.6842 158.219 51.0931 160.413 51.0931C162.547 51.0931 164.717 52.5696 164.449 55.9584ZM152.002 52.8537C151.303 52.8537 151.006 53.1988 151.006 53.5501C151.006 54.1127 151.753 54.2822 152.251 54.379C153.734 54.6939 155.235 55.1413 155.235 56.9026C155.235 58.609 153.819 59.5531 152.1 59.5531C150.184 59.5531 148.702 58.3915 148.605 56.6363H150.653C150.701 57.1324 151.036 57.7801 152.051 57.7801C152.901 57.7801 153.102 57.3321 153.102 56.9815C153.102 56.3701 152.519 56.1883 151.954 56.0552C150.968 55.8377 148.854 55.4377 148.854 53.5501C148.854 51.9219 150.422 51.0931 152.039 51.0931C153.905 51.0931 155.132 52.2252 155.236 53.6167H153.187C153.12 53.3319 152.853 52.8537 152.002 52.8537ZM141.506 54.2822H145.256C145.007 53.3017 144.32 52.9024 143.487 52.9024C142.569 52.9024 141.84 53.417 141.506 54.2822ZM147.456 55.9584H141.372C141.621 57.2175 142.655 57.6772 143.554 57.6772C144.691 57.6772 145.171 56.9815 145.171 56.9815H147.268C146.636 58.6392 145.122 59.5531 143.487 59.5531C141.239 59.5531 139.276 57.8467 139.276 55.2565C139.276 52.6842 141.22 51.0931 143.421 51.0931C145.554 51.0931 147.717 52.5696 147.456 55.9584ZM132.608 53.1508H134.444C135.392 53.1508 136.024 52.4242 136.024 51.4622C136.024 50.4995 135.374 49.9307 134.444 49.9307H132.608V53.1508ZM136.474 59.4687L133.994 55.2078H132.609V59.4687H130.494V47.8614H134.608C136.522 47.8614 138.224 49.1376 138.224 51.4258C138.224 53.0177 137.325 54.228 136.121 54.8085L138.942 59.4687H136.474ZM211.5 35.8609C210.796 35.8609 210.498 36.206 210.498 36.5566C210.498 37.1192 211.245 37.2825 211.75 37.3855C213.233 37.7004 214.728 38.1484 214.728 39.9036C214.728 41.6162 213.312 42.5603 211.598 42.5603C209.683 42.5603 208.201 41.398 208.097 39.6373H210.151C210.199 40.1396 210.534 40.7866 211.549 40.7866C212.4 40.7866 212.601 40.3393 212.601 39.988C212.601 39.3773 212.017 39.1955 211.446 39.0617C210.467 38.8442 208.347 38.4442 208.347 36.5573C208.347 34.9284 209.914 34.0996 211.531 34.0996C213.397 34.0996 214.631 35.2248 214.728 36.6232H212.679C212.613 36.3391 212.345 35.8609 211.5 35.8609ZM201.005 37.2825H204.748C204.5 36.3027 203.818 35.9089 202.986 35.9089C202.069 35.9089 201.333 36.4235 201.005 37.2825ZM206.948 38.9594H200.871C201.12 40.2178 202.153 40.6837 203.053 40.6837C204.183 40.6837 204.664 39.988 204.664 39.988H206.766C206.134 41.6463 204.621 42.5603 202.986 42.5603C200.737 42.5603 198.769 40.8532 198.769 38.263C198.769 35.6914 200.719 34.0996 202.919 34.0996C205.052 34.0996 207.216 35.5761 206.948 38.9594ZM197.219 42.4752H195.091V34.1785H197.218L197.219 42.4752ZM194.72 31.8607C194.72 31.0613 195.371 30.4507 196.155 30.4507C196.34 30.4509 196.523 30.4876 196.694 30.5587C196.865 30.6299 197.019 30.734 197.149 30.8652C197.279 30.9963 197.382 31.1518 197.451 31.3227C197.52 31.4936 197.555 31.6765 197.552 31.8607C197.552 32.6052 196.921 33.2522 196.155 33.2522C195.371 33.2522 194.72 32.6052 194.72 31.8607ZM194.173 41.8645C194.173 41.8645 193.468 42.5603 192.186 42.5603C190.587 42.5603 189.208 41.4831 189.208 39.8061V35.9569H187.543V34.3294H188.376C188.941 34.3294 189.324 33.9486 189.324 33.3551V31.6974H191.341V34.1846H193.438V35.9576H191.341V39.673C191.341 40.2357 191.803 40.6659 192.405 40.6659C192.903 40.6659 193.371 40.3873 193.371 40.3873L194.173 41.8645ZM186.358 42.4752H184.225V34.1785H186.358V42.4752ZM183.86 31.8607C183.86 31.0613 184.51 30.4507 185.288 30.4507C186.06 30.4507 186.692 31.0613 186.692 31.8607C186.692 32.6052 186.06 33.2522 185.288 33.2522C184.51 33.2522 183.86 32.6052 183.86 31.8607ZM182.474 37.979V42.4752H180.256V38.4812C180.256 38.1965 180.457 36.1086 178.858 36.0242C178.074 35.9761 176.676 36.4057 176.676 38.578V42.4752H174.476V34.1846H176.178L176.458 35.1953H176.743C177.096 34.7775 177.874 34.0996 179.277 34.0996C181.423 34.0996 182.474 35.6914 182.474 37.979ZM170.209 38.9958V38.8263C168.697 38.9958 167.195 39.177 167.195 40.0367C167.195 41.3012 170.075 41.1983 170.209 38.9958ZM173.242 40.8834V42.4752H172.744C171.778 42.4752 171.097 42.1301 170.811 41.4165C170.313 42.0937 169.481 42.5603 168.18 42.5603C166.296 42.5603 165.098 41.5976 165.098 40.1032C165.098 37.5186 168.648 37.2832 170.246 37.1981C170.21 36.2417 169.681 35.8911 168.83 35.8911C167.645 35.8911 167.56 36.6046 167.56 36.6046H165.481C165.628 35.1288 166.849 34.1002 168.879 34.1002C170.86 34.1002 172.264 35.08 172.264 37.4829V39.6916C172.264 40.6535 172.611 40.8834 173.242 40.8834ZM163.664 37.979V42.4752H161.446V38.4812C161.446 37.3374 161.561 35.8911 160.03 36.0242C159.629 36.0543 158.529 36.2417 158.529 38.578V42.4752H156.335V38.4812C156.335 37.3374 156.45 35.8911 154.919 36.0242C154.518 36.0543 153.417 36.2417 153.417 38.578V42.4752H151.217V34.1846H152.919L153.169 35.08H153.436C153.752 34.6622 154.42 34.1181 155.447 34.0996C156.383 34.0817 157.18 34.5174 157.732 35.2433H157.982C158.401 34.7287 159.167 34.0996 160.516 34.0817C162.68 34.0632 163.664 35.6735 163.664 37.979ZM149.254 34.1846V42.4752H147.583L147.285 41.5489H147.066C146.738 41.9606 146.003 42.5603 144.635 42.5603C142.423 42.5603 141.286 40.9986 141.286 38.6809V34.1846H143.553V38.1779C143.553 39.2071 143.639 40.6357 145.067 40.6357C145.803 40.6357 146.999 40.2542 146.999 38.0819V34.1846H149.254ZM139.585 30.8679V42.4752H137.342V37.6517H132.741V42.4752H130.493V30.8679H132.741V35.5404H137.342V30.8679H139.585ZM192.223 21.3368C192.223 19.9569 191.469 19.1459 190.387 19.1459C189.373 19.1459 188.358 19.878 188.358 21.3368C188.358 22.7948 189.373 23.5214 190.387 23.5214C191.469 23.5214 192.223 22.7104 192.223 21.3368ZM194.301 13.7056V25.4817H192.673L192.435 24.683H192.186C191.669 25.2525 190.971 25.5668 190.071 25.5668C187.956 25.5668 186.188 23.8418 186.188 21.3368C186.188 18.831 187.956 17.1061 190.071 17.1061C190.94 17.1061 191.688 17.4031 192.223 18.0021V13.7056H194.301ZM184.759 20.9855V25.4817H182.541V21.4815C182.541 21.2037 182.742 19.1096 181.143 19.0307C180.359 18.9758 178.962 19.4122 178.962 21.5845V25.4817H176.761V17.185H178.456L178.742 18.2018H179.022C179.375 17.784 180.159 17.1061 181.557 17.1061C183.708 17.1061 184.759 18.6979 184.759 20.9855ZM172.495 21.9961V21.8328C170.982 21.9961 169.481 22.1834 169.481 23.0432C169.481 24.3015 172.361 24.2048 172.495 21.9961ZM175.527 23.8899V25.4817H175.023C174.063 25.4817 173.376 25.1311 173.096 24.4168C172.592 25.1009 171.759 25.5668 170.465 25.5668C168.581 25.5668 167.378 24.6041 167.378 23.1097C167.378 20.5196 170.926 20.2897 172.525 20.2046C172.495 19.2427 171.96 18.8975 171.109 18.8975C169.931 18.8975 169.845 19.6111 169.845 19.6111H167.76C167.912 18.1353 169.128 17.1067 171.164 17.1067C173.145 17.1067 174.543 18.081 174.543 20.4894V22.6987C174.543 23.6607 174.895 23.8899 175.527 23.8899ZM158.365 18.8612C157.665 18.8612 157.368 19.2125 157.368 19.5576C157.368 20.1264 158.115 20.2897 158.614 20.3865C160.096 20.7069 161.597 21.1549 161.597 22.9101C161.597 24.6227 160.182 25.5668 158.468 25.5668C156.547 25.5668 155.064 24.4045 154.968 22.6438H157.016C157.064 23.1461 157.398 23.7876 158.413 23.7876C159.264 23.7876 159.465 23.3396 159.465 22.9945C159.465 22.3769 158.881 22.1958 158.316 22.0627C157.331 21.8507 155.217 21.452 155.217 19.5576C155.217 17.9356 156.784 17.1061 158.401 17.1061C160.267 17.1061 161.501 18.232 161.598 19.6242H159.55C159.482 19.3456 159.215 18.8612 158.365 18.8612ZM154.402 24.871C154.402 24.871 153.697 25.5668 152.421 25.5668C150.816 25.5668 149.437 24.4895 149.437 22.8133V18.9641H147.771V17.3366H148.604C149.169 17.3366 149.552 16.9551 149.552 16.3554V14.6977H151.57V17.1911H153.667V18.9641H151.57V22.6802C151.57 23.2428 152.038 23.6724 152.633 23.6724C153.132 23.6724 153.6 23.3938 153.6 23.3938L154.402 24.871ZM146.855 17.1054V19.2235C146.612 19.1834 146.365 19.1632 146.119 19.1631C144.952 19.1631 143.737 19.7566 143.737 21.2812V25.481H141.525V17.1911H143.22L143.524 18.0989H143.791C144.156 17.7352 144.97 17.1061 146.338 17.1061L146.855 17.1054ZM136.407 20.888L135.088 16.8577H134.694L133.375 20.888H136.407ZM140.291 25.481H137.89L137.076 22.9457H132.712L131.892 25.481H129.491L133.423 13.8682H136.358L140.291 25.481ZM58.9051 66H0V7.35059H58.9051V66Z" fill="white"/>
<path d="M45.549 36.6753H36.3204V26.8601L45.549 36.6753ZM37.5021 54.9285H29.4505V58.1328L23.7864 50.7397C28.0965 49.9444 30.3276 47.7227 30.3276 43.8564C30.3276 42.9033 30.1871 42.0532 29.919 41.295H37.5021V54.9285ZM13.3505 41.295H19.6348C22.2139 41.295 23.262 42.2899 23.262 43.8564C23.262 45.4221 22.2139 46.4541 19.6348 46.4541H13.3505V41.295ZM29.4498 29.6767V40.2871C27.9869 37.8287 24.6215 36.6876 19.6348 36.6753C24.0854 36.2265 28.206 33.8347 29.4498 29.6767ZM52.4189 13.8036H45.549L36.3204 23.5948V13.8036H22.976V26.799C22.976 29.5854 20.9089 31.1999 18.1664 31.1999C15.417 31.1999 13.3499 29.5854 13.3499 26.7997V13.8036H6.47992V26.902C6.47992 32.7664 11.2344 36.1291 16.5995 36.6753H6.47992V59.5476H13.3499V51.067H16.3493L22.6956 59.5476H52.4189V54.9278H44.3666V41.2943H52.4189V35.2611L42.5743 25.2271L52.4189 15.2185V13.8036Z" fill="black"/>
<path d="M65.1161 40.3203L86.1227 65.5H59.405V0.5H114.226C113.746 2.83344 113.127 5.06176 112.366 7.1807C106.234 24.1593 89.5962 35.0747 65.4098 39.5082L64.5674 39.6626L65.1161 40.3203Z" stroke="white"/>
</g>
<defs>
<clipPath id="clip0_36_145">
<rect width="260" height="66" fill="white"/>
</clipPath>
</defs>
</svg>
