<svg width="602" height="182" viewBox="0 0 602 182" fill="none" xmlns="http://www.w3.org/2000/svg">
<path d="M243.727 78.2712C236.719 78.2712 230.525 76.6431 225.145 73.3868C219.836 70.1305 215.695 65.6 212.721 59.7953C209.748 53.9906 208.262 47.2302 208.262 39.5142C208.262 31.7982 209.748 25.0732 212.721 19.3393C215.695 13.5346 219.836 9.00409 225.145 5.74779C230.525 2.49149 236.719 0.863342 243.727 0.863342C251.585 0.863342 258.345 2.84544 264.008 6.80963C269.742 10.703 273.848 16.083 276.325 22.9495L263.371 27.7278C261.814 23.4097 259.336 20.0472 255.938 17.6404C252.611 15.2335 248.541 14.0301 243.727 14.0301C239.338 14.0301 235.48 15.0566 232.153 17.1094C228.897 19.1623 226.384 22.1001 224.614 25.9227C222.915 29.6745 222.066 34.205 222.066 39.5142C222.066 44.8234 222.915 49.3893 224.614 53.2119C226.384 57.0345 228.897 59.9722 232.153 62.0251C235.48 64.078 239.338 65.1045 243.727 65.1045C248.541 65.1045 252.611 63.901 255.938 61.4942C259.336 59.0874 261.814 55.7249 263.371 51.4068L276.325 56.0788C273.848 62.9454 269.742 68.3608 264.008 72.3249C258.345 76.2891 251.585 78.2712 243.727 78.2712Z" fill="#231F20"/>
<path d="M303.294 77.6341C299.047 77.6341 295.472 76.7847 292.57 75.0857C289.738 73.3868 287.615 70.9799 286.199 67.8652C284.854 64.7505 284.181 61.1049 284.181 56.9283V24.2237H297.348V53.6366C297.348 56.0435 297.631 58.2025 298.198 60.1138C298.764 61.9543 299.755 63.4409 301.171 64.5735C302.657 65.6354 304.675 66.1663 307.223 66.1663C310.338 66.1663 312.674 65.2814 314.231 63.5117C315.859 61.742 316.957 59.2998 317.523 56.185C318.16 52.9995 318.479 49.2831 318.479 45.0357V24.2237H331.645V76.5723H318.479V65.2106L320.284 66.2725C318.726 70.3075 316.426 73.2098 313.382 74.9795C310.338 76.7493 306.975 77.6341 303.294 77.6341Z" fill="#231F20"/>
<path d="M355.903 77.6341C352.293 77.6341 349.32 76.5369 346.984 74.3424C344.648 72.148 343.48 68.6793 343.48 63.9364V2.56228H356.541V61.388C356.541 62.8746 356.895 63.9364 357.602 64.5735C358.31 65.1398 359.231 65.423 360.363 65.423C360.929 65.423 361.531 65.3876 362.168 65.3168C362.805 65.1752 363.478 64.9983 364.186 64.7859V76.0414C362.699 76.6077 361.213 76.997 359.726 77.2094C358.31 77.4926 357.036 77.6341 355.903 77.6341Z" fill="#231F20"/>
<path d="M391.731 77.6341C388.9 77.6341 386.281 77.1032 383.874 76.0414C381.467 74.9795 379.52 73.2452 378.034 70.8384C376.618 68.4315 375.91 65.2106 375.91 61.1757V12.0126L389.289 4.89833V57.5654C389.289 60.6093 389.678 62.91 390.457 64.4674C391.307 66.0247 392.935 66.8034 395.342 66.8034C396.049 66.8034 396.828 66.7326 397.678 66.591C398.598 66.4495 399.589 66.2371 400.651 65.9539V76.0414C399.164 76.6077 397.678 76.997 396.191 77.2094C394.704 77.4926 393.218 77.6341 391.731 77.6341ZM366.353 34.5236V24.2237H400.651V34.5236H366.353Z" fill="#231F20"/>
<path d="M428.172 77.6341C423.925 77.6341 420.35 76.7847 417.448 75.0857C414.616 73.3868 412.492 70.9799 411.077 67.8652C409.732 64.7505 409.059 61.1049 409.059 56.9283V24.2237H422.226V53.6366C422.226 56.0435 422.509 58.2025 423.075 60.1138C423.642 61.9543 424.633 63.4409 426.049 64.5735C427.535 65.6354 429.553 66.1663 432.101 66.1663C435.216 66.1663 437.552 65.2814 439.109 63.5117C440.737 61.742 441.835 59.2998 442.401 56.185C443.038 52.9995 443.356 49.2831 443.356 45.0357V24.2237H456.523V76.5723H443.356V65.2106L445.162 66.2725C443.604 70.3075 441.304 73.2098 438.26 74.9795C435.216 76.7493 431.853 77.6341 428.172 77.6341Z" fill="#231F20"/>
<path d="M468.57 76.5723V24.2237H481.843V38.4524L479.826 38.6647C480.038 35.6208 480.958 32.9308 482.586 30.5948C484.215 28.2587 486.197 26.4536 488.533 25.1794C490.939 23.8344 493.382 23.1619 495.859 23.1619C497.629 23.1619 499.293 23.4097 500.85 23.9052C502.478 24.3299 504.142 25.0732 505.841 26.1351L499.47 38.0276C498.691 37.6029 497.7 37.2136 496.496 36.8596C495.293 36.5057 494.09 36.3287 492.886 36.3287C491.47 36.3287 490.09 36.5765 488.745 37.072C487.471 37.5675 486.303 38.3462 485.241 39.408C484.25 40.4698 483.436 41.8856 482.799 43.6554C482.516 44.6464 482.268 45.9206 482.055 47.478C481.914 48.9645 481.843 51.159 481.843 54.0614V76.5723H468.57Z" fill="#231F20"/>
<path d="M533.28 77.6341C528.749 77.6341 524.856 76.8908 521.6 75.4043C518.343 73.9177 515.653 71.9356 513.53 69.458C511.477 66.9096 509.955 64.0426 508.964 60.8571C507.973 57.6008 507.477 54.2029 507.477 50.6635C507.477 47.2656 507.973 43.9385 508.964 40.6822C509.955 37.4259 511.441 34.4882 513.424 31.869C515.406 29.2498 517.954 27.1615 521.069 25.6041C524.254 23.976 528.042 23.1619 532.43 23.1619C536.536 23.1619 540.111 23.8698 543.155 25.2856C546.199 26.6306 548.712 28.5419 550.694 31.0195C552.676 33.4263 554.163 36.2579 555.154 39.5142C556.216 42.7705 556.747 46.2392 556.747 49.9202C556.747 50.4157 556.711 51.1236 556.64 52.0439C556.64 52.8933 556.57 53.8136 556.428 54.8046H520.644C520.998 58.5565 522.378 61.388 524.785 63.2993C527.263 65.2106 530.342 66.1663 534.023 66.1663C536.713 66.1663 539.332 65.7062 541.881 64.7859C544.429 63.7949 546.694 62.4145 548.677 60.6447L555.26 69.5642C552.782 71.4755 550.446 73.0328 548.252 74.2363C546.057 75.4397 543.757 76.2891 541.35 76.7847C539.014 77.351 536.324 77.6341 533.28 77.6341ZM543.686 48.2213C543.828 47.6549 543.934 47.0886 544.004 46.5223C544.146 45.956 544.217 45.4251 544.217 44.9296C544.217 43.443 543.934 42.0626 543.367 40.7884C542.801 39.4434 542.022 38.2754 541.031 37.2843C540.04 36.2933 538.837 35.55 537.421 35.0545C536.076 34.4882 534.519 34.205 532.749 34.205C530.13 34.205 527.935 34.7359 526.166 35.7978C524.396 36.8596 523.051 38.24 522.131 39.9389C521.281 41.5671 520.75 43.266 520.538 45.0357H548.146L543.686 48.2213Z" fill="#231F20"/>
<path d="M243.727 181.137C236.719 181.137 230.525 179.508 225.145 176.252C219.836 172.996 215.695 168.465 212.721 162.661C209.748 156.856 208.262 150.096 208.262 142.38C208.262 134.664 209.748 127.939 212.721 122.205C215.695 116.4 219.836 111.87 225.145 108.613C230.525 105.357 236.719 103.729 243.727 103.729C251.585 103.729 258.345 105.711 264.008 109.675C269.742 113.568 273.848 118.948 276.325 125.815L263.371 130.593C261.814 126.275 259.336 122.913 255.938 120.506C252.611 118.099 248.541 116.896 243.727 116.896C239.338 116.896 235.48 117.922 232.153 119.975C228.897 122.028 226.384 124.965 224.614 128.788C222.915 132.54 222.066 137.07 222.066 142.38C222.066 147.689 222.915 152.255 224.614 156.077C226.384 159.9 228.897 162.838 232.153 164.891C235.48 166.943 239.338 167.97 243.727 167.97C248.541 167.97 252.611 166.766 255.938 164.36C259.336 161.953 261.814 158.59 263.371 154.272L276.325 158.944C273.848 165.811 269.742 171.226 264.008 175.19C258.345 179.155 251.585 181.137 243.727 181.137Z" fill="#231F20"/>
<path d="M308.816 180.5C303.719 180.5 299.189 179.332 295.224 176.995C291.26 174.659 288.11 171.439 285.774 167.333C283.509 163.156 282.376 158.449 282.376 153.21C282.376 147.901 283.509 143.229 285.774 139.194C288.039 135.088 291.154 131.867 295.118 129.531C299.153 127.195 303.719 126.027 308.816 126.027C313.842 126.027 318.337 127.195 322.301 129.531C326.265 131.867 329.38 135.088 331.645 139.194C333.911 143.229 335.043 147.901 335.043 153.21C335.043 158.449 333.911 163.121 331.645 167.227C329.38 171.332 326.265 174.589 322.301 176.995C318.337 179.332 313.842 180.5 308.816 180.5ZM308.816 168.926C311.506 168.926 313.807 168.288 315.718 167.014C317.7 165.74 319.187 163.935 320.178 161.599C321.239 159.263 321.77 156.467 321.77 153.21C321.77 149.883 321.239 147.087 320.178 144.822C319.187 142.486 317.7 140.716 315.718 139.513C313.807 138.238 311.506 137.601 308.816 137.601C306.055 137.601 303.684 138.238 301.702 139.513C299.72 140.716 298.198 142.486 297.136 144.822C296.074 147.087 295.543 149.883 295.543 153.21C295.543 156.467 296.074 159.263 297.136 161.599C298.198 163.935 299.72 165.74 301.702 167.014C303.684 168.288 306.055 168.926 308.816 168.926Z" fill="#231F20"/>
<path d="M344.522 179.438V127.089H357.795V138.982L355.671 139.194C356.591 136.009 357.936 133.46 359.706 131.549C361.476 129.638 363.529 128.257 365.865 127.408C368.201 126.487 370.608 126.027 373.085 126.027C379.032 126.027 383.668 127.726 386.995 131.124C390.393 134.451 392.092 139.159 392.092 145.247V179.438H378.819V150.131C378.819 145.742 378.041 142.557 376.483 140.574C374.926 138.522 372.484 137.495 369.157 137.495C366.608 137.495 364.484 138.097 362.785 139.3C361.157 140.433 359.919 142.238 359.069 144.716C358.22 147.193 357.795 150.414 357.795 154.378V179.438H344.522Z" fill="#231F20"/>
<path d="M403.396 179.438V127.089H416.669V138.982L414.545 139.194C415.465 136.009 416.81 133.46 418.58 131.549C420.35 129.638 422.403 128.257 424.739 127.408C427.075 126.487 429.482 126.027 431.959 126.027C437.905 126.027 442.542 127.726 445.869 131.124C449.267 134.451 450.966 139.159 450.966 145.247V179.438H437.693V150.131C437.693 145.742 436.914 142.557 435.357 140.574C433.8 138.522 431.357 137.495 428.03 137.495C425.482 137.495 423.358 138.097 421.659 139.3C420.031 140.433 418.792 142.238 417.943 144.716C417.093 147.193 416.669 150.414 416.669 154.378V179.438H403.396Z" fill="#231F20"/>
<path d="M485.63 180.5C481.1 180.5 477.206 179.756 473.95 178.27C470.694 176.783 468.004 174.801 465.88 172.323C463.827 169.775 462.305 166.908 461.314 163.723C460.323 160.466 459.827 157.068 459.827 153.529C459.827 150.131 460.323 146.804 461.314 143.548C462.305 140.291 463.792 137.354 465.774 134.734C467.756 132.115 470.304 130.027 473.419 128.47C476.604 126.841 480.392 126.027 484.781 126.027C488.886 126.027 492.461 126.735 495.505 128.151C498.549 129.496 501.062 131.407 503.044 133.885C505.026 136.292 506.513 139.123 507.504 142.38C508.566 145.636 509.097 149.105 509.097 152.786C509.097 153.281 509.061 153.989 508.99 154.909C508.99 155.759 508.92 156.679 508.778 157.67H472.994C473.348 161.422 474.728 164.253 477.135 166.165C479.613 168.076 482.692 169.032 486.373 169.032C489.063 169.032 491.682 168.572 494.231 167.651C496.779 166.66 499.045 165.28 501.027 163.51L507.61 172.43C505.132 174.341 502.796 175.898 500.602 177.102C498.407 178.305 496.107 179.155 493.7 179.65C491.364 180.216 488.674 180.5 485.63 180.5ZM496.036 151.087C496.178 150.52 496.284 149.954 496.355 149.388C496.496 148.821 496.567 148.291 496.567 147.795C496.567 146.308 496.284 144.928 495.717 143.654C495.151 142.309 494.372 141.141 493.381 140.15C492.39 139.159 491.187 138.415 489.771 137.92C488.426 137.354 486.869 137.07 485.099 137.07C482.48 137.07 480.285 137.601 478.516 138.663C476.746 139.725 475.401 141.105 474.481 142.804C473.631 144.432 473.1 146.131 472.888 147.901H500.496L496.036 151.087Z" fill="#231F20"/>
<path d="M541.697 180.5C537.449 180.5 533.733 179.756 530.547 178.27C527.433 176.712 524.778 174.659 522.584 172.111C520.46 169.563 518.867 166.66 517.805 163.404C516.743 160.148 516.213 156.75 516.213 153.21C516.213 149.742 516.743 146.379 517.805 143.123C518.867 139.867 520.46 136.964 522.584 134.416C524.778 131.867 527.433 129.85 530.547 128.363C533.733 126.806 537.449 126.027 541.697 126.027C547.006 126.027 551.607 127.302 555.501 129.85C559.394 132.398 562.296 136.256 564.208 141.424L552.74 145.99C551.89 143.512 550.581 141.495 548.811 139.937C547.112 138.309 544.741 137.495 541.697 137.495C538.865 137.495 536.529 138.274 534.689 139.831C532.848 141.318 531.503 143.264 530.654 145.671C529.804 148.078 529.379 150.591 529.379 153.21C529.379 155.83 529.804 158.378 530.654 160.856C531.503 163.262 532.848 165.245 534.689 166.802C536.529 168.288 538.865 169.032 541.697 169.032C544.741 169.032 547.112 168.253 548.811 166.696C550.581 165.068 551.89 162.979 552.74 160.431L564.208 164.997C562.296 170.235 559.394 174.129 555.501 176.677C551.607 179.225 547.006 180.5 541.697 180.5Z" fill="#231F20"/>
<path d="M593.032 180.5C590.201 180.5 587.582 179.969 585.175 178.907C582.768 177.845 580.821 176.111 579.335 173.704C577.919 171.297 577.211 168.076 577.211 164.041V114.878L590.59 107.764V160.431C590.59 163.475 590.979 165.775 591.758 167.333C592.608 168.89 594.236 169.669 596.643 169.669C597.35 169.669 598.129 169.598 598.979 169.456C599.899 169.315 600.89 169.102 601.952 168.819V178.907C600.465 179.473 598.979 179.862 597.492 180.075C596.005 180.358 594.519 180.5 593.032 180.5ZM567.654 137.389V127.089H601.952V137.389H567.654Z" fill="#231F20"/>
<path d="M74.3803 1.91205L0.0483398 76.3485H103.499V179.438L177.574 105.258V1.91205H74.3803Z" fill="#231F20"/>
</svg>
