<?xml version="1.0" encoding="utf-8"?>
<!-- Generator: Adobe Illustrator 28.1.0, SVG Export Plug-In . SVG Version: 6.00 Build 0)  -->
<svg version="1.1" id="Layer_1" xmlns="http://www.w3.org/2000/svg" xmlns:xlink="http://www.w3.org/1999/xlink" width="300" height="62"
	 viewBox="0 0 1937.24 402.54" style="enable-background:new 0 0 1937.24 402.54;" xml:space="preserve">
<style type="text/css">
	.st0{fill:#231F20;}
</style>
<polygon class="st0" points="564.93,0.14 564.93,127.48 486.73,0.14 461.06,0.14 461.06,168.9 485.76,168.9 485.76,41.43 
	563.23,168.9 589.39,168.9 589.39,0.14 "/>
<g>
	<path class="st0" d="M707.9,130.65c-2.83,6.13-6.86,10.9-12.11,14.28c-5.25,3.39-11.42,5.08-18.52,5.08
		c-7.26,0-13.52-1.69-18.76-5.08c-5.25-3.39-9.28-8.15-12.11-14.28c-2.83-6.13-4.24-13.32-4.24-21.55c0-8.39,1.41-15.62,4.24-21.67
		c2.82-6.05,6.86-10.77,12.11-14.16c5.24-3.39,11.5-5.09,18.76-5.09c7.1,0,13.28,1.66,18.52,4.96c5.25,3.31,9.28,8.03,12.11,14.16
		c2.82,6.14,4.23,13.4,4.23,21.79C712.14,117.33,710.72,124.51,707.9,130.65 M707.54,55.23c-8.72-5.24-18.81-7.87-30.27-7.87
		c-11.3,0-21.43,2.66-30.39,7.99c-8.96,5.32-15.94,12.63-20.94,21.91c-5,9.28-7.5,19.89-7.5,31.84c0,11.95,2.54,22.6,7.63,31.96
		c5.08,9.36,12.06,16.7,20.94,22.03c8.88,5.33,18.97,7.99,30.27,7.99c11.3,0,21.35-2.66,30.14-7.99
		c8.79-5.33,15.74-12.67,20.82-22.03c5.09-9.36,7.63-20.01,7.63-31.96c0-11.94-2.54-22.6-7.63-31.96
		C723.15,67.78,716.26,60.48,707.54,55.23"/>
	<path class="st0" d="M820.85,47.36c-5.49,0-11.06,1.49-16.71,4.48c-5.65,2.99-10.53,7.1-14.65,12.35c-0.84,1.07-1.59,2.2-2.3,3.34
		V49.54h-23.97V168.9h23.97v-54.48c0-6.3,0.2-11.26,0.61-14.89c0.4-3.63,0.93-6.58,1.57-8.84c1.45-4.68,3.59-8.47,6.42-11.38
		c2.83-2.9,6.01-5,9.57-6.3c3.55-1.29,7.18-1.93,10.9-1.93c2.42,0,5,0.32,7.74,0.97c2.74,0.65,5,1.45,6.78,2.42l11.62-21.31
		c-3.55-2.1-7.06-3.59-10.53-4.48C828.39,47.81,824.73,47.36,820.85,47.36"/>
	<path class="st0" d="M896.87,5.71L872.9,19.03v30.51h-23.73v18.4h23.73v69c0,8.08,1.41,14.65,4.24,19.73
		c2.82,5.08,6.69,8.76,11.62,11.02c4.92,2.26,10.29,3.39,16.1,3.39c3.06,0,6.21-0.29,9.45-0.85c3.22-0.57,6.45-1.42,9.68-2.54v-18.4
		c-2.58,0.65-4.96,1.17-7.14,1.57c-2.18,0.41-4.08,0.61-5.69,0.61c-5.49,0-9.24-1.82-11.26-5.45c-2.02-3.63-3.03-8.75-3.03-15.38
		v-62.7h27.12v-18.4h-27.12V5.71z"/>
	<path class="st0" d="M1008.49,47.36c-6.14,0-11.91,1.13-17.31,3.39c-5.41,2.26-10.17,5.57-14.28,9.92
		c-1.56,1.65-2.97,3.46-4.24,5.44V0.14h-23.97V168.9h23.97v-58.83c0-14.69,2.5-25.38,7.51-32.08c5-6.69,12.26-10.05,21.79-10.05
		c8.55,0,14.89,2.66,19.01,7.99c4.12,5.33,6.18,13.72,6.18,25.18v67.79h23.72V92.39c0-14.69-3.75-25.87-11.26-33.54
		C1032.09,51.19,1021.72,47.36,1008.49,47.36"/>
</g>
<polygon class="st0" points="1147.22,0.14 1147.22,168.9 1258.83,168.9 1258.83,146.87 1171.91,146.87 1171.91,93.61 1251.57,93.61 
	1251.57,71.57 1171.91,71.57 1171.91,22.18 1258.83,22.18 1258.83,0.14 "/>
<g>
	<path class="st0" d="M1358.1,135.85c-3.07,4.93-7.14,8.8-12.23,11.62c-5.08,2.83-10.69,4.24-16.83,4.24
		c-7.26,0-13.07-1.7-17.43-5.09c-4.36-3.39-6.54-7.91-6.54-13.56c0-2.9,0.56-5.44,1.7-7.62c1.13-2.18,2.66-4,4.6-5.45
		c2.42-1.78,5.37-2.95,8.84-3.51c3.47-0.56,6.82-0.85,10.05-0.85h32.44v3.39C1362.7,125.32,1361.17,130.93,1358.1,135.85
		 M1373.24,59.58c-8.8-8.15-21.19-12.23-37.17-12.23c-10.17,0-19.57,1.73-28.21,5.2c-8.64,3.47-16.5,8.92-23.6,16.34l14.77,15.26
		c5.32-5.81,10.93-10.01,16.82-12.59c5.89-2.58,12.07-3.87,18.53-3.87c9.2,0,16.22,2.26,21.07,6.78c4.84,4.52,7.26,10.98,7.26,19.37
		v3.88h-35.83c-5.98,0-11.59,0.53-16.83,1.57c-5.25,1.05-9.89,2.87-13.92,5.45c-4.36,2.59-7.91,6.26-10.65,11.02
		c-2.75,4.76-4.12,10.45-4.12,17.07c0,7.59,1.85,14.25,5.57,19.97c3.71,5.73,8.96,10.21,15.74,13.44
		c6.78,3.23,14.61,4.84,23.48,4.84c7.75,0,14.73-1.61,20.94-4.84c6.21-3.22,11.42-7.95,15.62-14.16c0.14-0.21,0.27-0.42,0.4-0.63
		l1.54,17.46h21.79V93.84C1386.43,79.16,1382.03,67.74,1373.24,59.58"/>
	<path class="st0" d="M1489.81,105.47c-4.36-2.58-9.12-4.68-14.28-6.3c-5.17-1.61-10.25-2.98-15.26-4.12
		c-5.32-1.29-9.81-2.62-13.44-3.99c-3.63-1.37-6.3-2.99-7.99-4.84c-1.7-1.85-2.54-4.24-2.54-7.14c0-4.03,1.9-7.22,5.69-9.57
		c3.79-2.34,8.51-3.51,14.16-3.51c5.97,0,11.5,1.21,16.59,3.63c5.08,2.42,9.24,6.3,12.47,11.62l14.77-11.38
		c-4.2-7.42-10.09-13.03-17.68-16.83c-7.59-3.79-15.98-5.69-25.18-5.69c-12.92,0-23.29,3.11-31.12,9.32
		c-7.83,6.22-11.74,14.4-11.74,24.58c0,5.81,1.17,10.69,3.51,14.65c2.34,3.96,5.4,7.19,9.2,9.69c3.79,2.51,8.03,4.56,12.71,6.18
		c4.68,1.61,9.28,3.07,13.8,4.36c5,1.13,9.6,2.47,13.8,4c4.2,1.54,7.59,3.47,10.17,5.81c2.58,2.34,3.88,5.45,3.88,9.32
		c0,4.84-2.06,8.76-6.18,11.74c-4.11,2.99-9.73,4.48-16.82,4.48c-8.08,0-14.98-1.98-20.7-5.93c-5.73-3.95-10.13-8.68-13.19-14.16
		l-16.23,14.04c2.74,4.2,6.42,8.27,11.02,12.23c4.6,3.96,10.13,7.18,16.59,9.69c6.45,2.5,13.88,3.75,22.27,3.75
		c9.36,0,17.51-1.61,24.46-4.84c6.93-3.22,12.35-7.71,16.22-13.44c3.87-5.73,5.81-12.38,5.81-19.97c0-6.94-1.37-12.59-4.12-16.95
		C1497.72,111.52,1494.17,108.05,1489.81,105.47"/>
	<path class="st0" d="M1592.71,67.94v-18.4h-27.12V5.71l-23.97,13.32v30.51h-23.73v18.4h23.73v69c0,8.07,1.42,14.64,4.24,19.73
		c2.82,5.08,6.69,8.76,11.62,11.01c4.92,2.26,10.29,3.39,16.1,3.39c3.06,0,6.21-0.28,9.45-0.85c3.22-0.57,6.45-1.41,9.68-2.54v-18.4
		c-2.58,0.64-4.96,1.17-7.14,1.57c-2.18,0.41-4.08,0.61-5.69,0.61c-5.49,0-9.24-1.81-11.26-5.44c-2.02-3.63-3.03-8.76-3.03-15.38
		V67.94H1592.71z"/>
</g>
<polygon class="st0" points="461.06,231.36 461.06,400.12 573.89,400.12 573.89,369.13 495.68,369.13 495.68,328.94 569.28,328.94 
	569.28,297.94 495.68,297.94 495.68,262.35 573.89,262.35 573.89,231.36 "/>
<polygon class="st0" points="672.43,280.76 646.04,356.78 620.13,280.76 583.82,280.76 632.49,400.12 659.6,400.12 708.27,280.76 
	"/>
<rect x="724.97" y="280.76" class="st0" width="33.17" height="119.36"/>
<rect x="724.49" y="231.37" class="st0" width="34.62" height="31.96"/>
<g>
	<path class="st0" d="M854.02,368.16c-3.87,2.59-8.47,3.87-13.8,3.87c-5.33,0-9.97-1.25-13.92-3.75c-3.96-2.5-7.02-6.13-9.2-10.9
		c-2.18-4.76-3.27-10.45-3.27-17.07c0-6.61,1.09-12.26,3.27-16.94c2.18-4.69,5.24-8.32,9.2-10.9c3.95-2.58,8.59-3.88,13.92-3.88
		c5.32,0,9.93,1.33,13.8,4c3.87,2.66,6.86,6.34,8.96,11.02c2.1,4.68,3.15,10.25,3.15,16.7c0,6.46-1.05,12.07-3.15,16.83
		C860.88,361.91,857.89,365.58,854.02,368.16 M863.22,296.33c-0.5-0.83-1.02-1.62-1.57-2.38c-3.96-5.41-8.64-9.36-14.04-11.86
		c-5.41-2.5-11.18-3.76-17.31-3.76c-9.04,0-17.35,2.42-24.94,7.27s-13.6,11.86-18.04,21.06c-4.44,9.2-6.66,20.42-6.66,33.65
		c0,11.95,1.94,22.6,5.81,31.96c3.87,9.36,9.56,16.75,17.07,22.15c7.5,5.41,16.42,8.11,26.75,8.11c5.49,0,10.9-1.05,16.23-3.15
		c5.32-2.1,10.17-5.93,14.52-11.5c0.77-0.98,1.49-2.07,2.18-3.2v15.42h33.17V231.36h-33.17V296.33z"/>
	<path class="st0" d="M951.35,327.24c0.49-3.39,1.65-6.7,3.51-9.93c1.85-3.23,4.6-5.93,8.23-8.11c3.63-2.18,8.27-3.27,13.92-3.27
		c3.55,0,6.78,0.53,9.69,1.57c2.91,1.05,5.41,2.54,7.51,4.48c2.09,1.94,3.75,4.24,4.96,6.9c1.15,2.53,1.73,5.32,1.79,8.35H951.35z
		 M1018.42,296.13c-4.69-5.57-10.53-9.93-17.55-13.08c-7.02-3.15-15.13-4.72-24.34-4.72c-10.33,0-19.21,1.82-26.63,5.45
		c-7.42,3.63-13.4,8.47-17.92,14.52c-4.52,6.05-7.87,12.79-10.05,20.22c-2.18,7.42-3.27,14.93-3.27,22.52
		c0,7.91,1.09,15.54,3.27,22.88c2.18,7.35,5.65,13.92,10.41,19.73c4.76,5.81,10.97,10.41,18.64,13.8
		c7.66,3.39,16.83,5.08,27.48,5.08c6.94,0,13.11-0.57,18.52-1.69c5.41-1.13,10.65-2.99,15.74-5.57c5.08-2.58,10.61-5.97,16.58-10.17
		l-15.25-23.24c-4.52,3.87-9.77,6.86-15.74,8.96c-5.98,2.1-11.95,3.15-17.92,3.15c-7.43,0-13.8-1.81-19.13-5.45
		c-5.33-3.63-8.47-9.15-9.44-16.58h79.89c0.33-2.42,0.52-4.6,0.61-6.54c0.08-1.94,0.12-3.63,0.12-5.08c0-8.72-1.17-16.87-3.51-24.46
		C1026.6,308.28,1023.09,301.7,1018.42,296.13"/>
	<path class="st0" d="M1123.25,278.33c-5.32,0-10.65,0.93-15.98,2.78c-5.32,1.86-10.04,5-14.16,9.45c-1.66,1.79-3.15,3.85-4.48,6.15
		v-15.96h-33.17v119.36h33.17v-56.41c0-8.55,0.89-15.5,2.66-20.82c1.78-5.32,4.48-9.28,8.11-11.86c3.63-2.58,8.11-3.88,13.44-3.88
		c7.1,0,12.3,2.14,15.62,6.42c3.3,4.28,4.96,11.02,4.96,20.22v66.34h33.41v-78.69c0-13.4-3.83-23.93-11.5-31.6
		C1147.66,282.17,1136.97,278.33,1123.25,278.33"/>
	<path class="st0" d="M1232.08,311.99c3.79-3.22,8.75-4.84,14.89-4.84c6.45,0,11.5,1.7,15.13,5.09c3.64,3.39,6.33,7.83,8.11,13.31
		l29.05-11.62c-4.52-12.11-11.3-21.06-20.33-26.87c-9.04-5.81-19.7-8.72-31.96-8.72c-10.01,0-18.69,1.74-26.03,5.21
		c-7.35,3.47-13.48,8.11-18.4,13.92c-4.93,5.81-8.59,12.43-11.01,19.86c-2.42,7.42-3.63,15.09-3.63,23c0,7.91,1.21,15.58,3.63,23
		c2.42,7.43,6.09,14.08,11.01,19.97c4.92,5.9,11.06,10.57,18.4,14.04c7.34,3.47,16.02,5.21,26.03,5.21
		c12.26,0,22.92-2.95,31.96-8.84c9.03-5.89,15.82-14.81,20.33-26.75l-29.05-11.62c-1.78,5.49-4.48,9.93-8.11,13.32
		c-3.63,3.39-8.68,5.08-15.13,5.08c-6.14,0-11.1-1.61-14.89-4.84c-3.8-3.23-6.58-7.42-8.35-12.59c-1.78-5.16-2.66-10.49-2.66-15.98
		s0.89-10.78,2.66-15.86C1225.5,319.37,1228.28,315.22,1232.08,311.99"/>
	<path class="st0" d="M1347.45,327.24c0.49-3.39,1.65-6.7,3.51-9.93c1.85-3.23,4.6-5.93,8.23-8.11c3.63-2.18,8.27-3.27,13.92-3.27
		c3.55,0,6.78,0.53,9.69,1.57c2.91,1.05,5.41,2.54,7.51,4.48c2.09,1.94,3.75,4.24,4.96,6.9c1.15,2.53,1.73,5.32,1.79,8.35H1347.45z
		 M1414.51,296.13c-4.69-5.57-10.53-9.93-17.55-13.08c-7.02-3.15-15.13-4.72-24.33-4.72c-10.33,0-19.21,1.82-26.63,5.45
		c-7.42,3.63-13.4,8.47-17.92,14.52c-4.52,6.05-7.87,12.79-10.05,20.22c-2.18,7.42-3.27,14.93-3.27,22.52
		c0,7.91,1.09,15.54,3.27,22.88c2.18,7.35,5.65,13.92,10.41,19.73c4.76,5.81,10.97,10.41,18.64,13.8
		c7.66,3.39,16.83,5.08,27.48,5.08c6.94,0,13.11-0.57,18.52-1.69c5.41-1.13,10.65-2.99,15.74-5.57c5.09-2.58,10.62-5.97,16.59-10.17
		l-15.25-23.24c-4.52,3.87-9.77,6.86-15.74,8.96c-5.97,2.1-11.95,3.15-17.92,3.15c-7.43,0-13.8-1.81-19.13-5.45
		c-5.33-3.63-8.47-9.15-9.44-16.58h79.89c0.32-2.42,0.52-4.6,0.61-6.54c0.08-1.94,0.12-3.63,0.12-5.08c0-8.72-1.17-16.87-3.51-24.46
		C1422.7,308.28,1419.19,301.7,1414.51,296.13"/>
</g>
<polygon class="st0" points="1619.58,231.36 1619.58,297.22 1550.33,297.22 1550.33,231.36 1515.72,231.36 1515.72,400.12 
	1550.33,400.12 1550.33,328.94 1619.58,328.94 1619.58,400.12 1654.21,400.12 1654.21,231.36 "/>
<g>
	<path class="st0" d="M1760.01,324.1c0,9.53-0.49,18.04-1.46,25.54c-0.96,7.51-3.11,13.4-6.41,17.67
		c-3.31,4.28-8.59,6.42-15.86,6.42c-5.97,0-10.45-1.21-13.44-3.63s-5-5.61-6.05-9.56c-1.05-3.95-1.57-8.27-1.57-12.96v-66.82h-33.17
		v74.09c0,9.52,1.54,17.88,4.6,25.06c3.06,7.18,7.87,12.75,14.4,16.71c6.54,3.95,14.89,5.93,25.06,5.93
		c8.07,0,15.45-1.86,22.15-5.57c4.64-2.57,8.54-6.52,11.74-11.8v14.95h33.41V280.76h-33.41V324.1z"/>
	<path class="st0" d="M1900.68,357.39c-2.1,4.76-5.13,8.4-9.08,10.89c-3.96,2.51-8.6,3.76-13.92,3.76c-5.32,0-9.97-1.29-13.92-3.88
		c-3.95-2.58-6.98-6.25-9.08-11.02c-2.1-4.76-3.15-10.37-3.15-16.82s1.05-12.02,3.15-16.71c2.1-4.68,5.13-8.35,9.08-11.02
		c3.95-2.66,8.6-4,13.92-4c5.32,0,9.96,1.3,13.92,3.88c3.95,2.59,6.98,6.22,9.08,10.9c2.1,4.68,3.15,10.33,3.15,16.95
		C1903.83,346.94,1902.78,352.63,1900.68,357.39 M1930.46,306.66c-4.52-9.2-10.53-16.22-18.04-21.06
		c-7.51-4.84-15.86-7.27-25.06-7.27c-5.97,0-11.7,1.25-17.19,3.76c-5.49,2.51-10.17,6.46-14.04,11.86c-0.6,0.83-1.15,1.72-1.69,2.64
		v-65.23h-32.93v168.76h32.93v-15.67c0.73,1.22,1.49,2.39,2.3,3.44c4.28,5.57,9.12,9.4,14.52,11.5c5.41,2.1,10.78,3.15,16.1,3.15
		c10.49,0,19.45-2.7,26.88-8.11c7.42-5.4,13.11-12.79,17.07-22.15c3.95-9.36,5.93-20.01,5.93-31.96
		C1937.24,327.09,1934.98,315.86,1930.46,306.66"/>
</g>
<polygon class="st0" points="167.54,0 0,167.78 233.16,167.78 233.16,400.14 400.14,232.93 400.14,0 "/>
</svg>
