<svg xmlns="http://www.w3.org/2000/svg" width="64" height="63" fill="none"><path fill="#45D108" d="m27.354 5.159-2.575 2.58-17.041 17.04-2.58 2.58 2.58 2.58 24.708 24.704 2.577 2.577 2.58-2.574.859-.857s17.125-17.081 17.281-17.24a15.695 15.695 0 0 0-20.593-23.6l-5.216-5.21z"/><path fill="#E0B942" d="m27.354 5.159 2.58 2.579 5.216 5.216a15.7 15.7 0 0 1 20.593 23.6l-17.28 17.239-.86.857-2.58 2.574-2.577-2.577L7.738 29.934l-2.58-2.579 2.58-2.58L24.775 7.738zm0-5.159-2.58 2.58-2.58 2.58L5.158 22.2l-2.58 2.58L0 27.355l2.579 2.579 2.58 2.58 24.71 24.71 2.574 2.576 2.577 2.577L37.6 59.8l2.58-2.574.859-.858q.098-.09.2-.187l.544-.543 1.934-1.938 5.9-5.888 8.7-8.681a19.348 19.348 0 0 0-20.952-31.6 19 19 0 0 0-1.7.788l-3.152-3.16-2.58-2.58z"/><path fill="#F4ACCD" d="M55.81 20.92a12.08 12.08 0 0 0-6.633-6.632 12.13 12.13 0 0 0-9.063 0 12 12 0 0 0-3.986 2.645l-1.082 1.077-7.688-7.693-17.041 17.04 24.709 24.71.86-.857 17.277-17.24a12.05 12.05 0 0 0 2.647-13.05"/><path fill="#000" d="M50.389 19.708a8.124 8.124 0 0 0-11.487 0l-.023.024-3.84 3.818-7.685-7.684-11.487 11.488L35.03 46.518s15.2-15.164 15.359-15.321a8.12 8.12 0 0 0 0-11.489m-21.1 9.587a2.707 2.707 0 1 1-3.827-3.829 2.707 2.707 0 0 1 3.827 3.829m17.215-1.906L35.03 38.862l-3.826-3.825L42.68 23.558a2.708 2.708 0 1 1 3.83 3.83"/></svg>