<svg width="261" height="105" viewBox="0 0 261 105" fill="#2b326a" xmlns="http://www.w3.org/2000/svg">
<g clip-path="url(#clip0_26_108)">
<path d="M71.4 77.1C73.9 77.1 76.1999 76.4 78.1999 74.9C80.2999 73.4 81.5999 71.5 82.1999 69.1H76.8C76.3 70.1 75.5999 70.9 74.5999 71.5C73.5999 72.1 72.5 72.3 71.4 72.3C69.4 72.3 67.8 71.7 66.5 70.4C65.3 69.1 64.6999 67.5 64.6999 65.6C64.6999 63.7 65.3 62.1 66.5 60.8C67.7 59.5 69.3 58.9 71.4 58.9C72.6 58.9 73.5999 59.2 74.5999 59.7C75.5999 60.3 76.3 61 76.8 62.1H82.1999C81.5999 59.7 80.2999 57.7 78.1999 56.3C76.0999 54.8 73.9 54.1 71.4 54.1C68 54.1 65.2 55.2 63 57.4C60.8 59.6 59.7 62.4 59.7 65.6C59.7 68.9 60.8 71.6 63 73.8C65.2 76 68 77.1 71.4 77.1Z"/>
<path d="M84.8999 61V76.7H89.6999V69.2C89.6999 68 89.9999 67.1 90.4999 66.4C91.0999 65.7 91.7999 65.3 92.7999 65.3C93.4999 65.3 94.1999 65.4 94.8999 65.7V61C94.3999 60.9 93.8999 60.8 93.3999 60.8C92.4999 60.8 91.7999 61 91.0999 61.5C90.3999 62 89.8999 62.6 89.6999 63.3V61H84.8999Z"/>
<path d="M104.4 77C106.4 77 108.1 76.5 109.6 75.5C111.1 74.5 112.1 73.1 112.6 71.5H107.6C107.4 71.9 107 72.3 106.5 72.6C105.9 72.9 105.3 73 104.6 73C103.4 73 102.4 72.7 101.8 72.1C101.1 71.5 100.8 70.8 100.7 69.9H112.8C112.8 68.4 112.6 67 112.2 65.8C111.8 64.6 111.1 63.6 110.4 62.9C109.6 62.1 108.7 61.6 107.7 61.2C106.7 60.8 105.6 60.6 104.4 60.6C102 60.6 100 61.4 98.4 62.9C96.8 64.5 96 66.4 96 68.8C96 71.2 96.8 73.2 98.3 74.7C100 76.3 102 77 104.4 77ZM102.1 65.1C102.7 64.6 103.4 64.4 104.3 64.4C105 64.4 105.7 64.6 106.3 65C106.9 65.4 107.3 66 107.6 66.9H100.9C101.1 66.2 101.5 65.5 102.1 65.1Z"/>
<path d="M126.4 62.5C125.4 61.2 123.9 60.6 122.1 60.6C120.1 60.6 118.3 61.4 116.9 63C115.5 64.6 114.8 66.5 114.8 68.8C114.8 71 115.5 73 116.9 74.6C118.3 76.2 120 77 122.1 77C123.9 77 125.3 76.4 126.4 75.1V76.7H131.2V61H126.4V62.5ZM125.8 71.6C125.1 72.3 124.3 72.7 123.2 72.7C122.1 72.7 121.3 72.3 120.6 71.6C119.9 70.9 119.6 69.9 119.6 68.8C119.6 67.7 119.9 66.7 120.6 66C121.3 65.3 122.1 64.9 123.2 64.9C124.3 64.9 125.1 65.3 125.8 66C126.5 66.7 126.8 67.7 126.8 68.8C126.8 70 126.5 70.9 125.8 71.6Z"/>
<path d="M136.8 70.9C136.8 72.8 137.4 74.3 138.6 75.3C139.8 76.3 141.3 76.8 143.1 76.8C144.3 76.8 145.2 76.7 145.9 76.5V72.3C145.5 72.5 144.9 72.6 144.2 72.6C143.3 72.6 142.6 72.4 142.2 72C141.8 71.6 141.6 70.9 141.6 70V65.1H146V61H141.6V56.6H136.8V61H133.7V65.1H136.8V70.9Z"/>
<path d="M153.7 61H148.9V76.7H153.7V61Z"/>
<path d="M151.3 58.8C152.1 58.8 152.8 58.5 153.4 57.9C154 57.3 154.3 56.6 154.3 55.8C154.3 55 154 54.3 153.4 53.7C152.8 53.1 152.1 52.8 151.3 52.8C150.5 52.8 149.8 53.1 149.2 53.7C148.6 54.3 148.3 55 148.3 55.8C148.3 56.6 148.6 57.3 149.2 57.9C149.8 58.5 150.5 58.8 151.3 58.8Z"/>
<path d="M166.9 76.7L173.8 61H168.5L164.7 70.5L160.9 61H155.6L162.5 76.7H166.9Z"/>
<path d="M187.8 75.5C189.3 74.5 190.3 73.1 190.8 71.5H185.8C185.6 71.9 185.2 72.3 184.7 72.6C184.1 72.9 183.5 73 182.8 73C181.6 73 180.6 72.7 180 72.1C179.3 71.5 179 70.8 178.9 69.9H191C191 68.4 190.8 67 190.4 65.8C190 64.6 189.3 63.6 188.6 62.9C187.8 62.1 186.9 61.6 185.9 61.2C184.9 60.8 183.8 60.6 182.6 60.6C180.2 60.6 178.2 61.4 176.6 62.9C175 64.5 174.2 66.4 174.2 68.8C174.2 71.2 175 73.2 176.5 74.7C178.1 76.3 180.1 77 182.5 77C184.5 77 186.2 76.5 187.8 75.5ZM180.2 65.1C180.8 64.6 181.5 64.4 182.4 64.4C183.1 64.4 183.8 64.6 184.4 65C185 65.4 185.4 66 185.7 66.9H179C179.2 66.2 179.6 65.5 180.2 65.1Z"/>
<path d="M71.4 86.5C72.6 86.5 73.5999 86.8 74.5999 87.3C75.5999 87.9 76.3 88.6 76.8 89.7H82.1999C81.5999 87.3 80.2999 85.3 78.1999 83.9C76.0999 82.4 73.9 81.7 71.4 81.7C68 81.7 65.2 82.8 63 85C60.8 87.2 59.7 90 59.7 93.2C59.7 96.5 60.8 99.2 63 101.4C65.2 103.6 68 104.7 71.4 104.7C73.9 104.7 76.1999 104 78.1999 102.5C80.2999 101 81.5999 99.1 82.1999 96.7H76.8C76.3 97.7 75.5999 98.5 74.5999 99.1C73.5999 99.7 72.5 99.9 71.4 99.9C69.4 99.9 67.8 99.3 66.5 98C65.3 96.7 64.6999 95.1 64.6999 93.2C64.6999 91.3 65.3 89.7 66.5 88.4C67.7 87.1 69.4 86.5 71.4 86.5Z"/>
<path d="M92.1999 88.2C89.8999 88.2 87.9999 89 86.2999 90.6C84.6999 92.2 83.8999 94.1 83.8999 96.4C83.8999 98.7 84.6999 100.7 86.2999 102.2C87.8999 103.8 89.8999 104.6 92.1999 104.6C94.4999 104.6 96.3999 103.8 98.0999 102.2C99.6999 100.6 100.5 98.7 100.5 96.4C100.5 94.1 99.6999 92.1 98.0999 90.6C96.4999 89 94.4999 88.2 92.1999 88.2ZM94.6999 99.2C93.9999 99.9 93.1999 100.2 92.1999 100.2C91.1999 100.2 90.3999 99.9 89.6999 99.2C88.9999 98.5 88.6999 97.6 88.6999 96.5C88.6999 95.4 88.9999 94.5 89.6999 93.8C90.3999 93.1 91.1999 92.8 92.1999 92.8C93.1999 92.8 93.9999 93.1 94.6999 93.8C95.3999 94.5 95.6999 95.4 95.6999 96.5C95.6999 97.6 95.3999 98.5 94.6999 99.2Z"/>
<path d="M121.9 88.2C121 88.2 120.1 88.4 119.1 88.9C118.2 89.4 117.5 90.1 117 91C116 89.2 114.4 88.2 112.2 88.2C110.5 88.2 109.2 88.9 108.2 90.2V88.6H103.4V104.3H108.2V96.7C108.2 95.3 108.5 94.3 109 93.6C109.5 92.9 110.2 92.6 111.1 92.6C112.6 92.6 113.4 93.8 113.4 96.2V104.3H118.2V96.5C118.3 93.9 119.2 92.6 121 92.6C122.5 92.6 123.3 93.8 123.3 96.2V104.3H128.1V95.3C128.1 93.1 127.6 91.3 126.5 90.1C125.3 88.9 123.8 88.2 121.9 88.2Z"/>
<path d="M150.1 88.2C149.2 88.2 148.3 88.4 147.3 88.9C146.4 89.4 145.7 90.1 145.2 91C144.2 89.2 142.6 88.2 140.4 88.2C138.7 88.2 137.4 88.9 136.4 90.2V88.6H131.6V104.3H136.4V96.7C136.4 95.3 136.7 94.3 137.2 93.6C137.7 92.9 138.4 92.6 139.3 92.6C140.8 92.6 141.6 93.8 141.6 96.2V104.3H146.4V96.5C146.5 93.9 147.4 92.6 149.2 92.6C150.7 92.6 151.5 93.8 151.5 96.2V104.3H156.3V95.3C156.3 93.1 155.8 91.3 154.7 90.1C153.4 88.9 152 88.2 150.1 88.2Z"/>
<path d="M169.7 96.2C169.7 98.9 168.7 100.3 166.7 100.3C165.1 100.3 164.3 99.1 164.3 96.7V88.6H159.5V97.6C159.5 99.8 160 101.5 161 102.8C162 104.1 163.5 104.7 165.4 104.7C167.3 104.7 168.7 104.1 169.6 102.7V104.3H174.4V88.6H169.6V96.2H169.7Z"/>
<path d="M187.5 88.2C185.5 88.2 184 88.9 183.1 90.2V88.6H178.3V104.3H183.1V96.7C183.1 95.3 183.4 94.3 184 93.6C184.6 92.9 185.4 92.6 186.3 92.6C188 92.6 188.8 93.8 188.8 96.1V104.4H193.6V95.3C193.6 93.2 193.1 91.5 192 90.2C190.9 88.9 189.4 88.2 187.5 88.2Z"/>
<path d="M199.6 80.5C198.8 80.5 198.1 80.8 197.5 81.4C196.9 82 196.6 82.7 196.6 83.5C196.6 84.3 196.9 85 197.5 85.6C198.1 86.2 198.8 86.5 199.6 86.5C200.4 86.5 201.1 86.2 201.7 85.6C202.3 85 202.6 84.3 202.6 83.5C202.6 82.7 202.3 82 201.7 81.4C201.2 80.8 200.5 80.5 199.6 80.5Z"/>
<path d="M202.1 88.6H197.3V104.3H202.1V88.6Z"/>
<path d="M212.4 84.2H207.6V88.6H204.5V92.7H207.6V98.6C207.6 100.5 208.2 102 209.4 103C210.6 104 212.1 104.5 213.9 104.5C215.1 104.5 216 104.4 216.7 104.2V100C216.3 100.2 215.7 100.3 215 100.3C214.1 100.3 213.4 100.1 213 99.7C212.6 99.3 212.4 98.6 212.4 97.7V92.8H216.8V88.7H212.4V84.2Z"/>
<path d="M224.6 88.6H219.8V104.3H224.6V88.6Z"/>
<path d="M222.1 80.5C221.3 80.5 220.6 80.8 220 81.4C219.4 82 219.1 82.7 219.1 83.5C219.1 84.3 219.4 85 220 85.6C220.6 86.2 221.3 86.5 222.1 86.5C222.9 86.5 223.6 86.2 224.2 85.6C224.8 85 225.1 84.3 225.1 83.5C225.1 82.7 224.8 82 224.2 81.4C223.7 80.8 223 80.5 222.1 80.5Z"/>
<path d="M243.6 93.5C243.2 92.3 242.5 91.3 241.8 90.6C241 89.8 240.1 89.3 239.1 88.9C238.1 88.5 237 88.3 235.8 88.3C233.4 88.3 231.4 89.1 229.8 90.6C228.2 92.2 227.4 94.1 227.4 96.5C227.4 98.9 228.2 100.9 229.7 102.4C231.3 104 233.3 104.7 235.7 104.7C237.7 104.7 239.4 104.2 240.9 103.2C242.4 102.2 243.4 100.8 243.9 99.2H238.9C238.7 99.6 238.3 100 237.8 100.3C237.2 100.6 236.6 100.7 235.9 100.7C234.7 100.7 233.7 100.4 233.1 99.8C232.4 99.2 232.1 98.5 232 97.6H244.1C244.3 96.1 244.1 94.7 243.6 93.5ZM232.2 94.5C232.4 93.7 232.8 93.1 233.4 92.7C234 92.2 234.7 92 235.6 92C236.3 92 237 92.2 237.6 92.6C238.2 93 238.6 93.6 238.9 94.5H232.2Z"/>
<path d="M259.3 96.7C258.6 95.9 257.5 95.3 255.9 94.9L253 94.1C251.9 93.9 251.4 93.5 251.4 92.9C251.4 92.2 251.9 91.9 253 91.9C254 91.9 254.6 92.4 254.8 93.3H259.6C259.5 91.7 258.8 90.4 257.6 89.5C256.4 88.6 254.9 88.2 253.1 88.2C251.1 88.2 249.5 88.6 248.3 89.5C247.1 90.4 246.5 91.5 246.5 92.9C246.5 95.5 247.8 97.1 250.5 97.8L253.7 98.6C254.4 98.8 254.8 99 255.1 99.2C255.4 99.4 255.5 99.6 255.5 100C255.5 100.7 254.9 101 253.7 101C253 101 252.4 100.8 252 100.5C251.5 100.2 251.3 99.7 251.2 99.1H246.2C246.3 100.7 247 102 248.4 103C249.8 104 251.5 104.6 253.6 104.6C255.6 104.6 257.2 104.2 258.5 103.3C259.8 102.4 260.4 101.2 260.4 99.8C260.3 98.5 260 97.5 259.3 96.7Z"/>
<path d="M83.6 18.3C79 8 68 7.2 62.2 15.5C61 17.3 59.2 17.9 57.2 17.2C55.2 16.5 54.5 14.9 54.5 12.9C54.5 10.6 54.5 8.4 54.6 6.1C54.7 2.5 53 0.6 49.3 0.5C43.5 0.4 37.6 0.3 31.8 0.3C23.2 0.1 14.5 0 5.9 0C2.6 0 0.5 1.9 0.4 5.1C0.4 6.2 0.4 7.4 0.4 8.5V10.8C0.4 16.2 0.3 21.6 0.3 27C0.3 28.8 0.3 30.6 0.3 32.4V37.9C0.3 38.1 0.3 38.3 0.3 38.5V48.9V49V59.8L0.1 84.5C0.1 88.9 0.1 93.4 0 97.8C0 102.5 1.6 104.2 7.5 104.3C20.9 104.3 35.4 104.3 49.9 104.2C52.9 104.2 54.8 102.2 54.9 99.1C55 95.8 55 92.6 54.9 89.3C54.8 85.5 52.5 82.7 49 81.9C45.4 81.1 42.8 82.7 40.6 85.6C37.2 90.3 32.1 90.9 28.4 87C23.2 82 23 71.8 27.9 66.5C31.5 62.6 36.3 62.7 39.7 66.8C40.2 67.4 40.7 68.1 41.2 68.8C43.3 71.3 46.5 72.2 49.4 71.1C52.5 70 54.2 67.8 54.4 64.5C54.5 63.4 54.5 62.2 54.5 61.1C54.4 57.9 53.9 54.7 53.9 51.7C53.9 47.7 54 43.5 54.3 39.5C54.4 37.7 55.1 36.4 56.8 35.7C58.3 35.1 59.7 35.3 60.8 36.4C61.4 37 61.8 37.7 62.3 38.4C67.5 45.4 76.3 45.6 81.5 38.6C86.2 32.3 86.7 25.3 83.6 18.3ZM50.7 62.9C50.8 64.9 50.3 66.6 48.3 67.3C46.3 68 44.8 67.1 43.7 65.4C41.7 62.6 39.1 60.5 35.6 59.9C30.6 59.1 26.9 61.1 24 65C19.2 71.5 19.2 81.5 24 88C29.2 95.2 38 95.3 43.4 88.3C43.8 87.8 44.2 87.2 44.7 86.7C45.8 85.7 47.1 85.3 48.5 85.9C49.8 86.4 50.8 87.4 50.9 89C51 92.3 50.9 95.5 51 98.8C51 100.4 50 100.4 48.9 100.4C42.2 100.4 35.6 100.4 28.9 100.4C21.6 100.4 14.4 100.4 7.1 100.4C4.3 100.4 4 100.1 4 97.3C4.2 84.3 4.3 71.2 4.5 58.2C4.7 53.7 4.7 53.7 9.2 53.7C11.2 53.7 13.1 53.8 15.1 53.8C18.3 53.8 21.1 51.9 22.2 49C23.3 45.9 22.5 42.7 20.1 40.5C19.8 40.2 19.4 39.9 19 39.7C13.4 35.4 13.7 29.2 19.8 25.7C25.2 22.6 30.9 22.7 36.3 25.8C42.4 29.3 42.6 35.7 36.9 39.8C33.5 42.2 32.3 45.2 33.3 48.6C34.3 51.9 37 53.8 41.1 54C43.7 54.1 46.3 54.1 48.8 54C50.3 53.9 50.8 54.5 50.8 56C50.7 58.3 50.7 60.6 50.7 62.9Z"/>
</g>
<defs>
<clipPath id="clip0_26_108">
<rect width="260.3" height="104.7"/>
</clipPath>
</defs>
</svg>
