<svg class="header-logo w-[87px] lg:w-[112px] h-auto" width="141" height="65" viewBox="0 0 141 65" fill="none" xmlns="http://www.w3.org/2000/svg">
<g clip-path="url(#clip0_7811_16799)">
<path d="M53.5464 64.0986C56.8719 67.5956 64.7302 59.8584 67.82 55.6671C78.1069 41.7078 68.3948 30.7184 77.5436 32.7549C91.5182 35.8602 105.188 22.7247 102.018 18.2598C97.649 12.0982 76.3307 31.7726 76.3508 21.4889C76.3508 19.5186 79.7165 13.2303 84.5137 10.7098C90.9779 7.31934 100.431 8.81436 97.3616 2.00753C94.9587 -3.32156 66.0322 2.21781 66.0609 22.8111C66.0609 26.6625 60.4073 24.6374 56.5759 25.4296C49.8875 26.8123 36.2922 38.0639 44.7167 43.4707C49.9795 46.8468 58.5131 27.832 63.3361 34.829C70.5218 45.2912 44.1706 54.2182 53.5637 64.0957" fill="currentColor"></path>
<path d="M40.0001 46.0543V25.412C40.0001 20.3998 38.3762 17.9887 34.9299 17.9887C31.4205 17.9887 29.7965 20.3998 29.7965 25.412V46.0543C29.7965 51.0694 31.4205 53.5438 34.9299 53.5438C38.4394 53.5438 40.0001 51.0694 40.0001 46.0543ZM29.0205 9.32967C29.0267 10.4926 29.3761 11.6277 30.0247 12.592C30.6733 13.5564 31.592 14.3069 32.6653 14.749C33.7386 15.1912 34.9183 15.3052 36.0561 15.0768C37.1939 14.8484 38.2389 14.2877 39.0594 13.4654C39.8799 12.643 40.4394 11.5958 40.6673 10.4555C40.8952 9.31518 40.7814 8.13279 40.3402 7.05716C39.8991 5.98154 39.1502 5.06076 38.188 4.41075C37.2258 3.76075 36.0932 3.41057 34.9328 3.4043C33.3661 3.40961 31.8651 4.0355 30.757 5.14549C29.6489 6.25548 29.0236 7.75953 29.0176 9.32967H29.0205Z" fill="currentColor"></path>
<path d="M109.753 38.6324H128.074C131.523 38.6324 133.144 37.9814 133.144 34.4642C133.144 25.2809 126.246 17.4688 116.444 17.4688C106.643 17.4688 99.2246 25.3472 99.2246 35.8296C99.2246 46.3121 106.893 53.9975 116.965 53.9975C125.875 53.9975 132.365 49.4404 132.365 45.4047C132.365 43.0599 130.741 41.4324 128.269 41.4324C125.932 41.4324 122.618 44.7537 117.482 44.7537C113.064 44.7537 110.204 42.4751 109.753 38.6353V38.6324ZM109.621 31.9264C110.339 28.1471 113.07 25.8109 116.519 25.8109C118.192 25.7923 119.808 26.4152 121.037 27.5522C122.266 28.6892 123.015 30.2541 123.13 31.9264H109.621Z" fill="currentColor"></path>
<path d="M0.00195312 10.8919C0.00195312 5.87965 1.62591 3.40234 5.13538 3.40234C8.58449 3.40234 10.1998 5.87677 10.1998 10.8919V43.4425H20.093C25.0942 43.4425 27.5661 45.0729 27.5661 48.5872C27.5661 52.044 25.0971 53.6686 20.093 53.6686H7.23359C6.54025 53.6721 5.8473 53.6346 5.15837 53.5563C1.62304 53.5563 0.00195312 51.0818 0.00195312 46.0667" fill="currentColor"></path>
<path d="M137.902 9.72229H136.251L134.233 15.0376L132.171 9.72229H130.527V16.9237H131.416V10.4752L133.897 16.9162H134.48L136.961 10.4752V16.9162H137.858L137.902 9.72229ZM129.122 9.71484H123.637V10.4007H125.938V16.9162H126.828V10.4007H129.129L129.122 9.71484Z" fill="currentColor"></path>
</g>
<defs>
<clipPath id="clip0_7811_16799">
<rect width="140.28" height="64.8795" fill="currentColor" transform="translate(0.00195312 0.103516)"></rect>
</clipPath>
</defs>
</svg>