<?xml version="1.0" encoding="UTF-8"?>
<!-- Generated by Pixelmator Pro 3.6.14 -->
<svg width="135" height="128" viewBox="0 0 1980 1831" xmlns="http://www.w3.org/2000/svg">
    <g id="Group">
        <g id="Layer1">
            <g id="g1">
                <path id="Path" fill="#141414" stroke="none" d="M 1173.519043 1510.169922 C 1173.519043 1567.566406 1167.911987 1587.901855 1152.071899 1587.901855 C 1136.231934 1587.901855 1130.625 1567.557373 1130.625 1510.169922 L 1130.625 732.427002 L 1063.791016 732.427002 L 1063.791016 1512.609497 C 1063.791016 1606.671021 1093.490967 1654.363403 1152.071899 1654.363403 C 1210.653076 1654.363403 1240.353027 1606.671021 1240.353027 1512.609497 L 1240.353027 732.427002 L 1173.519043 732.427002 L 1173.519043 1510.169922 Z"/>
                <path id="path1" fill="#141414" stroke="none" d="M 603.405029 1324.513306 C 603.405029 1381.900879 597.797974 1402.245361 581.958008 1402.245361 C 566.118042 1402.245361 560.510986 1381.900879 560.510986 1324.513306 L 560.510986 732.427002 L 493.677002 732.427002 L 493.677002 1326.952881 C 493.677002 1421.014526 523.377014 1468.706909 581.958008 1468.706909 C 640.539001 1468.706909 670.239014 1421.014526 670.239014 1326.952881 L 670.239014 732.427002 L 603.405029 732.427002 L 603.405029 1324.513306 Z"/>
                <path id="path2" fill="#141414" stroke="none" d="M 1635.542969 829.990356 C 1635.542969 805.315918 1645.496948 793.775391 1658.268066 793.775391 C 1671.03894 793.775391 1680.776978 810.276001 1680.776978 835.238464 L 1680.776978 865.215027 L 1739.231934 865.215027 L 1739.231934 842.620117 C 1739.231934 800.157837 1728.692993 728.91626 1658.11499 728.91626 C 1593.702026 728.91626 1576.512085 790.849854 1576.512085 827.451782 C 1576.512085 880.428345 1610.45105 923.223694 1635.984009 950.814697 L 1637.28894 952.219055 C 1659.294067 975.984192 1682.054932 1000.55957 1682.054932 1037.944824 C 1682.054932 1050.727539 1676.204956 1074.60083 1662.111084 1074.60083 C 1651.949951 1074.60083 1642.545044 1068.740479 1642.545044 1026.215088 L 1642.545044 987.047607 L 1581.074951 987.047607 L 1581.074951 1018.833618 C 1581.074951 1101.075562 1606.796997 1141.062256 1659.708008 1141.062256 C 1707.660034 1141.062256 1739.880005 1100.130371 1739.880005 1039.214111 C 1739.880005 978.297729 1706.562012 934.818237 1673.973022 900.241638 C 1647.404907 872.065491 1635.552002 855.240845 1635.552002 829.990356 Z"/>
                <path id="path3" fill="#141414" stroke="none" d="M 418.436981 701.082153 C 483.110992 701.082153 506.024994 625.20459 506.024994 411.128784 C 506.024994 197.053101 483.10199 121.166504 418.436981 121.166504 C 353.771973 121.166504 330.848999 197.044067 330.848999 411.128784 C 330.848999 625.213623 353.771973 701.082153 418.436981 701.082153 Z M 418.436981 184.009277 C 439.164001 184.009277 439.164001 354.956543 439.164001 411.128784 C 439.164001 467.301025 439.164001 638.248413 418.436981 638.248413 C 397.709991 638.248413 397.709991 467.310059 397.709991 411.128784 C 397.709991 354.947632 397.709991 184.009277 418.436981 184.009277 Z"/>
                <path id="path4" fill="#141414" stroke="none" d="M 1411.704102 1159.46228 L 1384.218018 732.427002 L 1271.601074 732.427002 L 1271.601074 1549.580566 L 1338.444092 1549.580566 L 1338.444092 780.407471 L 1341.954102 780.407471 L 1382.778076 1465.583252 L 1438.271973 1465.583252 L 1481.445068 780.407471 L 1484.963989 780.407471 L 1484.963989 1329.851563 L 1551.797974 1329.851563 L 1551.797974 732.427002 L 1439.18103 732.427002 L 1411.704102 1159.46228 Z"/>
                <path id="path5" fill="#141414" stroke="none" d="M 300.681 697.571411 L 300.681 237.912964 L 233.847 237.912964 L 233.847 633.837402 L 230.274002 633.837402 L 195.291 370.727905 L 90 370.727905 L 90 865.215027 L 156.834 865.215027 L 156.834 434.461914 L 160.406998 434.461914 L 195.389999 697.571411 L 300.681 697.571411 Z"/>
                <path id="path6" fill="#141414" stroke="none" d="M 322.326019 970.439026 L 294.839996 732.427002 L 182.23201 732.427002 L 182.23201 1075.554932 L 249.06601 1075.554932 L 249.06601 780.407471 L 252.612 780.407471 L 294.615021 1212.843994 L 350.04599 1212.843994 L 392.048981 780.407471 L 395.595001 780.407471 L 395.595001 1329.851563 L 462.428986 1329.851563 L 462.428986 732.427002 L 349.811981 732.427002 L 322.326019 970.439026 Z"/>
                <path id="path7" fill="#141414" stroke="none" d="M 788.89502 697.571411 L 855.729004 697.571411 L 855.729004 263.406494 L 912.411011 263.406494 L 912.411011 196.557861 L 732.203979 196.557861 L 732.203979 263.406494 L 788.89502 263.406494 L 788.89502 697.571411 Z"/>
                <path id="path8" fill="#141414" stroke="none" d="M 963.477051 543.898804 L 1016.091003 543.898804 L 1016.091003 697.571411 L 1082.916016 697.571411 L 1082.916016 239.254272 L 1016.091003 239.254272 L 1016.091003 469.803589 L 963.477051 469.803589 L 963.477051 312.701294 L 896.652039 312.701294 L 896.652039 697.571411 L 963.477051 697.571411 L 963.477051 543.898804 Z"/>
                <path id="path9" fill="#141414" stroke="none" d="M 1289.744995 630.722778 L 1238.714966 630.722778 L 1238.714966 432.472534 L 1282.185059 432.472534 L 1282.185059 358.377319 L 1238.714966 358.377319 L 1238.714966 202.607178 L 1289.744995 202.607178 L 1289.744995 135.758667 L 1171.880981 135.758667 L 1171.880981 697.571411 L 1289.744995 697.571411 L 1289.744995 630.722778 Z"/>
                <path id="path10" fill="#141414" stroke="none" d="M 1709.792969 370.727905 L 1709.792969 437.576538 L 1766.484009 437.576538 L 1766.484009 865.215027 L 1833.317993 865.215027 L 1833.317993 437.576538 L 1890 437.576538 L 1890 370.727905 L 1709.792969 370.727905 Z"/>
                <path id="path11" fill="#141414" stroke="none" d="M 662.247009 375.535034 C 691.028992 340.958496 705.618042 297.352905 705.618042 245.906738 C 705.618042 116.908569 635.714966 82.827148 598.752014 82.827148 L 536.192993 82.827148 L 536.192993 697.571411 L 603.189026 697.571411 L 603.189026 415.782837 L 674.001038 697.571411 L 743.364014 697.571411 L 662.247009 375.535034 Z M 638.783997 252.748291 C 638.783997 306.309937 624.203979 349.780396 603.189026 359.412476 L 603.189026 145.921875 C 623.231995 152.34021 638.783997 198.73645 638.783997 252.748291 Z"/>
                <path id="path12" fill="#141414" stroke="none" d="M 1618.380005 701.082153 C 1642.140015 701.082153 1658.699951 693.520508 1668.401978 687.183105 C 1695.356934 669.575195 1709.019043 637.375244 1709.019043 591.474121 C 1709.019043 518.972412 1668.942017 449.234131 1638.791992 403.081055 L 1633.625977 395.213379 C 1611.954102 362.275146 1591.487915 331.164307 1591.487915 290.322388 C 1591.487915 273.461792 1596.411011 241.585815 1615.050049 241.585815 C 1628.135986 241.585815 1635.641968 257.438232 1635.641968 285.074341 L 1635.641968 338.473999 L 1696.329102 338.473999 L 1697.463013 338.320923 L 1697.147949 337.510742 L 1697.147949 292.455933 C 1697.147949 215.948242 1670.291992 178.751953 1615.050049 178.751953 C 1599.75 178.751953 1523.420898 184.135254 1523.420898 290.322388 C 1523.420898 352.922119 1551.635986 395.897583 1576.529907 433.813843 L 1580.345947 439.629028 C 1610.31604 485.45813 1640.96106 539.334839 1640.96106 591.474121 C 1640.96106 610.891479 1633.859985 638.23938 1618.083008 638.248413 C 1613.457031 638.248413 1601.154053 638.23938 1601.154053 586.244019 L 1601.154053 526.291016 L 1535.994019 526.291016 L 1536.17395 590.430054 L 1536.192017 591.024048 C 1538.505005 667.135742 1563.759033 701.07312 1618.227051 701.091064 L 1618.380005 701.091064 Z"/>
                <path id="path13" fill="#141414" stroke="none" d="M 909.143982 1748.190918 L 1032.542969 1748.190918 L 1032.542969 1681.342285 L 976.607971 1681.342285 L 976.607971 1241.659302 L 1024.973999 1241.659302 L 1024.973999 1167.555054 L 976.607971 1167.555054 L 976.607971 799.275635 L 1032.542969 799.275635 L 1032.542969 732.427002 L 909.773987 732.427002 L 909.143982 1748.190918 Z"/>
                <path id="path14" fill="#141414" stroke="none" d="M 819.531006 1125.831055 C 806.714966 1068.506348 793.46698 1009.228455 784.368042 957.179077 C 775.953003 908.874573 771.857971 871.219299 771.857971 842.088989 C 771.857971 840.567627 771.88501 839.037292 771.947998 837.34491 C 772.172974 831.304626 772.830017 825.471313 773.901001 820.016052 C 776.187012 808.745728 781.299011 795.314697 792.719971 795.314697 C 793.16095 795.314697 793.619995 795.332764 794.078979 795.377686 C 807.822021 796.619995 809.406006 826.488525 809.406006 848.849487 L 809.406006 940.543457 L 876.23999 940.543457 L 876.23999 856.231079 C 876.23999 801.580078 867.726013 728.925293 794.151001 728.925293 L 793.602051 728.961304 C 740.799011 729.285278 702.503967 776.824707 702.503967 842.097961 C 702.503967 919.703918 726.44397 1026.917358 751.788025 1140.423096 C 778.014038 1257.898804 808.640991 1432.609009 808.640991 1538.373047 C 808.640991 1581.474487 794.322021 1587.910889 785.789978 1587.910889 C 771.88501 1587.910889 770.013 1557.871338 770.013 1528.47998 L 770.013 1348.773682 L 703.179016 1348.773682 L 703.179016 1527.057617 C 703.179016 1581.708618 711.692993 1654.363403 785.268005 1654.363403 C 819.900024 1654.363403 877.994995 1639.285156 877.994995 1538.364136 C 877.994995 1490.302612 872.261963 1426.793701 860.958008 1349.61084 C 846.864014 1253.20874 828.953979 1168.023193 819.531006 1125.831055 Z"/>
                <path id="path15" fill="#141414" stroke="none" d="M 1394.217041 492.740601 L 1436.976074 492.740601 L 1450.026001 698.066406 L 1516.986084 697.562378 L 1469.187012 82.827148 L 1361.987915 82.827148 L 1314.207031 697.571411 L 1381.166992 698.075439 L 1394.217041 492.749634 Z M 1397.996948 433.138672 L 1415.645996 141.925049 L 1433.195923 433.138672 L 1398.005981 433.138672 Z"/>
            </g>
        </g>
    </g>
</svg>
