<svg class="c-header-logo__img" xmlns="http://www.w3.org/2000/svg" viewBox="0 0 81.8 88.45" width="123" height="133" alt="Northern Stage">
  <g class="c-header-logo__text">
    <path fill="currentColor" d="M11,64.33a23.87,23.87,0,0,1,.21-3.56,5.25,5.25,0,0,1,.65-2,3.6,3.6,0,0,1,1.45-1.36A5.22,5.22,0,0,1,15.58,57a5.14,5.14,0,0,1,2.22.41,3.62,3.62,0,0,1,1.46,1.36,5.26,5.26,0,0,1,.65,2,25.5,25.5,0,0,1,.2,3.55,23.61,23.61,0,0,1-.21,3.53,5.27,5.27,0,0,1-.64,2,3.62,3.62,0,0,1-1.46,1.36,5.14,5.14,0,0,1-2.22.41,5.22,5.22,0,0,1-2.23-.41,3.6,3.6,0,0,1-1.45-1.36,5.25,5.25,0,0,1-.65-2A23.82,23.82,0,0,1,11,64.33m2.66,0a13.66,13.66,0,0,0,.41,4.34,1.47,1.47,0,0,0,1.49.89,1.46,1.46,0,0,0,1.46-.87,14.24,14.24,0,0,0,.39-4.36,13.91,13.91,0,0,0-.4-4.38,1.46,1.46,0,0,0-1.47-.89A1.48,1.48,0,0,0,14.1,60a13.91,13.91,0,0,0-.4,4.38"></path>
    <path fill="currentColor" d="M22.24,71.32v-14h4.67a4.42,4.42,0,0,1,3,.85,3.68,3.68,0,0,1,.93,2.8,3.91,3.91,0,0,1-.5,2.15,2,2,0,0,1-1.47.92c1.24.33,1.88,1.37,1.94,3.13v.19l.07,1.85a4.42,4.42,0,0,0,.2,1.26,2.15,2.15,0,0,0,.51.83H28.54a4.48,4.48,0,0,1-.16-.84c0-.31-.06-.76-.08-1.34l0-1.47V67.3a2.15,2.15,0,0,0-.52-1.67,3.44,3.44,0,0,0-2.11-.45h-.89v6.14Zm2.51-8.07h1.5a2.19,2.19,0,0,0,1.58-.46,2.33,2.33,0,0,0,.44-1.62,1.88,1.88,0,0,0-.48-1.47A2.82,2.82,0,0,0,26,59.29H24.75Z"></path>
    <polygon fill="currentColor" points="34.96 71.31 34.96 59.64 31.96 59.64 31.96 57.34 40.56 57.34 40.56 59.64 37.57 59.64 37.57 71.31 34.96 71.31"></polygon>
    <polygon fill="currentColor" points="41.93 71.31 41.93 57.34 44.52 57.34 44.52 62.82 48.09 62.82 48.09 57.34 50.68 57.34 50.68 71.31 48.09 71.31 48.09 64.98 44.52 64.98 44.52 71.31 41.93 71.31"></polygon>
    <polygon fill="currentColor" points="53.06 71.31 53.06 57.34 60.24 57.34 60.24 59.66 55.65 59.66 55.65 62.89 59.92 62.89 59.92 65.11 55.65 65.11 55.65 68.95 60.35 68.95 60.35 71.31 53.06 71.31"></polygon>
    <path fill="currentColor" d="M62.27,71.32v-14h4.66a4.45,4.45,0,0,1,3,.85,3.68,3.68,0,0,1,.93,2.8,4,4,0,0,1-.5,2.15,2,2,0,0,1-1.47.92c1.24.33,1.88,1.37,1.94,3.13v.19L71,69.23a4.42,4.42,0,0,0,.2,1.26,2.15,2.15,0,0,0,.51.83H68.57a4.48,4.48,0,0,1-.16-.84,12.76,12.76,0,0,1-.08-1.34l0-1.47V67.3a2.19,2.19,0,0,0-.52-1.67,3.44,3.44,0,0,0-2.11-.45h-.89v6.14Zm2.51-8.07h1.5a2.19,2.19,0,0,0,1.58-.46,2.33,2.33,0,0,0,.44-1.62,1.85,1.85,0,0,0-.49-1.47,2.78,2.78,0,0,0-1.75-.41H64.78Z"></path>
    <polygon fill="currentColor" points="73 71.31 73 57.34 75.68 57.34 79.32 67.11 79.25 57.34 81.71 57.34 81.71 71.31 79.05 71.31 75.38 61.52 75.45 71.31 73 71.31"></polygon>
    <polygon fill="currentColor" points="0 71.31 0 57.34 2.68 57.34 6.32 67.11 6.25 57.34 8.71 57.34 8.71 71.31 6.05 71.31 2.38 61.52 2.45 71.31 0 71.31"></polygon>
    <path fill="currentColor" d="M35,83.2h2.6v.9a3.28,3.28,0,0,0,.33,1.76,1.24,1.24,0,0,0,1.11.46,1.78,1.78,0,0,0,1.26-.41,1.68,1.68,0,0,0,.43-1.24,1.87,1.87,0,0,0-.3-1.07,5.26,5.26,0,0,0-1.3-1.16l-1.34-1a7.75,7.75,0,0,1-2.19-2,3.79,3.79,0,0,1-.47-2,3.61,3.61,0,0,1,1.05-2.76,4,4,0,0,1,2.88-1,4,4,0,0,1,3,1.06,4.19,4.19,0,0,1,1,3v.31c0,.07,0,.13,0,.19H40.57V78a2.74,2.74,0,0,0-.37-1.63A1.44,1.44,0,0,0,39,75.92a1.3,1.3,0,0,0-1,.37,1.38,1.38,0,0,0-.36,1c0,.59.54,1.24,1.61,2,0,0,0,0,0,0l1.44,1a6.8,6.8,0,0,1,2.08,1.92,4.42,4.42,0,0,1,.54,2.3,3.85,3.85,0,0,1-1.09,2.94,4.33,4.33,0,0,1-3.11,1A4.13,4.13,0,0,1,36,87.36,4.71,4.71,0,0,1,35,84c0-.16,0-.42,0-.78Z"></path>
    <polygon fill="currentColor" points="47.43 88.11 47.43 76.44 44.43 76.44 44.43 74.13 53.03 74.13 53.03 76.44 50.03 76.44 50.03 88.11 47.43 88.11"></polygon>
    <path fill="currentColor" d="M52.36,88.11l3.15-14H59l3.18,14H59.38l-.69-3.51h-3L55,88.11ZM56.1,82.5h2.22L57.2,76.64Z"></path>
    <path fill="currentColor" d="M70.46,88.11l-.19-1.54A2.87,2.87,0,0,1,69.17,88a3.58,3.58,0,0,1-1.91.44,3.23,3.23,0,0,1-3.09-1.66q-.9-1.67-.9-6.09a20.68,20.68,0,0,1,.22-3.32,4.87,4.87,0,0,1,.67-1.93,3.27,3.27,0,0,1,1.44-1.24,5.59,5.59,0,0,1,2.23-.4,3.82,3.82,0,0,1,4.39,4.37v.36H69.79v-.15a3.19,3.19,0,0,0-.47-1.89,1.61,1.61,0,0,0-1.4-.64,1.57,1.57,0,0,0-1.55.87A14.47,14.47,0,0,0,66,81.35a12.87,12.87,0,0,0,.4,4,1.46,1.46,0,0,0,1.45,1,1.59,1.59,0,0,0,1.47-.71,4.72,4.72,0,0,0,.44-2.4v-.48h-1.8V80.49h4.31v7.62Z"></path>
    <polygon fill="currentColor" points="74.51 88.11 74.51 74.13 81.69 74.13 81.69 76.46 77.1 76.46 77.1 79.69 81.37 79.69 81.37 81.9 77.1 81.9 77.1 85.75 81.8 85.75 81.8 88.11 74.51 88.11"></polygon>
  </g>
  <polygon class="c-header-logo__monogram" fill="currentColor" points="34.41 39.58 46.54 39.58 52.11 19.07 68.46 54.09 81.45 54.09 81.45 0.1 72.1 34.42 56.15 0.1 45.31 0 34.41 39.58"></polygon>
</svg>