<svg xmlns="http://www.w3.org/2000/svg" xmlns:xlink="http://www.w3.org/1999/xlink" width="416.352" height="79.37" viewBox="0 0 416.352 79.37">
  <defs>
    <clipPath id="clip-path">
      <rect id="Rectangle_2103" data-name="Rectangle 2103" width="416.352" height="79.37" transform="translate(0 0)" fill="none"/>
    </clipPath>
  </defs>
  <g id="sevenstories-logo" transform="translate(0 0)">
    <g id="Group_2063" data-name="Group 2063" clip-path="url(#clip-path)">
      <path id="Path_12673" data-name="Path 12673" d="M4.064,37.124s4.4,5.081,10.3,5.081c2.642,0,4.677-1.084,4.677-3.388,0-4.878-18.221-4.81-18.221-15.99,0-6.909,6.232-10.093,13.412-10.093,4.677,0,12.126,1.558,12.126,7.181V23.5H18.765V21.813c0-1.625-2.44-2.438-4.337-2.438-3.05,0-5.149,1.086-5.149,3.116,0,5.42,18.358,4.337,18.358,15.853,0,6.5-5.757,10.568-13.277,10.568A18.95,18.95,0,0,1,0,42.747Z" fill="#83247b"/>
      <path id="Path_12674" data-name="Path 12674" d="M56.226,26.352c-.136-4.133-2.977-6.979-6.5-6.979-4.4,0-7.52,2.642-8.468,6.979ZM49.72,12.735c9.89,0,15.309,7.248,15.309,16.394,0,1.015-.2,3.184-.2,3.184H40.984c.68,6.1,5.149,9.281,10.366,9.281a15.7,15.7,0,0,0,9.686-3.862l3.59,5.962a21.005,21.005,0,0,1-13.885,5.215c-11.448,0-18.561-8.265-18.561-18.087,0-10.635,7.181-18.087,17.545-18.087" fill="#669a5e"/>
      <path id="Path_12675" data-name="Path 12675" d="M71.2,22.085a1.786,1.786,0,0,0-1.9-1.22h-.744V13.551H73.5c2.846,0,4.2.881,5.083,3.253l6.5,18.153A37.309,37.309,0,0,1,86.373,39.9h.134a45.954,45.954,0,0,1,1.22-4.947L94.23,16.8c.881-2.372,2.3-3.252,5.081-3.252h4.607v7.314h-.813a1.786,1.786,0,0,0-1.9,1.22L91.317,48.1H81.087Z" fill="#eb5633"/>
      <path id="Path_12676" data-name="Path 12676" d="M130.2,26.352c-.135-4.133-2.977-6.979-6.5-6.979-4.4,0-7.519,2.642-8.468,6.979Zm-6.5-13.617c9.89,0,15.309,7.248,15.309,16.394,0,1.015-.2,3.184-.2,3.184H114.961c.681,6.1,5.149,9.281,10.364,9.281a15.7,15.7,0,0,0,9.688-3.862l3.59,5.962a21.011,21.011,0,0,1-13.888,5.215c-11.447,0-18.56-8.265-18.56-18.087,0-10.635,7.179-18.087,17.545-18.087" fill="#30aeb1"/>
      <path id="Path_12677" data-name="Path 12677" d="M147.342,22.355a1.326,1.326,0,0,0-1.139-1.491,1.359,1.359,0,0,0-.349,0h-2.711V13.55h7.925c3.049,0,4.539,1.422,4.539,3.861v1.015a9.41,9.41,0,0,1-.136,1.489h.136a13.281,13.281,0,0,1,12.194-7.18c7.655,0,12.058,4,12.058,13.143V39.359a1.356,1.356,0,0,0,1.209,1.489,1.329,1.329,0,0,0,.282,0h2.711V48.1h-8.2c-3.252,0-4.607-1.354-4.607-4.6V27.638c0-4.2-1.084-7.045-5.421-7.045a9.477,9.477,0,0,0-9.28,7.045,14.544,14.544,0,0,0-.679,4.607V48.1h-8.536Z" fill="#e85b60"/>
      <path id="Path_12678" data-name="Path 12678" d="M208.514,37.124s4.4,5.081,10.3,5.081c2.64,0,4.677-1.084,4.677-3.388,0-4.878-18.221-4.81-18.221-15.99,0-6.909,6.232-10.093,13.412-10.093,4.677,0,12.126,1.558,12.126,7.181V23.5h-7.587V21.813c0-1.625-2.44-2.438-4.338-2.438-3.049,0-5.148,1.086-5.148,3.116,0,5.42,18.357,4.337,18.357,15.853,0,6.5-5.758,10.568-13.277,10.568a18.949,18.949,0,0,1-14.361-6.165Z" fill="#eb5633"/>
      <path id="Path_12679" data-name="Path 12679" d="M240.218,20.39h-4.471V13.548h4.678V4.131h8.4v9.417h7.858V20.39h-7.858V34.345c0,5.69,4.47,6.5,6.84,6.5a7.913,7.913,0,0,0,1.559-.134V48.23a15.9,15.9,0,0,1-2.642.2c-4.81,0-14.361-1.422-14.361-13.007Z" fill="#83247b"/>
      <path id="Path_12680" data-name="Path 12680" d="M280.052,41.594c5.623,0,10.3-4.338,10.3-10.772,0-6.368-4.678-10.771-10.3-10.771-5.555,0-10.229,4.4-10.229,10.771,0,6.436,4.678,10.772,10.229,10.772m0-28.859c10.568,0,18.966,7.519,18.966,18.087,0,10.635-8.4,18.087-18.966,18.087-10.5,0-18.9-7.452-18.9-18.087,0-10.568,8.4-18.087,18.9-18.087" fill="#30aeb1"/>
      <path id="Path_12681" data-name="Path 12681" d="M306.539,22.355a1.327,1.327,0,0,0-1.139-1.491,1.367,1.367,0,0,0-.35,0h-2.711V13.55h7.86c3.047,0,4.6,1.287,4.6,4.2v2.032a15.694,15.694,0,0,1-.136,2.167h.136c1.557-4.944,5.691-8.873,10.971-8.873a11.009,11.009,0,0,1,1.559.135v8.467a15.212,15.212,0,0,0-2.1-.136,9.726,9.726,0,0,0-9.416,7.249,20.9,20.9,0,0,0-.744,5.622V48.1h-8.534Z" fill="#669a5e"/>
      <path id="Path_12682" data-name="Path 12682" d="M335.331,0h7.452V7.926h-7.452Zm-.406,22.355a1.327,1.327,0,0,0-1.139-1.491,1.3,1.3,0,0,0-.352,0h-2.709V13.55h8.2c3.183,0,4.538,1.422,4.538,4.605v21.2a1.357,1.357,0,0,0,1.208,1.489,1.338,1.338,0,0,0,.283,0h2.712V48.1h-8.2c-3.185,0-4.539-1.354-4.539-4.606Z" fill="#2f5fb1"/>
      <path id="Path_12683" data-name="Path 12683" d="M375.5,26.352c-.135-4.133-2.977-6.979-6.5-6.979-4.4,0-7.519,2.642-8.468,6.979ZM369,12.735c9.89,0,15.309,7.248,15.309,16.394,0,1.015-.2,3.184-.2,3.184H360.259c.681,6.1,5.149,9.281,10.364,9.281a15.7,15.7,0,0,0,9.688-3.862l3.59,5.962a21.01,21.01,0,0,1-13.891,5.215c-11.447,0-18.561-8.265-18.561-18.087,0-10.635,7.18-18.087,17.546-18.087" fill="#e85b60"/>
      <path id="Path_12684" data-name="Path 12684" d="M392.775,37.124s4.4,5.081,10.3,5.081c2.64,0,4.677-1.084,4.677-3.388,0-4.878-18.223-4.81-18.223-15.99,0-6.909,6.232-10.093,13.414-10.093,4.677,0,12.126,1.558,12.126,7.181V23.5H407.48V21.813c0-1.625-2.44-2.438-4.338-2.438-3.049,0-5.148,1.086-5.148,3.116,0,5.42,18.357,4.337,18.357,15.853,0,6.5-5.757,10.568-13.277,10.568a18.949,18.949,0,0,1-14.361-6.165Z" fill="#83247b"/>
      <path id="Path_12685" data-name="Path 12685" d="M6.693,78.181a1.057,1.057,0,0,1-.936,1.167,1.017,1.017,0,0,1-.156.006,1.057,1.057,0,0,1-1.1-1.016,1.026,1.026,0,0,1,.005-.157V63.473H1.176a1.026,1.026,0,1,1-.059-2.052.579.579,0,0,1,.059,0h8.845a1.026,1.026,0,1,1,.059,2.052H6.693Z" fill="#808086"/>
      <path id="Path_12686" data-name="Path 12686" d="M14.873,67.522a4.486,4.486,0,0,1,3.65-1.759c2.8,0,4.637,2,4.637,5.037v7.379a1.1,1.1,0,0,1-2.186.15,1.251,1.251,0,0,1,0-.15V70.933a3.083,3.083,0,1,0-6.155-.369,3.244,3.244,0,0,0,0,.369V78.18a1.1,1.1,0,1,1-2.185.15.939.939,0,0,1,0-.15V61.1a1.1,1.1,0,1,1,2.185-.15.939.939,0,0,1,0,.15v6.368Z" fill="#808086"/>
      <path id="Path_12687" data-name="Path 12687" d="M34.754,71.759c-.108-2.583-1.469-4.1-3.681-4.1s-3.436,1.384-3.623,4.1Zm-7.3,1.652A4.1,4.1,0,0,0,28.6,76.4a3.8,3.8,0,0,0,2.825,1.065,5.087,5.087,0,0,0,3.517-1.305c.507-.4.72-.507.959-.507a.891.891,0,0,1,.774.936c0,1.276-2.933,2.772-5.411,2.772-3.6,0-6-2.692-6-6.742,0-3.969,2.506-6.848,5.916-6.848,3.251,0,5.754,2.8,5.754,6.422,0,.906-.319,1.225-1.225,1.225Z" fill="#808086"/>
      <path id="Path_12688" data-name="Path 12688" d="M47.465,78.18a1.095,1.095,0,1,1-2.184.149,1.235,1.235,0,0,1,0-.149V62.566c0-.906.32-1.305.985-1.305.613,0,.88.186,1.546,1.145l9.007,12.927h.052v-12.9a1.095,1.095,0,0,1,2.184-.149.927.927,0,0,1,0,.149V78.047c0,.906-.319,1.306-1.012,1.306-.586,0-.85-.186-1.519-1.146L47.518,65.28h-.053Z" fill="#808086"/>
      <path id="Path_12689" data-name="Path 12689" d="M63.721,72.532c0,3.011,1.439,4.932,3.651,4.932s3.65-1.945,3.65-4.9-1.439-4.9-3.65-4.9-3.651,1.945-3.651,4.876m7.329-5.676a1.027,1.027,0,1,1,2.051-.118.775.775,0,0,1,0,.118v11.4a1.027,1.027,0,0,1-2.051.118,1.157,1.157,0,0,1,0-.118v-.906H71a4.212,4.212,0,0,1-3.677,2c-3.331,0-5.783-2.878-5.783-6.8,0-3.943,2.451-6.794,5.808-6.794A4.565,4.565,0,0,1,71,67.55h.052Z" fill="#808086"/>
      <path id="Path_12690" data-name="Path 12690" d="M76.781,63.045a1.095,1.095,0,1,1,2.184-.149,1.232,1.232,0,0,1,0,.149v2.88h.906c.693,0,1.094.345,1.094.958,0,.586-.4.936-1.094.936h-.9V78.178a1.1,1.1,0,1,1-2.184.173,1,1,0,0,1,0-.173V67.814h-.908c-.691,0-1.091-.346-1.091-.936,0-.613.4-.958,1.091-.958h.908Z" fill="#808086"/>
      <path id="Path_12691" data-name="Path 12691" d="M84.8,78.18a1.095,1.095,0,1,1-2.184.149.927.927,0,0,1,0-.149V66.936a1.1,1.1,0,0,1,2.184-.172,1.235,1.235,0,0,1,0,.172Zm.266-15.564a1.346,1.346,0,1,1-1.361-1.361,1.325,1.325,0,0,1,1.361,1.287c0,.025,0,.049,0,.074" fill="#808086"/>
      <path id="Path_12692" data-name="Path 12692" d="M89.331,72.531c0,3.012,1.438,4.933,3.65,4.933s3.65-1.945,3.65-4.9-1.44-4.9-3.65-4.9-3.65,1.946-3.65,4.877m9.486.026c0,3.945-2.451,6.8-5.836,6.8s-5.835-2.85-5.835-6.741c0-4,2.424-6.848,5.835-6.848,3.385,0,5.836,2.851,5.836,6.794" fill="#808086"/>
      <path id="Path_12693" data-name="Path 12693" d="M103.376,67.522a4.486,4.486,0,0,1,3.65-1.759c2.8,0,4.637,2,4.637,5.037v7.379a1.1,1.1,0,0,1-2.186.15,1.252,1.252,0,0,1,0-.15V70.933a3.083,3.083,0,1,0-6.155-.369,3.246,3.246,0,0,0,0,.369V78.18a1.1,1.1,0,1,1-2.185.15.94.94,0,0,1,0-.15V66.936a1.1,1.1,0,1,1,2.185-.149.927.927,0,0,1,0,.149v.533Z" fill="#808086"/>
      <path id="Path_12694" data-name="Path 12694" d="M116.195,72.532c0,3.011,1.439,4.932,3.65,4.932s3.651-1.945,3.651-4.9-1.44-4.9-3.651-4.9-3.65,1.945-3.65,4.876m7.327-5.676a1.028,1.028,0,1,1,2.052-.132.967.967,0,0,1,0,.132v11.4a1.028,1.028,0,0,1-2.052.132.967.967,0,0,1,0-.132v-.906h-.056a4.213,4.213,0,0,1-3.678,2c-3.33,0-5.783-2.878-5.783-6.8,0-3.943,2.451-6.794,5.809-6.794a4.564,4.564,0,0,1,3.65,1.786h.053Z" fill="#808086"/>
      <path id="Path_12695" data-name="Path 12695" d="M130.639,78.181a1.095,1.095,0,1,1-2.184.149,1.232,1.232,0,0,1,0-.149V61.1a1.1,1.1,0,1,1,2.184-.173,1,1,0,0,1,0,.173Z" fill="#808086"/>
      <path id="Path_12696" data-name="Path 12696" d="M152.542,76.822c0,1.276-2.744,2.533-5.516,2.533a7.074,7.074,0,0,1-6.1-3.013,10.28,10.28,0,0,1-1.813-6.048c0-5.329,3.251-9.032,7.91-9.032,2.532,0,5.143,1.36,5.143,2.636a.957.957,0,0,1-.88,1.012c-.32,0-.586-.133-1.092-.559a4.391,4.391,0,0,0-3.171-1.2c-3.3,0-5.569,2.878-5.569,7.088,0,4.317,2.212,7.221,5.516,7.221a6.286,6.286,0,0,0,3.491-1.12c.694-.4.936-.5,1.226-.5a.91.91,0,0,1,.851.966v.019" fill="#808086"/>
      <path id="Path_12697" data-name="Path 12697" d="M163.043,71.759c-.107-2.585-1.466-4.1-3.677-4.1s-3.437,1.384-3.623,4.1Zm-7.3,1.651a4.1,4.1,0,0,0,1.146,2.985,3.8,3.8,0,0,0,2.825,1.065,5.083,5.083,0,0,0,3.517-1.306c.507-.4.72-.506.959-.506a.89.89,0,0,1,.774.936c0,1.276-2.933,2.772-5.411,2.772-3.6,0-5.995-2.692-5.995-6.742,0-3.969,2.506-6.848,5.916-6.848,3.251,0,5.754,2.8,5.754,6.422,0,.906-.319,1.225-1.225,1.225Z" fill="#808086"/>
      <path id="Path_12698" data-name="Path 12698" d="M169.573,67.522a4.486,4.486,0,0,1,3.65-1.759c2.8,0,4.637,2,4.637,5.037v7.379a1.1,1.1,0,0,1-2.186.15,1.255,1.255,0,0,1,0-.15V70.933a3.083,3.083,0,1,0-6.155-.369,3.243,3.243,0,0,0,0,.369V78.18a1.1,1.1,0,1,1-2.185.15.94.94,0,0,1,0-.15V66.936a1.1,1.1,0,1,1,2.185-.149.927.927,0,0,1,0,.149v.533Z" fill="#808086"/>
      <path id="Path_12699" data-name="Path 12699" d="M181.486,63.045a1.095,1.095,0,1,1,2.184-.149,1.232,1.232,0,0,1,0,.149v2.88h.906c.693,0,1.092.345,1.092.958,0,.586-.4.936-1.092.936h-.906V78.178a1.1,1.1,0,1,1-2.184.173,1,1,0,0,1,0-.173V67.814h-.907c-.693,0-1.092-.346-1.092-.936,0-.613.4-.958,1.092-.958h.907Z" fill="#808086"/>
      <path id="Path_12700" data-name="Path 12700" d="M189.56,68.055a3.847,3.847,0,0,1,3.012-2.292,1.114,1.114,0,0,1,1.195,1.027c0,.03,0,.061,0,.092,0,.64-.425,1.013-1.361,1.2a3.479,3.479,0,0,0-2.9,3.783v6.317a1.1,1.1,0,0,1-2.186.149.924.924,0,0,1,0-.149V66.937a1.1,1.1,0,1,1,2.186-.15,1.249,1.249,0,0,1,0,.15v1.118Z" fill="#808086"/>
      <path id="Path_12701" data-name="Path 12701" d="M203.548,71.759c-.107-2.585-1.466-4.1-3.677-4.1s-3.437,1.384-3.623,4.1Zm-7.3,1.652a4.09,4.09,0,0,0,1.146,2.985,3.8,3.8,0,0,0,2.824,1.065,5.091,5.091,0,0,0,3.518-1.305c.506-.4.719-.507.96-.507a.891.891,0,0,1,.772.936c0,1.276-2.932,2.772-5.409,2.772-3.6,0-5.995-2.692-5.995-6.742,0-3.969,2.5-6.848,5.915-6.848,3.251,0,5.754,2.8,5.754,6.422,0,.906-.318,1.225-1.225,1.225Z" fill="#808086"/>
      <path id="Path_12702" data-name="Path 12702" d="M216.982,78.181a1.095,1.095,0,1,1-2.184.149c0-.049,0-.1,0-.149V67.815h-.907c-.692,0-1.093-.347-1.093-.935,0-.613.4-.96,1.093-.96h.907V62.806a2.7,2.7,0,0,1,2.9-2.878h.665c.72,0,1.252.425,1.252.986,0,.586-.424.9-1.2.9h-.532c-.64.028-.907.267-.907.879v3.225h1.361c.72,0,1.119.347,1.119.96,0,.585-.4.936-1.119.936h-1.361Z" fill="#808086"/>
      <path id="Path_12703" data-name="Path 12703" d="M222.02,72.531c0,3.012,1.438,4.933,3.65,4.933s3.65-1.945,3.65-4.9-1.439-4.9-3.65-4.9-3.65,1.943-3.65,4.873m9.485.026c0,3.945-2.451,6.795-5.835,6.795s-5.836-2.85-5.836-6.741c0-4,2.425-6.848,5.836-6.848,3.384,0,5.835,2.851,5.835,6.794" fill="#808086"/>
      <path id="Path_12704" data-name="Path 12704" d="M236.065,68.055a3.847,3.847,0,0,1,3.012-2.292,1.114,1.114,0,0,1,1.2,1.027c0,.03,0,.061,0,.092,0,.64-.425,1.013-1.361,1.2a3.479,3.479,0,0,0-2.9,3.783v6.317a1.1,1.1,0,0,1-2.186.149.927.927,0,0,1,0-.149V66.937a1.1,1.1,0,1,1,2.186-.15,1.249,1.249,0,0,1,0,.15v1.118Z" fill="#808086"/>
      <path id="Path_12705" data-name="Path 12705" d="M260.687,76.822c0,1.276-2.744,2.533-5.515,2.533a7.075,7.075,0,0,1-6.1-3.013,10.28,10.28,0,0,1-1.813-6.048c0-5.329,3.251-9.032,7.915-9.032,2.531,0,5.143,1.36,5.143,2.636a.958.958,0,0,1-.881,1.012c-.32,0-.586-.133-1.092-.559a4.389,4.389,0,0,0-3.17-1.2c-3.3,0-5.57,2.878-5.57,7.088,0,4.317,2.211,7.221,5.515,7.221a6.283,6.283,0,0,0,3.491-1.12c.694-.4.936-.5,1.226-.5a.911.911,0,0,1,.852.966l0,.019" fill="#808086"/>
      <path id="Path_12706" data-name="Path 12706" d="M264.952,67.522a4.486,4.486,0,0,1,3.65-1.759c2.8,0,4.637,2,4.637,5.037v7.379a1.1,1.1,0,0,1-2.186.15,1.242,1.242,0,0,1,0-.15V70.933a3.083,3.083,0,1,0-6.155-.369,3.236,3.236,0,0,0,0,.369V78.18a1.1,1.1,0,1,1-2.185.15.94.94,0,0,1,0-.15V61.1a1.1,1.1,0,1,1,2.185-.149.927.927,0,0,1,0,.149v6.368Z" fill="#808086"/>
      <path id="Path_12707" data-name="Path 12707" d="M278.33,78.18a1.095,1.095,0,1,1-2.184.149.927.927,0,0,1,0-.149V66.936a1.1,1.1,0,1,1,2.184-.172,1.225,1.225,0,0,1,0,.172Zm.266-15.564a1.346,1.346,0,1,1-1.361-1.361,1.325,1.325,0,0,1,1.361,1.287c0,.025,0,.049,0,.074" fill="#808086"/>
      <path id="Path_12708" data-name="Path 12708" d="M283.419,78.181a1.095,1.095,0,1,1-2.184.149,1.238,1.238,0,0,1,0-.149V61.1a1.1,1.1,0,1,1,2.184-.173,1,1,0,0,1,0,.173Z" fill="#808086"/>
      <path id="Path_12709" data-name="Path 12709" d="M287.976,72.557c0,2.984,1.439,4.9,3.65,4.9,2.186,0,3.623-1.946,3.623-4.878,0-3.009-1.438-4.932-3.65-4.932-2.184,0-3.623,1.946-3.623,4.9M295.035,61.1a1.095,1.095,0,1,1,2.184-.149,1.238,1.238,0,0,1,0,.149V78.179a1.1,1.1,0,1,1-2.184.172.987.987,0,0,1,0-.172v-.665h-.053a3.537,3.537,0,0,1-3.464,1.838c-3.33,0-5.729-2.825-5.729-6.795,0-3.917,2.4-6.795,5.622-6.795a4.256,4.256,0,0,1,3.572,1.811h.053Z" fill="#808086"/>
      <path id="Path_12710" data-name="Path 12710" d="M302.448,68.055a3.847,3.847,0,0,1,3.012-2.292,1.114,1.114,0,0,1,1.2,1.027q0,.045,0,.09c0,.639-.425,1.013-1.361,1.2a3.478,3.478,0,0,0-2.9,3.783v6.316a1.1,1.1,0,0,1-2.186.15.94.94,0,0,1,0-.15V66.937a1.1,1.1,0,1,1,2.186-.15,1.255,1.255,0,0,1,0,.15v1.118Z" fill="#808086"/>
      <path id="Path_12711" data-name="Path 12711" d="M316.437,71.759c-.107-2.585-1.466-4.1-3.677-4.1s-3.437,1.384-3.623,4.1Zm-7.3,1.652a4.1,4.1,0,0,0,1.146,2.985,3.8,3.8,0,0,0,2.825,1.065,5.086,5.086,0,0,0,3.517-1.305c.507-.4.72-.507.96-.507a.892.892,0,0,1,.774.936c0,1.276-2.933,2.772-5.409,2.772-3.6,0-5.995-2.692-5.995-6.742,0-3.969,2.5-6.848,5.915-6.848,3.25,0,5.754,2.8,5.754,6.422,0,.906-.32,1.225-1.225,1.225Z" fill="#808086"/>
      <path id="Path_12712" data-name="Path 12712" d="M322.968,67.522a4.486,4.486,0,0,1,3.65-1.759c2.8,0,4.637,2,4.637,5.037v7.379a1.1,1.1,0,0,1-2.186.15,1.255,1.255,0,0,1,0-.15V70.933a3.084,3.084,0,0,0-6.155-.4,3.272,3.272,0,0,0,0,.4V78.18a1.1,1.1,0,1,1-2.185.15.94.94,0,0,1,0-.15V66.936a1.1,1.1,0,1,1,2.185-.149.927.927,0,0,1,0,.149v.533Z" fill="#808086"/>
      <path id="Path_12713" data-name="Path 12713" d="M334.454,62.193c.347-.694.64-.936,1.146-.936a.985.985,0,0,1,1.012.957v0a2.01,2.01,0,0,1-.267.935L334.935,65.9c-.321.64-.641.906-1.146.906a.952.952,0,0,1-1.011-.89c0-.023,0-.046,0-.069a1.985,1.985,0,0,1,.266-.907Z" fill="#808086"/>
      <path id="Path_12714" data-name="Path 12714" d="M346.419,68.135a.893.893,0,0,1-.9.883.564.564,0,0,1-.058,0,1.708,1.708,0,0,1-1.067-.479,3.529,3.529,0,0,0-2.4-.881c-1.36,0-2.319.667-2.319,1.626,0,.85.8,1.439,2.879,2.185,2.983,1.067,4.21,2.184,4.21,3.913,0,2.319-2.025,3.971-4.877,3.971-2.532,0-4.955-1.252-4.955-2.558a.927.927,0,0,1,.9-.958h.009a2.24,2.24,0,0,1,1.146.558,4.771,4.771,0,0,0,2.984,1.067c1.467,0,2.585-.8,2.585-1.813,0-.905-.851-1.6-3.062-2.451-2.878-1.12-4-2.159-4-3.7,0-2.132,1.919-3.731,4.476-3.731,2.238,0,4.451,1.172,4.451,2.372" fill="#808086"/>
      <path id="Path_12715" data-name="Path 12715" d="M357.265,77.3h3.091c2.184,0,3.73-1.361,3.73-3.3s-1.465-3.278-3.623-3.278h-3.2Zm0-8.367h2.5a2.749,2.749,0,0,0,2.953-2.529,2.9,2.9,0,0,0,.005-.349,2.582,2.582,0,0,0-2.9-2.744h-2.558Zm5.17.667a4.076,4.076,0,0,1,2.692,1.385,4.387,4.387,0,0,1,1.145,3.038c0,3.062-2.371,5.17-5.808,5.17h-4.209a1.074,1.074,0,0,1-1.176-.962,1.043,1.043,0,0,1,0-.237V62.62a1.074,1.074,0,0,1,.936-1.2,1.1,1.1,0,0,1,.237,0h3.862c2.772,0,4.8,1.814,4.8,4.317a3.814,3.814,0,0,1-2.478,3.811Z" fill="#808086"/>
      <path id="Path_12716" data-name="Path 12716" d="M370.114,72.531c0,3.012,1.438,4.933,3.65,4.933s3.65-1.945,3.65-4.9-1.439-4.9-3.65-4.9-3.65,1.943-3.65,4.873m9.485.026c0,3.945-2.451,6.795-5.835,6.795s-5.836-2.85-5.836-6.741c0-4,2.425-6.848,5.836-6.848,3.384,0,5.835,2.851,5.835,6.794" fill="#808086"/>
      <path id="Path_12717" data-name="Path 12717" d="M383.544,72.531c0,3.012,1.438,4.933,3.65,4.933s3.65-1.945,3.65-4.9-1.439-4.9-3.65-4.9-3.65,1.946-3.65,4.877m9.485.026c0,3.945-2.451,6.8-5.835,6.8s-5.836-2.85-5.836-6.741c0-4,2.425-6.848,5.836-6.848,3.384,0,5.835,2.851,5.835,6.794" fill="#808086"/>
      <path id="Path_12718" data-name="Path 12718" d="M397.533,78.181a1.095,1.095,0,1,1-2.184.149,1.238,1.238,0,0,1,0-.149V61.1a1.1,1.1,0,1,1,2.184-.173,1,1,0,0,1,0,.173v9.355l4.8-4c.612-.534.878-.693,1.251-.693a.9.9,0,0,1,.909.9c0,.029,0,.058,0,.086a1.126,1.126,0,0,1-.532.936l-5.009,3.943,5.808,5.728a1.444,1.444,0,0,1,.5,1.059.9.9,0,0,1-.867.937c-.031,0-.062,0-.093,0-.454,0-.72-.159-1.226-.692l-5.542-5.784Z" fill="#808086"/>
      <path id="Path_12719" data-name="Path 12719" d="M415.893,68.135a.893.893,0,0,1-.9.883.564.564,0,0,1-.058,0,1.708,1.708,0,0,1-1.067-.479,3.527,3.527,0,0,0-2.4-.881c-1.36,0-2.317.667-2.317,1.626,0,.85.8,1.439,2.878,2.185,2.984,1.067,4.21,2.184,4.21,3.913,0,2.319-2.025,3.971-4.876,3.971-2.533,0-4.957-1.252-4.957-2.558a.928.928,0,0,1,.9-.958h.009a2.24,2.24,0,0,1,1.146.558,4.771,4.771,0,0,0,2.984,1.067c1.466,0,2.585-.8,2.585-1.813,0-.905-.851-1.6-3.062-2.451-2.878-1.12-4-2.159-4-3.7,0-2.132,1.918-3.731,4.476-3.731,2.238,0,4.45,1.172,4.45,2.372" fill="#808086"/>
    </g>
  </g>
</svg>